# 3ds Max Wavefront OBJ Exporter v0.97b - (c)2007 guruware
# File Created: 03.03.2017 17:24:45

mtllib TwoSwitches.mtl

#
# object Box006
#

v  -23.0132 3.4708 11.2160
v  -22.5922 3.4708 11.2160
v  -22.5922 3.4708 11.3259
v  -23.0132 3.4708 11.3259
v  -22.5922 4.3274 11.3259
v  -22.5922 4.3274 11.2160
v  -23.0132 4.3274 11.2160
v  -23.0132 4.3274 11.3259
v  -22.5922 3.8794 11.3259
v  -23.0132 3.8794 11.3259
v  -22.5922 3.8794 11.2160
v  -23.0132 3.8794 11.2160
v  -23.0013 3.8798 11.2123
v  -23.0013 3.4827 11.2123
v  -22.6042 3.4827 11.2123
v  -22.9027 3.5813 11.2123
v  -22.7028 3.5813 11.2123
v  -22.6042 3.8798 11.2123
v  -22.7028 3.7811 11.2123
v  -22.9027 3.7811 11.2123
v  -22.9027 3.5813 11.2528
v  -22.7028 3.5813 11.2528
v  -22.7028 3.7811 11.2528
v  -22.9027 3.7811 11.2528
v  -23.0013 4.3151 11.2123
v  -22.8994 3.9915 11.2123
v  -22.7061 3.9915 11.2123
v  -22.6042 4.3151 11.2123
v  -22.7061 4.2033 11.2123
v  -22.8994 4.2033 11.2123
v  -22.8994 3.9915 11.2523
v  -22.7158 3.9915 11.2544
v  -22.7061 3.9915 11.2544
v  -22.7061 4.2033 11.2544
v  -22.8994 4.2033 11.2523
v  -22.7158 4.2033 11.2544
# 36 vertices

vn -0.6055 -0.6053 -0.5167
vn 0.6055 -0.6053 -0.5167
vn 0.7071 -0.7071 -0.0000
vn -0.7071 -0.7071 -0.0000
vn 0.7071 0.7071 -0.0000
vn 0.6047 0.6052 -0.5178
vn -0.6047 0.6052 -0.5178
vn -0.7071 0.7071 -0.0000
vn 0.0000 0.0000 1.0000
vn 0.8043 0.0000 -0.5942
vn 1.0000 0.0000 -0.0000
vn -0.8043 0.0000 -0.5942
vn -0.2940 0.0000 -0.9558
vn -0.1500 -0.1518 -0.9770
vn 0.0000 0.0000 -1.0000
vn 0.0000 -0.0000 -1.0000
vn -0.0000 0.0000 -1.0000
vn 0.0000 1.0000 -0.0000
vn 0.0000 -1.0000 0.0000
vn -1.0000 0.0000 -0.0000
vn -0.1510 0.1459 -0.9777
vn 0.0000 -1.0000 -0.0000
vn 0.1500 -0.1518 -0.9770
vn 0.1510 0.1459 -0.9777
vn 0.2940 0.0000 -0.9558
vn 0.0109 -0.0005 -0.9999
vn 0.0109 0.0005 -0.9999
# 27 vertex normals

vt 0.3746 0.5192 0.0000
vt 0.1056 0.5192 0.0000
vt 0.1056 0.4468 0.0000
vt 0.3746 0.4468 0.0000
vt 0.1066 0.4299 0.0000
vt 0.1066 0.3576 0.0000
vt 0.3755 0.3576 0.0000
vt 0.3755 0.4299 0.0000
vt 0.4782 0.5504 0.0000
vt 0.7472 0.5504 0.0000
vt 0.7472 0.8195 0.0000
vt 0.4782 0.8195 0.0000
vt 0.0743 0.5505 0.0000
vt 0.0743 0.8195 0.0000
vt 0.0020 0.8195 0.0000
vt 0.0020 0.5505 0.0000
vt 0.4059 0.5505 0.0000
vt 0.4059 0.8195 0.0000
vt 0.4021 0.8195 0.0000
vt 0.4021 0.5505 0.0000
vt 0.1056 0.5230 0.0000
vt 0.3746 0.5230 0.0000
vt 0.3078 0.5898 0.0000
vt 0.1724 0.5898 0.0000
vt 0.3746 0.8469 0.0000
vt 0.1056 0.8469 0.0000
vt 0.1724 0.7801 0.0000
vt 0.3078 0.7801 0.0000
vt 0.0782 0.8195 0.0000
vt 0.0782 0.5505 0.0000
vt 0.1450 0.6173 0.0000
vt 0.1450 0.7526 0.0000
vt 0.3353 0.7526 0.0000
vt 0.3353 0.6173 0.0000
vt 0.3078 0.6173 0.0000
vt 0.1724 0.6173 0.0000
vt 0.1724 0.7526 0.0000
vt 0.3078 0.7526 0.0000
vt 0.4802 0.0305 0.0000
vt 0.7491 0.0305 0.0000
vt 0.7491 0.3253 0.0000
vt 0.4802 0.3253 0.0000
vt 0.0743 0.0305 0.0000
vt 0.0743 0.3253 0.0000
vt 0.0020 0.3253 0.0000
vt 0.0020 0.0305 0.0000
vt 0.4078 0.0305 0.0000
vt 0.4078 0.3253 0.0000
vt 0.4040 0.3253 0.0000
vt 0.4040 0.0305 0.0000
vt 0.1066 0.0020 0.0000
vt 0.3755 0.0020 0.0000
vt 0.3065 0.0776 0.0000
vt 0.1756 0.0776 0.0000
vt 0.3755 0.3538 0.0000
vt 0.1066 0.3538 0.0000
vt 0.1756 0.2782 0.0000
vt 0.3065 0.2782 0.0000
vt 0.0781 0.3253 0.0000
vt 0.0781 0.0305 0.0000
vt 0.1471 0.1062 0.0000
vt 0.1471 0.2496 0.0000
vt 0.3350 0.2496 0.0000
vt 0.3350 0.1062 0.0000
vt 0.3065 0.1047 0.0000
vt 0.1822 0.1062 0.0000
vt 0.1756 0.1062 0.0000
vt 0.1756 0.2496 0.0000
vt 0.3065 0.2511 0.0000
vt 0.1822 0.2496 0.0000
vt 0.3079 0.2496 0.0000
vt 0.3079 0.1062 0.0000
# 72 texture coords

g Box006
usemtl wire_027177027
s 1
f 1/1/1 2/2/2 3/3/3 4/4/4 
f 5/5/5 6/6/6 7/7/7 8/8/8 
s off
f 4/9/9 3/10/9 9/11/9 10/12/9 
s 1
f 2/13/2 11/14/10 9/15/11 3/16/3 
f 1/17/1 12/18/12 13/19/13 14/20/14 
s off
f 15/21/15 14/22/15 16/23/15 17/24/15 
f 13/25/16 18/26/16 19/27/16 20/28/16 
f 18/29/17 15/30/17 17/31/17 19/32/17 
f 14/20/15 13/19/15 20/33/15 16/34/15 
f 17/24/18 16/23/18 21/35/18 22/36/18 
f 20/28/19 19/27/19 23/37/19 24/38/19 
f 19/32/20 17/31/20 22/36/20 23/37/20 
f 16/34/11 20/33/11 24/38/11 21/35/11 
f 24/38/15 23/37/15 22/36/15 21/35/15 
f 10/39/9 9/40/9 5/41/9 8/42/9 
s 1
f 11/43/10 6/44/6 5/45/5 9/46/11 
f 12/47/12 7/48/7 25/49/21 13/50/13 
s off
f 18/51/15 13/52/15 26/53/15 27/54/15 
f 25/55/16 28/56/16 29/57/16 30/58/16 
f 28/59/17 18/60/17 27/61/17 29/62/17 
f 13/50/15 25/49/15 30/63/15 26/64/15 
f 27/54/18 26/53/18 31/65/18 32/66/18 
f 27/54/18 32/66/18 33/67/18 
f 30/58/22 29/57/22 34/68/22 35/69/22 
f 34/68/22 36/70/22 35/69/22 
f 29/62/20 27/61/20 33/67/20 34/68/20 
s 1
f 14/22/14 15/21/23 2/2/2 1/1/1 
f 28/56/24 25/55/21 7/7/7 6/6/6 
f 15/30/23 18/29/25 11/14/10 2/13/2 
f 4/9/4 10/12/20 12/18/12 1/17/1 
f 18/60/25 28/59/24 6/44/6 11/43/10 
f 10/39/20 8/42/8 7/48/7 12/47/12 
s off
f 26/64/11 30/63/11 35/71/11 31/72/11 
f 32/66/26 31/65/26 35/71/26 33/67/26 
f 33/67/27 35/71/27 36/70/27 34/68/27 
# 33 polygons - 2 triangles

#
# object Object038
#

v  -22.8992 4.1954 11.2156
v  -22.8992 4.1954 11.2542
v  -22.8956 4.1954 11.2542
v  -22.8956 4.1954 11.2156
v  -22.8956 4.1925 11.2149
v  -22.8992 4.1925 11.2149
v  -22.8992 4.0013 11.1725
v  -22.8956 4.0013 11.1725
v  -22.8956 4.0013 11.2542
v  -22.8992 4.0013 11.2542
v  -22.7051 4.1954 11.2542
v  -22.7051 4.1925 11.2542
v  -22.7051 4.1925 11.2149
v  -22.7051 4.1954 11.2156
v  -22.8992 4.1925 11.2542
v  -22.7114 4.1954 11.2156
v  -22.7114 4.1954 11.2542
v  -22.7114 4.1925 11.2149
v  -22.7114 4.0013 11.2542
v  -22.7114 4.0013 11.1725
v  -22.7051 4.0013 11.1725
v  -22.7051 4.0013 11.2542
v  -22.7051 4.0037 11.1731
v  -22.7051 4.0037 11.2542
v  -22.7114 4.0037 11.1731
v  -22.8956 4.0037 11.1731
v  -22.8992 4.0037 11.1731
v  -22.8992 4.0037 11.2542
# 28 vertices

vn -0.5897 0.6299 -0.5054
vn -0.7071 0.7071 -0.0000
vn 0.0000 1.0000 -0.0000
vn 0.0000 0.7800 -0.6258
vn 0.0000 0.2166 -0.9763
vn -0.7071 0.1532 -0.6903
vn -0.5667 -0.5157 -0.6425
vn 0.0000 -0.6259 -0.7799
vn 0.0000 -1.0000 -0.0000
vn -0.7071 -0.7071 -0.0000
vn 0.7071 0.7071 -0.0000
vn 1.0000 0.0000 -0.0000
vn 0.7071 0.1532 -0.6903
vn 0.5897 0.6299 -0.5054
vn -1.0000 0.0000 -0.0000
vn 0.5667 -0.5157 -0.6425
vn 0.7071 -0.7071 -0.0000
vn 0.7071 0.1531 -0.6904
vn 0.0000 0.2165 -0.9763
vn -0.7071 0.1531 -0.6904
# 20 vertex normals

vt 0.9459 0.1858 0.0000
vt 0.9459 0.2111 0.0000
vt 0.9436 0.2111 0.0000
vt 0.9436 0.1858 0.0000
vt 0.9436 0.1838 0.0000
vt 0.9459 0.1838 0.0000
vt 0.9457 0.0555 0.0000
vt 0.9435 0.0558 0.0000
vt 0.9435 0.0021 0.0000
vt 0.9459 0.0021 0.0000
vt 0.7935 0.1913 0.0000
vt 0.7930 0.1894 0.0000
vt 0.8182 0.1839 0.0000
vt 0.8182 0.1858 0.0000
vt 0.9711 0.1893 0.0000
vt 0.9706 0.1912 0.0000
vt 0.8224 0.1858 0.0000
vt 0.8224 0.2112 0.0000
vt 0.8182 0.2112 0.0000
vt 0.8224 0.1839 0.0000
vt 0.8224 0.0020 0.0000
vt 0.8223 0.0557 0.0000
vt 0.8183 0.0554 0.0000
vt 0.8182 0.0020 0.0000
vt 0.7660 0.0668 0.0000
vt 0.8183 0.0569 0.0000
vt 0.7663 0.0684 0.0000
vt 0.8223 0.0566 0.0000
vt 0.9435 0.0566 0.0000
vt 0.9457 0.0569 0.0000
vt 0.9980 0.0667 0.0000
vt 0.9977 0.0683 0.0000
# 32 texture coords

g Object038
usemtl wire_027177027
s 1
f 37/73/28 38/74/29 39/75/30 40/76/31 
f 41/77/32 42/78/33 37/73/28 40/76/31 
f 43/79/34 44/80/35 45/81/36 46/82/37 
f 47/83/38 48/84/39 49/85/40 50/86/41 
f 42/78/33 51/87/42 38/88/29 37/73/28 
f 52/89/31 53/90/30 47/91/38 50/86/41 
f 49/85/40 54/92/32 52/89/31 50/86/41 
f 55/93/36 56/94/35 57/95/43 58/96/44 
f 40/76/31 39/75/30 53/90/30 52/89/31 
f 41/77/32 40/76/31 52/89/31 54/92/32 
f 55/93/36 45/81/36 44/80/35 56/94/35 
f 58/97/44 57/95/43 59/98/45 60/99/39 
f 59/98/45 57/95/43 56/94/35 61/100/46 
f 61/100/46 56/94/35 44/80/35 62/101/46 
f 43/79/34 63/102/47 62/101/46 44/80/35 
f 63/102/47 43/79/34 46/103/37 64/104/42 
f 42/78/33 63/102/47 64/104/42 51/87/42 
f 63/102/47 42/78/33 41/77/32 62/101/46 
f 54/92/32 61/100/46 62/101/46 41/77/32 
f 59/98/45 61/100/46 54/92/32 49/85/40 
f 49/85/40 48/84/39 60/99/39 59/98/45 
# 21 polygons

#
# object Object040
#

v  -22.8992 3.7784 11.2156
v  -22.8992 3.7784 11.2542
v  -22.8956 3.7784 11.2542
v  -22.8956 3.7784 11.2156
v  -22.8956 3.7756 11.2149
v  -22.8992 3.7756 11.2149
v  -22.8992 3.5843 11.1725
v  -22.8956 3.5843 11.1725
v  -22.8956 3.5843 11.2542
v  -22.8992 3.5843 11.2542
v  -22.7051 3.7784 11.2542
v  -22.7051 3.7756 11.2542
v  -22.7051 3.7756 11.2149
v  -22.7051 3.7784 11.2156
v  -22.8992 3.7756 11.2542
v  -22.7114 3.7784 11.2156
v  -22.7114 3.7784 11.2542
v  -22.7114 3.7756 11.2149
v  -22.7114 3.5843 11.2542
v  -22.7114 3.5843 11.1725
v  -22.7051 3.5843 11.1725
v  -22.7051 3.5843 11.2542
v  -22.7051 3.5867 11.1731
v  -22.7051 3.5867 11.2542
v  -22.7114 3.5867 11.1731
v  -22.8956 3.5867 11.1731
v  -22.8992 3.5867 11.1731
v  -22.8992 3.5867 11.2542
# 28 vertices

vn -0.5897 0.6299 -0.5054
vn -0.7071 0.7071 -0.0000
vn 0.0000 1.0000 -0.0000
vn 0.0000 0.7800 -0.6258
vn 0.0000 0.2166 -0.9763
vn -0.7071 0.1532 -0.6903
vn -0.5667 -0.5157 -0.6425
vn 0.0000 -0.6259 -0.7799
vn 0.0000 -1.0000 -0.0000
vn -0.7071 -0.7071 -0.0000
vn 0.7071 0.7071 -0.0000
vn 1.0000 0.0000 -0.0000
vn 0.7071 0.1532 -0.6903
vn 0.5897 0.6299 -0.5054
vn -1.0000 0.0000 -0.0000
vn 0.5667 -0.5157 -0.6425
vn 0.7071 -0.7071 -0.0000
vn 0.7071 0.1531 -0.6904
vn 0.0000 0.2165 -0.9763
vn -0.7071 0.1531 -0.6904
# 20 vertex normals

vt 0.9441 0.6306 0.0000
vt 0.9441 0.6560 0.0000
vt 0.9417 0.6560 0.0000
vt 0.9417 0.6306 0.0000
vt 0.9417 0.6287 0.0000
vt 0.9441 0.6286 0.0000
vt 0.9439 0.5003 0.0000
vt 0.9417 0.5006 0.0000
vt 0.9417 0.4469 0.0000
vt 0.9441 0.4469 0.0000
vt 0.7916 0.6361 0.0000
vt 0.7912 0.6343 0.0000
vt 0.8164 0.6287 0.0000
vt 0.8164 0.6306 0.0000
vt 0.9692 0.6342 0.0000
vt 0.9688 0.6360 0.0000
vt 0.8205 0.6306 0.0000
vt 0.8205 0.6561 0.0000
vt 0.8164 0.6561 0.0000
vt 0.8205 0.6287 0.0000
vt 0.8205 0.4468 0.0000
vt 0.8205 0.5006 0.0000
vt 0.8165 0.5003 0.0000
vt 0.8164 0.4468 0.0000
vt 0.7641 0.5117 0.0000
vt 0.8165 0.5017 0.0000
vt 0.7645 0.5132 0.0000
vt 0.8205 0.5015 0.0000
vt 0.9417 0.5014 0.0000
vt 0.9439 0.5017 0.0000
vt 0.9962 0.5116 0.0000
vt 0.9958 0.5131 0.0000
# 32 texture coords

g Object040
usemtl wire_027177027
s 1
f 65/105/48 66/106/49 67/107/50 68/108/51 
f 69/109/52 70/110/53 65/105/48 68/108/51 
f 71/111/54 72/112/55 73/113/56 74/114/57 
f 75/115/58 76/116/59 77/117/60 78/118/61 
f 70/110/53 79/119/62 66/120/49 65/105/48 
f 80/121/51 81/122/50 75/123/58 78/118/61 
f 77/117/60 82/124/52 80/121/51 78/118/61 
f 83/125/56 84/126/55 85/127/63 86/128/64 
f 68/108/51 67/107/50 81/122/50 80/121/51 
f 69/109/52 68/108/51 80/121/51 82/124/52 
f 83/125/56 73/113/56 72/112/55 84/126/55 
f 86/129/64 85/127/63 87/130/65 88/131/59 
f 87/130/65 85/127/63 84/126/55 89/132/66 
f 89/132/66 84/126/55 72/112/55 90/133/66 
f 71/111/54 91/134/67 90/133/66 72/112/55 
f 91/134/67 71/111/54 74/135/57 92/136/62 
f 70/110/53 91/134/67 92/136/62 79/119/62 
f 91/134/67 70/110/53 69/109/52 90/133/66 
f 82/124/52 89/132/66 90/133/66 69/109/52 
f 87/130/65 89/132/66 82/124/52 77/117/60 
f 77/117/60 76/116/59 88/131/59 87/130/65 
# 21 polygons

