# 3ds Max Wavefront OBJ Exporter v0.97b - (c)2007 guruware
# File Created: 03.03.2017 17:48:43

mtllib SingleSwitch.mtl

#
# object apartment_living_kitchen_kitchen_lightswitch_plate_kitchen_lightswitch_kitchen
#

v  -22.9974 5.1237 11.1579
v  -23.0115 5.1237 11.1579
v  -23.0115 5.1237 11.2030
v  -22.9974 5.1237 11.2030
v  -22.9039 5.0161 11.1899
v  -22.8971 5.0161 11.1899
v  -22.8971 5.0083 11.1899
v  -22.9039 5.0083 11.1899
v  -22.9974 4.7085 11.1579
v  -23.0115 4.7085 11.1579
v  -23.0039 4.7161 11.1496
v  -22.9904 4.7161 11.1496
v  -22.6039 5.1161 11.1496
v  -22.5963 5.1237 11.1579
v  -22.5963 5.1076 11.1579
v  -22.6039 5.1006 11.1496
v  -23.0039 5.1006 11.1496
v  -23.0115 5.1076 11.1579
v  -23.0039 5.1161 11.1496
v  -22.9904 5.1161 11.1496
v  -22.9018 5.0211 11.1496
v  -22.9089 5.0211 11.1496
v  -22.6989 5.0129 11.1496
v  -22.6989 5.0211 11.1496
v  -22.9089 4.8111 11.1496
v  -22.9018 4.8111 11.1496
v  -22.9089 5.0129 11.1496
v  -22.9039 5.0161 11.1496
v  -22.8971 5.0161 11.1496
v  -22.8971 5.0161 11.1877
v  -22.9039 5.0161 11.1877
v  -22.7039 5.0083 11.1877
v  -22.7039 5.0161 11.1877
v  -22.7039 5.0161 11.1496
v  -22.7039 5.0083 11.1496
v  -22.8971 4.8161 11.1496
v  -22.9039 4.8161 11.1496
v  -22.9039 4.8161 11.1877
v  -22.8971 4.8161 11.1877
v  -22.9039 5.0083 11.1877
v  -22.9039 5.0083 11.1496
v  -22.7039 5.0083 11.1899
v  -22.7039 5.0161 11.1899
v  -22.8971 4.8161 11.1899
v  -22.9039 4.8161 11.1899
v  -22.6133 5.1237 11.1579
v  -22.6133 5.1237 11.2030
v  -22.5963 5.1237 11.2030
v  -22.7075 5.0211 11.1496
v  -22.6203 5.1161 11.1496
v  -22.7121 5.0161 11.1877
v  -22.7121 5.0161 11.1496
v  -22.7121 5.0161 11.1899
v  -22.7121 5.0083 11.1899
v  -22.7039 4.8161 11.1877
v  -22.7121 4.8161 11.1877
v  -22.7121 4.8161 11.1899
v  -22.7039 4.8161 11.1899
v  -22.7039 4.8161 11.1496
v  -22.7121 4.8161 11.1496
v  -22.6989 4.8111 11.1496
v  -22.6039 4.7161 11.1496
v  -22.6203 4.7161 11.1496
v  -22.7075 4.8111 11.1496
v  -22.5963 4.7085 11.1579
v  -22.6133 4.7085 11.1579
v  -22.5963 4.7183 11.1579
v  -22.6039 4.7255 11.1496
v  -22.6989 4.8160 11.1496
v  -22.7039 4.8208 11.1877
v  -22.7039 4.8208 11.1496
v  -22.7039 4.8208 11.1899
v  -22.7121 4.8208 11.1899
v  -22.8971 4.8208 11.1899
v  -22.9039 4.8208 11.1899
v  -22.9039 4.8208 11.1877
v  -22.9039 4.8208 11.1496
v  -22.9089 4.8160 11.1496
v  -23.0039 4.7255 11.1496
v  -23.0115 4.7183 11.1579
v  -22.9974 4.7085 11.2030
v  -23.0115 4.7085 11.2030
v  -22.5963 5.1076 11.2030
v  -23.0115 5.1076 11.2030
v  -22.5963 4.7085 11.2030
v  -22.6133 4.7085 11.2030
v  -22.5963 4.7183 11.2030
v  -23.0115 4.7183 11.2030
# 88 vertices

vn 0.0000 0.9313 -0.3643
vn -0.6545 0.6548 -0.3780
vn -0.7071 0.7071 -0.0000
vn 0.0000 1.0000 -0.0000
vn 0.0000 0.0000 -1.0000
vn 0.0000 -0.9322 -0.3620
vn -0.6550 -0.6548 -0.3771
vn -0.4317 -0.4326 -0.7915
vn 0.0000 -0.7380 -0.6748
vn 0.4306 0.4297 -0.7937
vn 0.6545 0.6546 -0.3783
vn 0.9315 0.0000 -0.3637
vn 0.7355 0.0000 -0.6775
vn -0.7370 0.0000 -0.6759
vn -0.9319 0.0000 -0.3626
vn -0.4320 0.4296 -0.7930
vn 0.0000 -1.0000 -0.0000
vn -1.0000 0.0000 -0.0000
vn 1.0000 0.0000 -0.0000
vn 0.7071 0.7071 -0.0000
vn 0.6550 -0.6546 -0.3775
vn 0.4303 -0.4328 -0.7922
vn 0.0000 0.7345 -0.6786
vn -0.7071 -0.7071 -0.0000
vn 0.7071 -0.7071 -0.0000
# 25 vertex normals

vt 0.5299 0.5911 0.0000
vt 0.5451 0.5911 0.0000
vt 0.5451 0.6399 0.0000
vt 0.5299 0.6399 0.0000
vt 0.4286 0.4284 0.0000
vt 0.4217 0.4288 0.0000
vt 0.4217 0.4205 0.0000
vt 0.4290 0.4205 0.0000
vt 0.5298 0.0508 0.0000
vt 0.5450 0.0508 0.0000
vt 0.5368 0.0629 0.0000
vt 0.5222 0.0629 0.0000
vt 0.0628 0.5362 0.0000
vt 0.0507 0.5444 0.0000
vt 0.0507 0.5271 0.0000
vt 0.0628 0.5196 0.0000
vt 0.5792 0.5196 0.0000
vt 0.5913 0.5272 0.0000
vt 0.5913 0.5445 0.0000
vt 0.5792 0.5363 0.0000
vt 0.5369 0.5790 0.0000
vt 0.5223 0.5790 0.0000
vt 0.4267 0.4764 0.0000
vt 0.4343 0.4764 0.0000
vt 0.1654 0.4252 0.0000
vt 0.1654 0.4339 0.0000
vt 0.4343 0.1654 0.0000
vt 0.4266 0.1654 0.0000
vt 0.4766 0.4340 0.0000
vt 0.4766 0.4252 0.0000
vt 0.4289 0.4710 0.0000
vt 0.4216 0.4711 0.0000
vt 0.4217 0.4300 0.0000
vt 0.4287 0.4303 0.0000
vt 0.2117 0.4204 0.0000
vt 0.2114 0.4284 0.0000
vt 0.1707 0.4285 0.0000
vt 0.1707 0.4203 0.0000
vt 0.4216 0.1708 0.0000
vt 0.4289 0.1708 0.0000
vt 0.4286 0.2115 0.0000
vt 0.4216 0.2118 0.0000
vt 0.4306 0.4285 0.0000
vt 0.4302 0.4204 0.0000
vt 0.4712 0.4203 0.0000
vt 0.4712 0.4286 0.0000
vt 0.2130 0.4205 0.0000
vt 0.2133 0.4284 0.0000
vt 0.4217 0.2130 0.0000
vt 0.4285 0.2135 0.0000
vt 0.0969 0.5912 0.0000
vt 0.1152 0.5912 0.0000
vt 0.1152 0.6400 0.0000
vt 0.0969 0.6400 0.0000
vt 0.1051 0.5791 0.0000
vt 0.2077 0.4765 0.0000
vt 0.2169 0.4765 0.0000
vt 0.1227 0.5791 0.0000
vt 0.2132 0.4304 0.0000
vt 0.2218 0.4301 0.0000
vt 0.2218 0.4711 0.0000
vt 0.2131 0.4711 0.0000
vt 0.2217 0.4288 0.0000
vt 0.2218 0.4205 0.0000
vt 0.2133 0.2115 0.0000
vt 0.2218 0.2117 0.0000
vt 0.2218 0.2130 0.0000
vt 0.2135 0.2135 0.0000
vt 0.2132 0.1707 0.0000
vt 0.2219 0.1707 0.0000
vt 0.2077 0.1653 0.0000
vt 0.1053 0.0628 0.0000
vt 0.1229 0.0628 0.0000
vt 0.2170 0.1653 0.0000
vt 0.0970 0.0507 0.0000
vt 0.1153 0.0507 0.0000
vt 0.0513 0.1075 0.0000
vt 0.0513 0.0969 0.0000
vt 0.0634 0.1051 0.0000
vt 0.0634 0.1153 0.0000
vt 0.1657 0.2076 0.0000
vt 0.1657 0.2130 0.0000
vt 0.1711 0.2130 0.0000
vt 0.2117 0.2134 0.0000
vt 0.2120 0.2181 0.0000
vt 0.1710 0.2181 0.0000
vt 0.2132 0.2181 0.0000
vt 0.2219 0.2180 0.0000
vt 0.4216 0.2180 0.0000
vt 0.4288 0.2180 0.0000
vt 0.4302 0.2134 0.0000
vt 0.4300 0.2181 0.0000
vt 0.4709 0.2181 0.0000
vt 0.4709 0.2130 0.0000
vt 0.4763 0.2129 0.0000
vt 0.4763 0.2076 0.0000
vt 0.5786 0.1050 0.0000
vt 0.5786 0.1152 0.0000
vt 0.5907 0.0968 0.0000
vt 0.5907 0.1074 0.0000
vt 0.5298 0.0021 0.0000
vt 0.5450 0.0021 0.0000
vt 0.0020 0.5444 0.0000
vt 0.0020 0.5271 0.0000
vt 0.6399 0.5271 0.0000
vt 0.6400 0.5444 0.0000
vt 0.0971 0.0020 0.0000
vt 0.1154 0.0020 0.0000
vt 0.0026 0.1074 0.0000
vt 0.0026 0.0968 0.0000
vt 0.6394 0.0968 0.0000
vt 0.6394 0.1074 0.0000
# 112 texture coords

g apartment_living_kitchen_kitchen_lightswitch_plate_kitchen_lightswitch_kitchen
usemtl wire_224198087
s 1
f 1/1/1 2/2/2 3/3/3 4/4/4 
s off
f 5/5/5 6/6/5 7/7/5 8/8/5 
s 1
f 9/9/6 10/10/7 11/11/8 12/12/9 
f 13/13/10 14/14/11 15/15/12 16/16/13 
f 17/17/14 18/18/15 2/19/2 19/20/16 
s off
f 19/21/5 20/22/5 21/23/5 22/24/5 
f 16/16/5 23/25/5 24/26/5 13/13/5 
f 12/12/5 11/11/5 25/27/5 26/28/5 
f 19/20/5 22/29/5 27/30/5 17/17/5 
f 28/31/17 29/32/17 30/33/17 31/34/17 
f 32/35/18 33/36/18 34/37/18 35/38/18 
f 36/39/4 37/40/4 38/41/4 39/42/4 
f 31/43/19 40/44/19 41/45/19 28/46/19 
f 31/34/17 30/33/17 6/6/17 5/5/17 
f 33/36/18 32/35/18 42/47/18 43/48/18 
f 44/49/4 39/42/4 38/41/4 45/50/4 
f 31/43/19 5/5/19 8/8/19 40/44/19 
s 1
f 14/51/11 46/52/1 47/53/4 48/54/20 
s off
f 13/55/5 24/56/5 49/57/5 50/58/5 
f 33/59/17 51/60/17 52/61/17 34/62/17 
f 53/63/17 51/60/17 33/59/17 43/48/17 
f 43/48/5 42/47/5 54/64/5 53/63/5 
f 55/65/4 56/66/4 57/67/4 58/68/4 
f 55/65/4 59/69/4 60/70/4 56/66/4 
f 61/71/5 62/72/5 63/73/5 64/74/5 
s 1
f 65/75/21 66/76/6 63/73/9 62/72/22 
f 46/52/1 1/1/1 4/4/4 47/53/4 
s off
f 50/58/5 49/57/5 21/23/5 20/22/5 
f 51/60/17 30/33/17 29/32/17 52/61/17 
f 30/33/17 51/60/17 53/63/17 6/6/17 
f 53/63/5 54/64/5 7/7/5 6/6/5 
f 39/42/4 44/49/4 57/67/4 56/66/4 
f 56/66/4 60/70/4 36/39/4 39/42/4 
f 12/12/5 26/28/5 64/74/5 63/73/5 
s 1
f 66/76/6 9/9/6 12/12/9 63/73/9 
f 67/77/12 65/78/21 62/79/22 68/80/13 
s off
f 61/81/5 69/82/5 68/80/5 62/79/5 
f 59/83/18 55/84/18 70/85/18 71/86/18 
f 72/87/18 70/85/18 55/84/18 58/68/18 
f 57/67/5 73/88/5 72/87/5 58/68/5 
f 73/88/5 57/67/5 44/49/5 74/89/5 
f 45/50/5 75/90/5 74/89/5 44/49/5 
f 38/91/19 76/92/19 75/90/19 45/50/19 
f 77/93/19 76/92/19 38/91/19 37/94/19 
f 78/95/5 25/96/5 11/97/5 79/98/5 
s 1
f 10/99/7 80/100/15 79/98/14 11/97/8 
f 16/16/13 15/15/12 67/77/12 68/80/13 
s off
f 68/80/5 69/82/5 23/25/5 16/16/5 
f 35/38/18 71/86/18 70/85/18 32/35/18 
f 70/85/18 72/87/18 42/47/18 32/35/18 
f 54/64/5 42/47/5 72/87/5 73/88/5 
f 54/64/5 73/88/5 74/89/5 7/7/5 
f 74/89/5 75/90/5 8/8/5 7/7/5 
f 8/8/19 75/90/19 76/92/19 40/44/19 
f 76/92/19 77/93/19 41/45/19 40/44/19 
f 79/98/5 17/17/5 27/30/5 78/95/5 
s 1
f 79/98/14 80/100/15 18/18/15 17/17/14 
s off
f 21/23/5 49/57/5 52/61/5 29/32/5 
f 21/23/5 29/32/5 28/31/5 22/24/5 
f 27/30/5 22/29/5 28/46/5 41/45/5 
f 27/30/5 41/45/5 77/93/5 78/95/5 
f 37/94/5 25/96/5 78/95/5 77/93/5 
f 36/39/5 26/28/5 25/27/5 37/40/5 
f 64/74/5 26/28/5 36/39/5 60/70/5 
f 61/71/5 64/74/5 60/70/5 59/69/5 
f 71/86/5 69/82/5 61/81/5 59/83/5 
f 69/82/5 71/86/5 35/38/5 23/25/5 
f 24/26/5 23/25/5 35/38/5 34/37/5 
f 24/56/5 34/62/5 52/61/5 49/57/5 
s 1
f 19/21/16 2/2/2 1/1/1 20/22/23 
f 81/101/17 82/102/24 10/10/7 9/9/6 
f 48/103/20 83/104/19 15/15/12 14/14/11 
f 84/105/18 3/106/3 2/19/2 18/18/15 
f 13/55/10 50/58/23 46/52/1 14/51/11 
f 85/107/25 86/108/17 66/76/6 65/75/21 
f 50/58/23 20/22/23 1/1/1 46/52/1 
f 86/108/17 81/101/17 9/9/6 66/76/6 
f 87/109/19 85/110/25 65/78/21 67/77/12 
f 82/111/24 88/112/18 80/100/15 10/99/7 
f 83/104/19 87/109/19 67/77/12 15/15/12 
f 88/112/18 84/105/18 18/18/15 80/100/15 
# 81 polygons

#
# object Object042
#

v  -22.9014 5.0130 11.1578
v  -22.9014 5.0130 11.1964
v  -22.8978 5.0130 11.1964
v  -22.8978 5.0130 11.1578
v  -22.8978 5.0101 11.1571
v  -22.9014 5.0101 11.1571
v  -22.9014 4.8189 11.1147
v  -22.8978 4.8189 11.1147
v  -22.8978 4.8189 11.1964
v  -22.9014 4.8189 11.1964
v  -22.7073 5.0130 11.1964
v  -22.7073 5.0101 11.1964
v  -22.7073 5.0101 11.1571
v  -22.7073 5.0130 11.1578
v  -22.9014 5.0101 11.1964
v  -22.7136 5.0130 11.1578
v  -22.7136 5.0130 11.1964
v  -22.7136 5.0101 11.1571
v  -22.7136 4.8189 11.1964
v  -22.7136 4.8189 11.1147
v  -22.7073 4.8189 11.1147
v  -22.7073 4.8189 11.1964
v  -22.7073 4.8213 11.1152
v  -22.7073 4.8213 11.1964
v  -22.7136 4.8213 11.1152
v  -22.8978 4.8213 11.1152
v  -22.9014 4.8213 11.1152
v  -22.9014 4.8213 11.1964
# 28 vertices

vn -0.5897 0.6298 -0.5055
vn -0.7071 0.7071 -0.0000
vn 0.0000 1.0000 -0.0000
vn 0.0000 0.7799 -0.6259
vn 0.0000 0.2165 -0.9763
vn -0.7071 0.1531 -0.6903
vn -0.5667 -0.5157 -0.6425
vn 0.0000 -0.6259 -0.7799
vn 0.0000 -1.0000 -0.0000
vn -0.7071 -0.7071 -0.0000
vn 0.7071 0.7071 -0.0000
vn 1.0000 0.0000 -0.0000
vn 0.7071 0.1531 -0.6903
vn 0.5897 0.6298 -0.5055
vn -1.0000 0.0000 -0.0000
vn 0.5667 -0.5157 -0.6425
vn 0.7071 -0.7071 -0.0000
vn 0.7071 0.1531 -0.6904
vn -0.7071 0.1531 -0.6904
# 19 vertex normals

vt 0.2973 0.9562 0.0000
vt 0.2973 0.9979 0.0000
vt 0.2935 0.9979 0.0000
vt 0.2935 0.9562 0.0000
vt 0.2935 0.9530 0.0000
vt 0.2973 0.9530 0.0000
vt 0.2969 0.7425 0.0000
vt 0.2934 0.7429 0.0000
vt 0.2934 0.6548 0.0000
vt 0.2973 0.6548 0.0000
vt 0.0471 0.9653 0.0000
vt 0.0465 0.9622 0.0000
vt 0.0877 0.9531 0.0000
vt 0.0877 0.9563 0.0000
vt 0.3386 0.9621 0.0000
vt 0.3379 0.9651 0.0000
vt 0.0945 0.9563 0.0000
vt 0.0946 0.9980 0.0000
vt 0.0877 0.9980 0.0000
vt 0.0945 0.9531 0.0000
vt 0.0946 0.6546 0.0000
vt 0.0945 0.7428 0.0000
vt 0.0879 0.7424 0.0000
vt 0.0878 0.6547 0.0000
vt 0.0020 0.7610 0.0000
vt 0.0879 0.7447 0.0000
vt 0.0026 0.7636 0.0000
vt 0.0945 0.7443 0.0000
vt 0.2934 0.7442 0.0000
vt 0.2969 0.7447 0.0000
vt 0.3828 0.7609 0.0000
vt 0.3823 0.7634 0.0000
# 32 texture coords

g Object042
usemtl wire_224198087
s 1
f 89/113/26 90/114/27 91/115/28 92/116/29 
f 93/117/30 94/118/31 89/113/26 92/116/29 
f 95/119/32 96/120/33 97/121/34 98/122/35 
f 99/123/36 100/124/37 101/125/38 102/126/39 
f 94/118/31 103/127/40 90/128/27 89/113/26 
f 104/129/29 105/130/28 99/131/36 102/126/39 
f 101/125/38 106/132/30 104/129/29 102/126/39 
f 107/133/34 108/134/33 109/135/41 110/136/42 
f 92/116/29 91/115/28 105/130/28 104/129/29 
f 93/117/30 92/116/29 104/129/29 106/132/30 
f 107/133/34 97/121/34 96/120/33 108/134/33 
f 110/137/42 109/135/41 111/138/43 112/139/37 
f 111/138/43 109/135/41 108/134/33 113/140/30 
f 113/140/30 108/134/33 96/120/33 114/141/30 
f 95/119/32 115/142/44 114/141/30 96/120/33 
f 115/142/44 95/119/32 98/143/35 116/144/40 
f 94/118/31 115/142/44 116/144/40 103/127/40 
f 115/142/44 94/118/31 93/117/30 114/141/30 
f 106/132/30 113/140/30 114/141/30 93/117/30 
f 111/138/43 113/140/30 106/132/30 101/125/38 
f 101/125/38 100/124/37 112/139/37 111/138/43 
# 21 polygons

