# 3ds Max Wavefront OBJ Exporter v0.97b - (c)2007 guruware
# File Created: 21.11.2016 20:05:25

mtllib LivingRoomTable.mtl

#
# object Box001
#

v  51.9290 0.0000 13.6681
v  51.9290 0.0909 13.6681
v  52.9801 0.0909 13.6681
v  52.9801 0.0000 13.6681
v  51.8070 0.0000 13.8768
v  51.8070 0.0000 15.6241
v  51.8070 0.0909 15.6241
v  51.8070 0.0909 13.8768
v  52.9801 0.0000 13.7738
v  51.9290 0.0000 13.7738
v  51.9290 0.0909 13.7738
v  52.9801 0.0909 13.7738
v  53.1021 0.0000 13.6681
v  53.1021 0.0909 13.6681
v  53.1021 0.0909 13.7738
v  53.1021 0.0000 13.7738
v  51.8070 0.0909 13.6681
v  51.8070 0.0000 13.6681
v  51.8070 0.0000 13.7738
v  51.8070 0.0909 13.7738
v  53.1021 0.0000 15.6241
v  52.9801 0.0000 15.6241
v  52.9801 0.0000 13.8768
v  53.1021 0.0000 13.8768
v  51.9290 0.0909 15.6241
v  51.9290 0.0909 13.8768
v  52.9874 -0.1034 13.7738
v  51.9217 -0.1034 13.7738
v  52.9801 0.0909 13.8768
v  53.1021 0.0909 13.8768
v  53.0327 -0.9580 13.7328
v  53.1676 -0.9580 13.7328
v  53.1676 -0.9580 13.8468
v  53.0327 -0.9580 13.8468
v  51.7415 -0.9580 13.7328
v  51.8764 -0.9580 13.7328
v  51.8764 -0.9580 13.8468
v  51.7415 -0.9580 13.8468
v  52.9874 -0.1034 13.8768
v  51.9217 -0.1034 13.8768
v  51.9290 0.0000 13.8768
v  53.1021 0.0909 15.6241
v  51.9290 0.0000 15.6241
v  52.9801 0.0909 15.6241
v  51.9217 -0.1034 15.6241
v  51.7741 -0.5182 15.6374
v  51.7741 -0.4432 15.6374
v  51.7741 -0.4432 13.8635
v  51.7741 -0.5182 13.8635
v  53.1350 -0.5182 13.8635
v  53.1350 -0.4432 13.8635
v  52.9874 -0.1034 15.6241
v  51.9290 0.0000 15.8328
v  52.9801 0.0000 15.8328
v  52.9801 0.0909 15.8328
v  51.9290 0.0909 15.8328
v  51.9290 0.0000 15.7272
v  52.9801 0.0000 15.7272
v  52.9801 0.0909 15.7272
v  51.9290 0.0909 15.7272
v  53.1021 0.0000 15.8328
v  53.1021 0.0000 15.7272
v  53.1021 0.0909 15.7272
v  53.1021 0.0909 15.8328
v  51.8070 0.0909 15.8328
v  51.8070 0.0909 15.7272
v  51.8070 0.0000 15.7272
v  51.8070 0.0000 15.8328
v  51.9217 -0.1034 15.7272
v  52.9874 -0.1034 15.7272
v  53.0327 -0.9580 15.7682
v  53.0327 -0.9580 15.6541
v  53.1676 -0.9580 15.6541
v  53.1676 -0.9580 15.7682
v  51.7415 -0.9580 15.7682
v  51.7415 -0.9580 15.6541
v  51.8764 -0.9580 15.6541
v  51.8764 -0.9580 15.7682
v  53.1350 -0.5182 15.6374
v  53.1350 -0.4432 15.6374
# 80 vertices

vn 0.0000 0.0000 -1.0000
vn -1.0000 0.0000 -0.0000
vn 0.0000 -1.0000 -0.0000
vn -0.0000 1.0000 -0.0000
vn 1.0000 0.0000 -0.0000
vn 0.0000 1.0000 -0.0000
vn 0.9975 0.0705 -0.0000
vn -0.9975 0.0705 -0.0000
vn 0.9977 0.0683 -0.0000
vn 0.0000 -0.0313 0.9995
vn -0.9985 -0.0548 -0.0000
vn 0.0000 0.0427 -0.9991
vn 0.9985 -0.0548 -0.0000
vn -0.9977 0.0683 -0.0000
vn 0.0000 0.0000 1.0000
vn 0.0000 -0.0313 -0.9995
vn 0.0000 0.0427 0.9991
# 17 vertex normals

vt 0.2443 0.5550 0.0000
vt 0.2442 0.5711 0.0000
vt 0.0589 0.5708 0.0000
vt 0.0589 0.5548 0.0000
vt 0.2817 0.6079 0.0000
vt 0.2814 0.9161 0.0000
vt 0.2653 0.9161 0.0000
vt 0.2657 0.6079 0.0000
vt 0.0589 0.5362 0.0000
vt 0.2443 0.5364 0.0000
vt 0.2442 0.5897 0.0000
vt 0.0588 0.5895 0.0000
vt 0.0213 0.5708 0.0000
vt 0.0374 0.5708 0.0000
vt 0.0373 0.5894 0.0000
vt 0.0213 0.5894 0.0000
vt 0.2657 0.5711 0.0000
vt 0.2818 0.5711 0.0000
vt 0.2818 0.5897 0.0000
vt 0.2657 0.5897 0.0000
vt 0.8336 0.3102 0.0000
vt 0.8121 0.3102 0.0000
vt 0.8121 0.0020 0.0000
vt 0.8336 0.0020 0.0000
vt 0.2438 0.9160 0.0000
vt 0.2442 0.6079 0.0000
vt 0.2658 0.5550 0.0000
vt 0.0374 0.5548 0.0000
vt 0.0374 0.5361 0.0000
vt 0.2658 0.5364 0.0000
vt 0.7638 0.4416 0.0000
vt 0.5784 0.4416 0.0000
vt 0.5771 0.4233 0.0000
vt 0.7651 0.4233 0.0000
vt 0.0588 0.6076 0.0000
vt 0.0373 0.6076 0.0000
vt 0.0213 0.6076 0.0000
vt 0.1168 0.1982 0.0000
vt 0.0931 0.1996 0.0000
vt 0.0918 0.1795 0.0000
vt 0.1156 0.1781 0.0000
vt 0.0203 0.3075 0.0000
vt 0.0212 0.2837 0.0000
vt 0.0413 0.2845 0.0000
vt 0.0403 0.3083 0.0000
vt 0.7786 0.0100 0.0000
vt 0.7786 0.0020 0.0000
vt 0.3178 0.7319 0.0000
vt 0.3178 0.7136 0.0000
vt 0.3360 0.7136 0.0000
vt 0.3360 0.7319 0.0000
vt 0.3178 0.5257 0.0000
vt 0.3360 0.5257 0.0000
vt 0.0749 0.0105 0.0000
vt 0.0931 0.0101 0.0000
vt 0.0717 0.1800 0.0000
vt 0.1145 0.0088 0.0000
vt 0.0354 0.0073 0.0000
vt 0.0535 0.0087 0.0000
vt 0.0480 0.1780 0.0000
vt 0.0280 0.1764 0.0000
vt 0.0999 0.4788 0.0000
vt 0.0784 0.4792 0.0000
vt 0.0842 0.3100 0.0000
vt 0.1080 0.3095 0.0000
vt 0.0602 0.4794 0.0000
vt 0.0641 0.3102 0.0000
vt 0.0388 0.4777 0.0000
vt 0.0206 0.4770 0.0000
vt 0.0369 0.9158 0.0000
vt 0.0209 0.9157 0.0000
vt 0.8507 0.0020 0.0000
vt 0.8723 0.0020 0.0000
vt 0.8723 0.3102 0.0000
vt 0.8507 0.3102 0.0000
vt 0.0584 0.9158 0.0000
vt 0.6441 0.7136 0.0000
vt 0.6441 0.7319 0.0000
vt 0.2420 0.2685 0.0000
vt 0.2420 0.2552 0.0000
vt 0.5549 0.2552 0.0000
vt 0.5549 0.2685 0.0000
vt 0.7949 0.2685 0.0000
vt 0.7949 0.2552 0.0000
vt 0.6260 0.7491 0.0000
vt 0.6260 0.7674 0.0000
vt 0.3178 0.7674 0.0000
vt 0.3178 0.7491 0.0000
vt 0.2437 0.9689 0.0000
vt 0.0584 0.9686 0.0000
vt 0.0584 0.9526 0.0000
vt 0.2438 0.9528 0.0000
vt 0.2437 0.9875 0.0000
vt 0.0583 0.9873 0.0000
vt 0.0584 0.9340 0.0000
vt 0.2438 0.9342 0.0000
vt 0.0208 0.9526 0.0000
vt 0.0209 0.9339 0.0000
vt 0.0369 0.9339 0.0000
vt 0.0369 0.9526 0.0000
vt 0.2653 0.9529 0.0000
vt 0.2653 0.9342 0.0000
vt 0.2813 0.9342 0.0000
vt 0.2813 0.9529 0.0000
vt 0.2652 0.9689 0.0000
vt 0.0369 0.9686 0.0000
vt 0.0368 0.9872 0.0000
vt 0.2652 0.9875 0.0000
vt 0.5784 0.1551 0.0000
vt 0.5771 0.1368 0.0000
vt 0.7651 0.1368 0.0000
vt 0.7638 0.1551 0.0000
vt 0.7545 0.0398 0.0000
vt 0.7540 0.0197 0.0000
vt 0.7777 0.0191 0.0000
vt 0.7783 0.0392 0.0000
vt 0.5708 0.3869 0.0000
vt 0.5715 0.3668 0.0000
vt 0.5953 0.3676 0.0000
vt 0.5946 0.3877 0.0000
vt 0.7764 0.0841 0.0000
vt 0.7764 0.0762 0.0000
vt 0.6623 0.7319 0.0000
vt 0.6623 0.7136 0.0000
vt 0.6441 0.5257 0.0000
vt 0.6623 0.5257 0.0000
vt 0.5860 0.0587 0.0000
vt 0.7554 0.0636 0.0000
vt 0.7540 0.0837 0.0000
vt 0.5847 0.0769 0.0000
vt 0.7514 0.1073 0.0000
vt 0.5824 0.0982 0.0000
vt 0.5847 0.0191 0.0000
vt 0.5852 0.0372 0.0000
vt 0.7633 0.3286 0.0000
vt 0.5938 0.3237 0.0000
vt 0.5961 0.3000 0.0000
vt 0.7653 0.3072 0.0000
vt 0.7640 0.3864 0.0000
vt 0.7646 0.3682 0.0000
vt 0.5941 0.3438 0.0000
vt 0.7635 0.3468 0.0000
vt 0.0020 0.2685 0.0000
vt 0.0020 0.2552 0.0000
vt 0.2420 0.0152 0.0000
vt 0.5549 0.0152 0.0000
vt 0.5549 0.5085 0.0000
vt 0.2420 0.5085 0.0000
vt 0.2420 0.0020 0.0000
vt 0.5549 0.0020 0.0000
# 150 texture coords

g Box001
usemtl wire_225088199
s 32
f 1/1/1 2/2/1 3/3/1 4/4/1 
s 64
f 5/5/2 6/6/2 7/7/2 8/8/2 
s 2
f 4/4/3 9/9/3 10/10/3 1/1/3 
s 4
f 2/2/4 11/11/4 12/12/4 3/3/4 
s 16
f 13/13/5 14/14/5 15/15/5 16/16/5 
s 64
f 17/17/2 18/18/2 19/19/2 20/20/2 
s 2
f 21/21/3 22/22/3 23/23/3 24/24/3 
s 4
f 7/7/6 25/25/4 26/26/4 8/8/6 
s 32
f 18/27/1 17/17/1 2/2/1 1/1/1 
f 14/14/1 13/28/1 4/4/1 3/3/1 
s 2
f 13/28/3 16/29/3 9/9/3 4/4/3 
f 19/30/3 18/27/3 1/1/3 10/10/3 
s 4
f 17/17/6 20/20/6 11/11/4 2/2/4 
f 15/15/6 14/14/6 3/3/4 12/12/4 
s off
f 10/31/1 9/32/1 27/33/1 28/34/1 
s 4
f 12/12/4 11/11/4 26/26/4 29/35/4 
s 16
f 16/16/5 15/15/5 30/36/5 24/37/5 
s 64
f 20/20/2 19/19/2 5/5/2 8/8/2 
s 2
f 31/38/3 32/39/3 33/40/3 34/41/3 
f 35/42/3 36/43/3 37/44/3 38/45/3 
s 4
f 11/11/4 20/20/6 8/8/6 26/26/4 
f 15/15/6 12/12/4 29/35/4 30/36/6 
s off
f 27/46/7 9/46/7 23/47/7 39/47/7 
f 10/48/8 28/49/8 40/50/8 41/51/8 
f 28/49/3 27/52/3 39/53/3 40/50/3 
f 16/54/9 24/55/9 33/40/9 32/56/9 
f 24/55/10 23/57/10 34/41/10 33/40/10 
f 23/58/11 9/59/11 31/60/11 34/61/11 
f 9/59/12 16/54/12 32/56/12 31/60/12 
f 19/62/12 10/63/12 36/64/12 35/65/12 
f 10/63/13 41/66/13 37/67/13 36/64/13 
f 41/66/10 5/68/10 38/45/10 37/67/10 
f 5/68/14 19/69/14 35/42/14 38/45/14 
s 16
f 30/36/5 42/70/5 21/71/5 24/37/5 
s 2
f 5/72/3 41/73/3 43/74/3 6/75/3 
s 4
f 29/35/4 44/76/4 42/70/6 30/36/6 
s off
f 40/50/8 45/77/8 43/78/8 41/51/8 
f 46/79/2 47/80/2 48/81/2 49/82/2 
f 50/83/1 49/82/1 48/81/1 51/84/1 
s 4
f 29/35/4 26/26/4 25/25/4 44/76/4 
s off
f 39/85/7 23/86/7 22/87/7 52/88/7 
s 32
f 53/89/15 54/90/15 55/91/15 56/92/15 
s 2
f 54/90/3 53/89/3 57/93/3 58/94/3 
s 4
f 56/92/4 55/91/4 59/95/4 60/96/4 
s 16
f 61/97/5 62/98/5 63/99/5 64/100/5 
s 64
f 65/101/2 66/102/2 67/103/2 68/104/2 
s 32
f 68/105/15 53/89/15 56/92/15 65/101/15 
f 64/100/15 55/91/15 54/90/15 61/106/15 
s 2
f 61/106/3 54/90/3 58/94/3 62/107/3 
f 67/108/3 57/93/3 53/89/3 68/105/3 
s 4
f 65/101/6 56/92/4 60/96/4 66/102/6 
f 63/99/6 59/95/4 55/91/4 64/100/6 
s off
f 57/109/15 69/110/15 70/111/15 58/112/15 
s 4
f 59/95/4 44/76/4 25/25/4 60/96/4 
s 16
f 62/98/5 21/71/5 42/70/5 63/99/5 
s 64
f 66/102/2 7/7/2 6/6/2 67/103/2 
s 2
f 71/113/3 72/114/3 73/115/3 74/116/3 
f 75/117/3 76/118/3 77/119/3 78/120/3 
s 4
f 60/96/4 25/25/4 7/7/6 66/102/6 
f 63/99/6 42/70/6 44/76/4 59/95/4 
s off
f 70/121/7 52/122/7 22/122/7 58/121/7 
f 57/123/8 43/78/8 45/77/8 69/124/8 
f 69/124/3 45/77/3 52/125/3 70/126/3 
f 62/127/9 74/128/9 73/129/9 21/130/9 
f 21/130/16 73/129/16 72/131/16 22/132/16 
f 22/133/11 72/114/11 71/113/11 58/134/11 
f 58/134/17 71/113/17 74/128/17 62/127/17 
f 67/135/17 75/136/17 78/137/17 57/138/17 
f 57/139/13 78/120/13 77/119/13 43/140/13 
f 43/140/16 77/119/16 76/141/16 6/142/16 
f 6/142/14 76/141/14 75/136/14 67/135/14 
f 79/143/15 80/144/15 47/80/15 46/79/15 
f 80/145/6 51/146/6 48/81/6 47/80/6 
f 49/82/3 50/147/3 79/148/3 46/79/3 
f 51/146/5 80/145/5 79/149/5 50/150/5 
f 39/53/3 52/125/3 45/77/3 40/50/3 
# 76 polygons

