# This file uses centimeters as units for non-parametric coordinates.

mtllib Flashlight_BatteryOBJ.mtl
g default
v 2.740005 0.890282 5.000000
v 2.330788 1.693417 5.000000
v 1.693416 2.330788 5.000000
v 0.890282 2.740006 5.000000
v -0.000000 2.881012 5.000000
v -0.890282 2.740006 5.000000
v -1.693416 2.330787 5.000000
v -2.330788 1.693416 5.000000
v -2.740006 0.890282 5.000000
v -2.881012 0.000000 5.000000
v -2.740006 -0.890281 5.000000
v -2.330788 -1.693416 5.000000
v -1.693416 -2.330787 5.000000
v -0.890282 -2.740005 5.000000
v -0.000000 -2.881011 5.000000
v 0.890281 -2.740005 5.000000
v 1.693416 -2.330787 5.000000
v 2.330787 -1.693416 5.000000
v 2.740005 -0.890281 5.000000
v 2.881011 0.000000 5.000000
v 2.881010 0.000000 -17.000002
v 2.740005 0.890282 -17.000002
v 2.740004 -0.890281 -17.000002
v 2.330786 -1.693416 -17.000002
v 1.693415 -2.330787 -17.000002
v 0.890280 -2.740005 -17.000002
v -0.000001 -2.881011 -17.000002
v -0.890283 -2.740005 -17.000002
v -1.693417 -2.330787 -17.000002
v -2.330789 -1.693416 -17.000002
v -2.740007 -0.890281 -17.000002
v -2.881013 0.000000 -17.000002
v -2.740007 0.890282 -17.000002
v -2.330789 1.693416 -17.000002
v -1.693417 2.330787 -17.000002
v -0.890283 2.740006 -17.000002
v -0.000001 2.881012 -17.000002
v 0.890281 2.740006 -17.000002
v 1.693416 2.330788 -17.000002
v 2.330787 1.693417 -17.000002
vt 0.648603 0.107966
vt 0.626409 0.064408
vt 0.591842 0.029841
vt 0.548284 0.007647
vt 0.500000 -0.000000
vt 0.451716 0.007647
vt 0.408159 0.029841
vt 0.373591 0.064409
vt 0.351397 0.107966
vt 0.343750 0.156250
vt 0.351397 0.204534
vt 0.373591 0.248091
vt 0.408159 0.282659
vt 0.451716 0.304853
vt 0.500000 0.312500
vt 0.548284 0.304853
vt 0.591841 0.282659
vt 0.626409 0.248091
vt 0.648603 0.204534
vt 0.656250 0.156250
vt 0.648603 0.107966
vt 0.656250 0.156250
vt 0.648603 0.204534
vt 0.626409 0.248091
vt 0.591841 0.282659
vt 0.548284 0.304853
vt 0.500000 0.312500
vt 0.451716 0.304853
vt 0.408159 0.282659
vt 0.373591 0.248091
vt 0.351397 0.204534
vt 0.343750 0.156250
vt 0.351397 0.107966
vt 0.373591 0.064409
vt 0.408159 0.029841
vt 0.451716 0.007647
vt 0.500000 -0.000000
vt 0.548284 0.007647
vt 0.591842 0.029841
vt 0.626409 0.064408
vt 0.648603 0.107966
vt 0.656250 0.156250
vt 0.648603 0.204534
vt 0.626409 0.248091
vt 0.591841 0.282659
vt 0.548284 0.304853
vt 0.500000 0.312500
vt 0.451716 0.304853
vt 0.408159 0.282659
vt 0.373591 0.248091
vt 0.351397 0.204534
vt 0.343750 0.156250
vt 0.351397 0.107966
vt 0.373591 0.064409
vt 0.408159 0.029841
vt 0.451716 0.007647
vt 0.500000 -0.000000
vt 0.548284 0.007647
vt 0.591842 0.029841
vt 0.626409 0.064408
vn 0.000000 0.000000 -1.000000
vn 0.000000 0.000000 -1.000000
vn 0.000000 0.000000 -1.000000
vn 0.000000 0.000000 -1.000000
vn 0.000000 0.000000 -1.000000
vn 0.000000 0.000000 -1.000000
vn 0.000000 0.000000 -1.000000
vn 0.000000 0.000000 -1.000000
vn 0.000000 0.000000 -1.000000
vn 0.000000 0.000000 -1.000000
vn 0.000000 0.000000 -1.000000
vn 0.000000 0.000000 -1.000000
vn 0.000000 0.000000 -1.000000
vn 0.000000 0.000000 -1.000000
vn 0.000000 0.000000 -1.000000
vn 0.000000 0.000000 -1.000000
vn 0.000000 0.000000 -1.000000
vn 0.000000 0.000000 -1.000000
vn 0.000000 0.000000 -1.000000
vn 0.000000 0.000000 -1.000000
vn -0.000000 0.000000 1.000000
vn -0.000000 0.000000 1.000000
vn -0.000000 0.000000 1.000000
vn -0.000000 0.000000 1.000000
vn -0.000000 0.000000 1.000000
vn -0.000000 0.000000 1.000000
vn -0.000000 0.000000 1.000000
vn -0.000000 0.000000 1.000000
vn -0.000000 0.000000 1.000000
vn -0.000000 0.000000 1.000000
vn -0.000000 0.000000 1.000000
vn -0.000000 0.000000 1.000000
vn -0.000000 0.000000 1.000000
vn -0.000000 0.000000 1.000000
vn -0.000000 0.000000 1.000000
vn -0.000000 0.000000 1.000000
vn -0.000000 0.000000 1.000000
vn -0.000000 0.000000 1.000000
vn -0.000000 0.000000 1.000000
vn -0.000000 0.000000 1.000000
vn 0.951057 0.309016 -0.000000
vn 1.000000 -0.000001 -0.000000
vn 1.000000 -0.000001 -0.000000
vn 0.951057 0.309016 -0.000000
vn 1.000000 -0.000001 -0.000000
vn 0.951057 -0.309017 -0.000000
vn 0.951057 -0.309017 -0.000000
vn 1.000000 -0.000001 -0.000000
vn 0.951057 -0.309017 -0.000000
vn 0.809017 -0.587785 -0.000000
vn 0.809017 -0.587785 -0.000000
vn 0.951057 -0.309017 -0.000000
vn 0.809017 -0.587785 -0.000000
vn 0.587785 -0.809017 -0.000000
vn 0.587785 -0.809017 -0.000000
vn 0.809017 -0.587785 -0.000000
vn 0.587785 -0.809017 -0.000000
vn 0.309017 -0.951057 -0.000000
vn 0.309017 -0.951057 -0.000000
vn 0.587785 -0.809017 -0.000000
vn 0.309017 -0.951057 -0.000000
vn 0.000000 -1.000000 -0.000000
vn 0.000000 -1.000000 -0.000000
vn 0.309017 -0.951057 -0.000000
vn 0.000000 -1.000000 -0.000000
vn -0.309017 -0.951057 0.000000
vn -0.309017 -0.951057 0.000000
vn 0.000000 -1.000000 -0.000000
vn -0.309017 -0.951057 0.000000
vn -0.587785 -0.809017 0.000000
vn -0.587785 -0.809017 0.000000
vn -0.309017 -0.951057 0.000000
vn -0.587785 -0.809017 0.000000
vn -0.809017 -0.587786 0.000000
vn -0.809017 -0.587785 0.000000
vn -0.587785 -0.809017 0.000000
vn -0.809017 -0.587786 0.000000
vn -0.951057 -0.309017 0.000000
vn -0.951057 -0.309017 0.000000
vn -0.809017 -0.587785 0.000000
vn -0.951057 -0.309017 0.000000
vn -1.000000 0.000000 0.000000
vn -1.000000 0.000000 0.000000
vn -0.951057 -0.309017 0.000000
vn -1.000000 0.000000 0.000000
vn -0.951057 0.309017 0.000000
vn -0.951057 0.309017 0.000000
vn -1.000000 0.000000 0.000000
vn -0.951057 0.309017 0.000000
vn -0.809017 0.587785 0.000000
vn -0.809017 0.587785 0.000000
vn -0.951057 0.309017 0.000000
vn -0.809017 0.587785 0.000000
vn -0.587786 0.809017 0.000000
vn -0.587786 0.809017 0.000000
vn -0.809017 0.587785 0.000000
vn -0.587786 0.809017 0.000000
vn -0.309017 0.951057 0.000000
vn -0.309017 0.951057 0.000000
vn -0.587786 0.809017 0.000000
vn -0.309017 0.951057 0.000000
vn 0.000000 1.000000 0.000000
vn -0.000000 1.000000 0.000000
vn -0.309017 0.951057 0.000000
vn 0.000000 1.000000 0.000000
vn 0.309016 0.951057 -0.000000
vn 0.309016 0.951057 -0.000000
vn -0.000000 1.000000 0.000000
vn 0.309016 0.951057 -0.000000
vn 0.587786 0.809017 -0.000000
vn 0.587785 0.809017 -0.000000
vn 0.309016 0.951057 -0.000000
vn 0.587786 0.809017 -0.000000
vn 0.809017 0.587785 -0.000000
vn 0.809017 0.587785 -0.000000
vn 0.587785 0.809017 -0.000000
vn 0.809017 0.587785 -0.000000
vn 0.951057 0.309016 -0.000000
vn 0.951057 0.309016 -0.000000
vn 0.809017 0.587785 -0.000000
s off
g Flashlight_Battery
usemtl Flashlight_BatterylidSG
f 22/41/1 21/42/2 23/43/3 24/44/4 25/45/5 26/46/6 27/47/7 28/48/8 29/49/9 30/50/10 31/51/11 32/52/12 33/53/13 34/54/14 35/55/15 36/56/16 37/57/17 38/58/18 39/59/19 40/60/20
f 1/21/21 2/40/22 3/39/23 4/38/24 5/37/25 6/36/26 7/35/27 8/34/28 9/33/29 10/32/30 11/31/31 12/30/32 13/29/33 14/28/34 15/27/35 16/26/36 17/25/37 18/24/38 19/23/39 20/22/40
f 1/1/41 20/20/42 21/42/43 22/41/44
f 20/20/45 19/19/46 23/43/47 21/42/48
f 19/19/49 18/18/50 24/44/51 23/43/52
f 18/18/53 17/17/54 25/45/55 24/44/56
f 17/17/57 16/16/58 26/46/59 25/45/60
f 16/16/61 15/15/62 27/47/63 26/46/64
f 15/15/65 14/14/66 28/48/67 27/47/68
f 14/14/69 13/13/70 29/49/71 28/48/72
f 13/13/73 12/12/74 30/50/75 29/49/76
f 12/12/77 11/11/78 31/51/79 30/50/80
f 11/11/81 10/10/82 32/52/83 31/51/84
f 10/10/85 9/9/86 33/53/87 32/52/88
f 9/9/89 8/8/90 34/54/91 33/53/92
f 8/8/93 7/7/94 35/55/95 34/54/96
f 7/7/97 6/6/98 36/56/99 35/55/100
f 6/6/101 5/5/102 37/57/103 36/56/104
f 5/5/105 4/4/106 38/58/107 37/57/108
f 4/4/109 3/3/110 39/59/111 38/58/112
f 3/3/113 2/2/114 40/60/115 39/59/116
f 2/2/117 1/1/118 22/41/119 40/60/120
