# This file uses centimeters as units for non-parametric coordinates.

mtllib Flashlight_RotateswitchOBJ.mtl
g default
v 3.574108 1.161298 7.718231
v 3.758039 -0.000000 7.718231
v 3.574108 -1.161298 7.718231
v 3.040316 -2.208919 7.718231
v 2.208919 -3.040316 7.718231
v 1.161298 -3.574108 7.718231
v -0.000000 -3.758039 7.718231
v -1.161298 -3.574108 7.718231
v -2.208919 -3.040316 7.718231
v -3.040316 -2.208919 7.718231
v -3.574108 -1.161298 7.718231
v -3.758039 -0.000000 7.718231
v -3.574108 1.161298 7.718231
v -3.040319 2.208919 7.718231
v -2.208919 3.040319 7.718231
v 0.000000 3.758039 7.718231
v 2.208920 3.040319 7.718231
v 3.040319 2.208920 7.718231
v 3.974711 1.291462 7.718231
v 4.179257 -0.000000 7.718231
v 3.974711 1.291462 11.466653
v 4.179257 -0.000000 11.466653
v 3.974711 -1.291462 7.718231
v 3.974711 -1.291462 11.466653
v 3.381090 -2.456505 7.718231
v 3.381090 -2.456505 11.466653
v 2.456505 -3.381090 7.718231
v 2.456505 -3.381090 11.466653
v 1.291462 -3.974711 7.718231
v 1.291462 -3.974711 11.466653
v -0.000000 -4.179257 7.718231
v -0.000000 -4.179257 11.466653
v -1.291462 -3.974711 7.718231
v -1.291462 -3.974711 11.466653
v -2.456505 -3.381090 7.718231
v -2.456505 -3.381090 11.466653
v -3.381090 -2.456505 7.718231
v -3.381090 -2.456505 11.466653
v -3.974711 -1.291462 7.718231
v -3.974711 -1.291462 11.466653
v -4.179257 -0.000000 7.718231
v -4.179257 -0.000000 11.466653
v -3.974711 1.291462 7.718231
v -3.974711 1.291462 11.466653
v -3.381093 2.456506 7.718231
v -3.381093 2.456506 11.466653
v -2.456507 3.381093 7.718231
v -2.456507 3.381093 11.466653
v -1.291462 3.974711 7.718231
v -1.291462 3.974711 11.466653
v 0.000000 4.179257 11.466653
v 1.291462 3.974711 7.718231
v 1.291462 3.974711 11.466653
v 2.456507 3.381094 7.718231
v 2.456507 3.381094 11.466653
v 3.381094 2.456507 7.718231
v 3.381094 2.456507 11.466653
v 4.372283 1.420640 10.460131
v 4.597291 -0.000000 10.460131
v 4.372283 -1.420642 10.460131
v 3.719284 -2.702219 10.460131
v 2.702219 -3.719284 10.460131
v 1.420642 -4.372283 10.460131
v -0.000000 -4.597291 10.460131
v -1.420642 -4.372283 10.460131
v -2.702219 -3.719285 10.460131
v -3.719285 -2.702219 10.460131
v -4.372283 -1.420642 10.460131
v -4.597291 -0.000000 10.460131
v -4.372283 1.420641 10.460131
v -3.719288 2.702219 10.460131
v -2.702219 3.719288 10.460131
v 0.000000 4.597291 10.460131
v 2.702219 3.719288 10.460131
v 3.719289 2.702219 10.460131
v -1.291462 3.974711 4.999996
v 0.000000 4.179257 4.999996
v 1.291462 3.974711 4.999996
v -1.043320 3.592794 7.718231
v -1.282693 3.512255 7.718231
v -1.198210 3.687711 7.718231
v -1.033644 3.594327 5.129242
v -1.199724 3.692370 4.999996
v 0.000000 3.758039 5.128449
v 0.000000 3.888094 4.999996
v 1.198210 3.687711 7.718231
v 1.282693 3.512255 7.718231
v 1.043320 3.592794 7.718231
v 1.043320 3.592794 5.119447
v 1.199724 3.692370 4.999996
v -1.412075 4.345919 10.278311
v -1.542036 4.310429 10.460131
v -1.420641 4.372283 10.596373
v -1.238985 4.401055 10.460131
v -1.379063 4.244317 5.000001
v -1.292987 4.392502 5.129248
v 0.000000 4.467237 5.000001
v 0.000000 4.597291 5.128455
v 1.238984 4.401055 10.460131
v 1.420640 4.372283 10.596373
v 1.542036 4.310430 10.460131
v 1.412075 4.345920 10.278311
v 1.292987 4.392502 5.129248
v 1.379063 4.244318 5.000001
v 4.244318 1.379062 11.466654
v 4.372283 1.420640 11.333759
v 4.597291 -0.000000 11.333759
v 4.462740 -0.000000 11.466654
v 4.372283 -1.420642 11.333759
v 4.244318 -1.379063 11.466654
v 3.719284 -2.702219 11.333759
v 3.610430 -2.623132 11.466654
v 2.702219 -3.719284 11.333759
v 2.623132 -3.610430 11.466654
v 1.420642 -4.372283 11.333759
v 1.379063 -4.244318 11.466654
v -0.000000 -4.597291 11.333759
v -0.000000 -4.462740 11.466654
v -1.420642 -4.372283 11.333759
v -1.379063 -4.244318 11.466654
v -2.702219 -3.719285 11.333759
v -2.623132 -3.610431 11.466654
v -3.719285 -2.702219 11.333759
v -3.610431 -2.623132 11.466654
v -4.372283 -1.420642 11.333759
v -4.244318 -1.379063 11.466654
v -4.597291 0.000000 11.333759
v -4.462740 -0.000000 11.466654
v -4.372283 1.420641 11.333759
v -4.244318 1.379063 11.466654
v -3.719288 2.702219 11.333759
v -3.610434 2.623132 11.466654
v -2.702219 3.719288 11.333759
v -2.623132 3.610434 11.466654
v -1.379063 4.244318 11.466654
v -1.420641 4.372283 11.333759
v 0.000000 4.597291 11.333759
v -0.000000 4.462740 11.466654
v 1.379062 4.244318 11.466654
v 1.420640 4.372283 11.333759
v 2.702219 3.719288 11.333759
v 2.623132 3.610435 11.466654
v 3.719289 2.702219 11.333759
v 3.610435 2.623132 11.466654
vt 0.751125 0.704391
vt 0.751125 0.726353
vt 0.704497 0.728550
vt 0.704497 0.704391
vt 0.751125 0.746165
vt 0.704497 0.750344
vt 0.689640 0.728550
vt 0.689640 0.704391
vt 0.751125 0.682429
vt 0.704497 0.680232
vt 0.751125 0.761889
vt 0.704497 0.767640
vt 0.689640 0.750344
vt 0.687380 0.727843
vt 0.687380 0.704391
vt 0.689640 0.680232
vt 0.751125 0.662617
vt 0.704497 0.658438
vt 0.689640 0.767640
vt 0.687380 0.748999
vt 0.687380 0.680939
vt 0.689640 0.658438
vt 0.751125 0.646893
vt 0.704497 0.641142
vt 0.687380 0.765789
vt 0.687380 0.659783
vt 0.689640 0.641142
vt 0.687380 0.642993
vt 0.617501 0.683935
vt 0.617501 0.664122
vt 0.664129 0.659944
vt 0.664129 0.681738
vt 0.617501 0.648399
vt 0.664129 0.642648
vt 0.678985 0.659944
vt 0.678985 0.681738
vt 0.617501 0.705897
vt 0.664129 0.705897
vt 0.678985 0.642648
vt 0.681245 0.661289
vt 0.681245 0.682445
vt 0.678985 0.705897
vt 0.617501 0.727859
vt 0.664129 0.730056
vt 0.681245 0.644499
vt 0.681245 0.705897
vt 0.678985 0.730056
vt 0.617501 0.747671
vt 0.664129 0.751850
vt 0.681245 0.729348
vt 0.678985 0.751850
vt 0.617501 0.763394
vt 0.664129 0.769146
vt 0.681245 0.750505
vt 0.678985 0.769146
vt 0.681245 0.767294
vt 0.980305 0.859198
vt 0.980226 0.812973
vt 0.985107 0.812973
vt 0.985107 0.859198
vt 0.978612 0.812973
vt 0.978638 0.857000
vt 0.991419 0.769437
vt 0.989692 0.859198
vt 0.992357 0.766345
vt 0.992212 0.857000
vt 0.990758 0.909415
vt 0.985877 0.909415
vt 0.985956 0.863190
vt 0.990758 0.863190
vt 0.984263 0.909415
vt 0.984263 0.865221
vt 0.995343 0.863190
vt 0.997070 0.952951
vt 0.998008 0.956043
vt 0.997863 0.865388
vt 0.914383 0.899101
vt 0.914383 0.879289
vt 0.961011 0.875110
vt 0.961011 0.896905
vt 0.975868 0.875110
vt 0.975868 0.896905
vt 0.914383 0.921063
vt 0.961011 0.921063
vt 0.978128 0.876455
vt 0.978128 0.897612
vt 0.975868 0.921063
vt 0.914383 0.943026
vt 0.961011 0.945222
vt 0.978128 0.921063
vt 0.975868 0.945222
vt 0.914383 0.962838
vt 0.961011 0.967016
vt 0.978128 0.944515
vt 0.975868 0.967016
vt 0.978128 0.965671
vt 0.310725 0.859863
vt 0.290912 0.859863
vt 0.286734 0.813235
vt 0.306464 0.813235
vt 0.308674 0.816327
vt 0.308528 0.810918
vt 0.286734 0.798378
vt 0.308528 0.798378
vt 0.288079 0.796118
vt 0.309235 0.796118
vt 0.332687 0.813235
vt 0.311617 0.813235
vt 0.332687 0.798378
vt 0.332687 0.796118
vt 0.310699 0.903890
vt 0.332687 0.903903
vt 0.356846 0.810918
vt 0.353757 0.813235
vt 0.356846 0.798378
vt 0.356139 0.796118
vt 0.354675 0.903890
vt 0.309235 0.906088
vt 0.332687 0.906088
vt 0.378640 0.813235
vt 0.358910 0.813235
vt 0.378640 0.798378
vt 0.377295 0.796118
vt 0.356139 0.906088
vt 0.374461 0.859863
vt 0.354649 0.859863
vt 0.356700 0.816327
vt 0.244814 0.964145
vt 0.227072 0.964145
vt 0.227236 0.920118
vt 0.244814 0.920104
vt 0.224412 0.917920
vt 0.244814 0.917920
vt 0.262556 0.919951
vt 0.262556 0.964145
vt 0.265216 0.917920
vt 0.248016 0.973546
vt 0.245806 0.970454
vt 0.247870 0.968137
vt 0.250960 0.970454
vt 0.257500 0.970454
vt 0.260589 0.968137
vt 0.262653 0.970454
vt 0.260443 0.973546
vt 0.271403 0.974224
vt 0.269193 0.971132
vt 0.271258 0.968815
vt 0.274347 0.971132
vt 0.280887 0.971132
vt 0.283976 0.968815
vt 0.286041 0.971132
vt 0.283831 0.974224
vt 0.709036 0.502172
vt 0.689287 0.505300
vt 0.687074 0.498487
vt 0.709036 0.495009
vt 0.671472 0.514377
vt 0.667261 0.508582
vt 0.728784 0.505300
vt 0.730998 0.498487
vt 0.657333 0.528516
vt 0.651538 0.524305
vt 0.746600 0.514377
vt 0.750810 0.508582
vt 0.649308 0.544267
vt 0.646324 0.545703
vt 0.641443 0.544118
vt 0.760738 0.528516
vt 0.766533 0.524305
vt 0.769816 0.546331
vt 0.776628 0.544118
vt 0.772944 0.566080
vt 0.780107 0.566080
vt 0.769816 0.585828
vt 0.776628 0.588042
vt 0.760738 0.603644
vt 0.766533 0.607854
vt 0.746600 0.617782
vt 0.750810 0.623577
vt 0.728784 0.626860
vt 0.730998 0.633672
vt 0.709036 0.629988
vt 0.709036 0.637151
vt 0.689287 0.626860
vt 0.687074 0.633672
vt 0.671472 0.617782
vt 0.667261 0.623577
vt 0.657333 0.603644
vt 0.651538 0.607854
vt 0.646324 0.586456
vt 0.649308 0.587893
vt 0.641443 0.588042
vt 0.281200 0.941372
vt 0.284529 0.961774
vt 0.279727 0.963334
vt 0.276249 0.941372
vt 0.275142 0.964824
vt 0.271351 0.941372
vt 0.284529 0.920970
vt 0.279727 0.919410
vt 0.275142 0.917920
vt 0.313684 0.961257
vt 0.315054 0.965328
vt 0.312070 0.963891
vt 0.321815 0.980454
vt 0.324799 0.979017
vt 0.323429 0.983088
vt 0.333174 0.979017
vt 0.334544 0.983088
vt 0.331560 0.981651
vt 0.341305 0.980454
vt 0.344288 0.979017
vt 0.342919 0.983088
vt 0.475044 0.608912
vt 0.478523 0.586949
vt 0.483343 0.586949
vt 0.479629 0.610401
vt 0.475044 0.564987
vt 0.479629 0.563498
vt 0.464949 0.628724
vt 0.468849 0.631558
vt 0.464949 0.545175
vt 0.468849 0.542341
vt 0.449226 0.644447
vt 0.452060 0.648347
vt 0.449226 0.529452
vt 0.452060 0.525552
vt 0.429414 0.654542
vt 0.430904 0.659127
vt 0.429414 0.519357
vt 0.430904 0.514772
vt 0.407452 0.658020
vt 0.407452 0.662841
vt 0.407452 0.515878
vt 0.407452 0.511058
vt 0.385490 0.654542
vt 0.384000 0.659127
vt 0.385490 0.519357
vt 0.384000 0.514772
vt 0.365677 0.644447
vt 0.362844 0.648347
vt 0.365677 0.529452
vt 0.362844 0.525552
vt 0.349954 0.628724
vt 0.346054 0.631558
vt 0.349954 0.545175
vt 0.346054 0.542341
vt 0.339859 0.608912
vt 0.335274 0.610401
vt 0.339859 0.564987
vt 0.335274 0.563498
vt 0.336381 0.586949
vt 0.331560 0.586949
vn 0.000002 0.000000 -1.000000
vn 0.000002 0.000000 -1.000000
vn 0.916861 0.297905 -0.265740
vn 0.964045 0.000000 -0.265740
vn 0.000001 0.000000 -1.000000
vn 0.000001 0.000000 -1.000000
vn 0.916861 -0.297907 -0.265740
vn 0.000000 0.000000 -1.000000
vn 0.000000 0.000000 -1.000000
vn 0.779928 -0.566652 -0.265740
vn -0.000000 0.000000 -1.000000
vn -0.000000 0.000000 -1.000000
vn 0.566652 -0.779928 -0.265740
vn 0.000000 0.000000 -1.000000
vn 0.000000 0.000000 -1.000000
vn 0.297907 -0.916861 -0.265740
vn -0.000000 0.000000 -1.000000
vn -0.000000 0.000000 -1.000000
vn 0.000000 -0.964045 -0.265740
vn 0.000000 0.000000 -1.000000
vn 0.000000 0.000000 -1.000000
vn -0.297907 -0.916861 -0.265740
vn -0.000000 0.000000 -1.000000
vn -0.000000 0.000000 -1.000000
vn -0.566652 -0.779928 -0.265740
vn -0.000000 0.000000 -1.000000
vn -0.000000 0.000000 -1.000000
vn -0.779928 -0.566652 -0.265740
vn -0.000001 0.000000 -1.000000
vn -0.000001 0.000000 -1.000000
vn -0.916861 -0.297907 -0.265740
vn -0.000002 0.000000 -1.000000
vn -0.000002 0.000000 -1.000000
vn -0.964045 0.000000 -0.265740
vn -0.000001 0.000000 -1.000000
vn -0.000001 0.000000 -1.000000
vn -0.916861 0.297905 -0.265740
vn -0.000001 0.000000 -1.000000
vn -0.000001 0.000000 -1.000000
vn -0.779929 0.566651 -0.265740
vn -0.000000 0.000000 -1.000000
vn -0.000000 0.000000 -1.000000
vn -0.566964 0.779932 -0.265062
vn 0.000000 0.000000 -1.000000
vn 0.000000 0.000000 -1.000000
vn 0.000000 0.000000 -1.000000
vn 0.438211 0.860039 -0.261350
vn 0.566964 0.779932 -0.265062
vn 0.000000 0.000000 -1.000000
vn 0.000000 0.000000 -1.000000
vn 0.779929 0.566651 -0.265740
vn -0.000001 0.000000 -1.000000
vn -0.000001 0.000000 -1.000000
vn 0.944950 0.307032 -0.113140
vn 0.993579 0.000000 -0.113141
vn 0.944950 -0.307033 -0.113140
vn 0.803822 -0.584012 -0.113140
vn 0.584012 -0.803822 -0.113140
vn 0.307033 -0.944950 -0.113140
vn -0.000000 -0.993579 -0.113141
vn -0.307034 -0.944950 -0.113140
vn -0.584012 -0.803822 -0.113140
vn -0.803822 -0.584012 -0.113140
vn -0.944950 -0.307033 -0.113140
vn -0.993579 0.000000 -0.113141
vn -0.944950 0.307032 -0.113140
vn -0.803822 0.584011 -0.113140
vn -0.584283 0.803617 -0.113198
vn -0.438211 0.860040 -0.261349
vn -0.451221 0.885572 -0.110279
vn -0.448928 0.881074 -0.148905
vn 0.448928 0.881074 -0.148905
vn 0.451220 0.885573 -0.110279
vn 0.584283 0.803617 -0.113198
vn 0.803823 0.584011 -0.113140
vn 0.000000 0.000000 -1.000000
vn 0.000000 0.000000 -1.000000
vn 0.000000 0.000000 -1.000000
vn -0.514707 -0.857364 -0.001792
vn -0.514707 -0.857365 -0.001792
vn -0.514707 -0.857364 -0.001792
vn -0.514707 -0.857364 -0.001792
vn 0.113463 -0.706545 -0.698513
vn 0.113463 -0.706546 -0.698513
vn 0.000556 -0.703882 -0.710317
vn 0.000780 -0.703896 -0.710302
vn -0.114203 -0.691875 -0.712929
vn -0.114203 -0.691875 -0.712929
vn 0.529706 -0.848181 -0.000592
vn 0.529706 -0.848181 -0.000592
vn 0.529706 -0.848181 -0.000592
vn 0.529706 -0.848181 -0.000592
vn -0.612011 0.790818 -0.007000
vn -0.178381 0.983962 -0.000324
vn -0.229869 0.973221 -0.001089
vn -0.612011 0.790818 -0.007000
vn -0.111234 0.693598 -0.711723
vn -0.111234 0.693598 -0.711723
vn -0.000000 0.697930 -0.716166
vn -0.000000 0.697930 -0.716166
vn 0.111234 0.693599 -0.711721
vn 0.111234 0.693599 -0.711721
vn 0.178380 0.983962 -0.000324
vn 0.612008 0.790821 -0.007000
vn 0.612008 0.790821 -0.007000
vn 0.229868 0.973221 -0.001089
vn 0.000000 0.000000 -1.000000
vn 0.000000 0.000000 -1.000000
vn -0.000001 0.000009 -1.000000
vn 0.000000 0.000009 -1.000000
vn 0.000000 0.000000 -1.000000
vn 0.000002 0.000009 -1.000000
vn -0.000003 0.000017 -1.000000
vn 0.000000 0.000017 -1.000000
vn 0.000003 0.000017 -1.000000
vn -0.000518 -1.000000 -0.000000
vn 0.156433 -0.987689 -0.000000
vn 0.156433 -0.987689 -0.000000
vn -0.000984 -1.000000 -0.000000
vn -0.951056 -0.309017 0.000000
vn -0.951056 -0.309017 0.000000
vn -0.951056 -0.309018 0.000000
vn -0.951056 -0.309018 0.000000
vn -0.156433 -0.987689 0.000000
vn -0.156433 -0.987689 0.000000
vn 0.951056 -0.309017 0.000000
vn 0.951056 -0.309017 0.000000
vn 0.951056 -0.309017 0.000000
vn 0.951056 -0.309017 0.000000
vn -0.951056 -0.309018 0.000000
vn -0.951056 -0.309018 0.000000
vn -0.000000 1.000000 0.000000
vn -0.000000 1.000000 0.000000
vn 0.951057 -0.309017 0.000000
vn 0.951057 -0.309017 0.000000
vn -0.000003 0.000000 -1.000000
vn -0.000003 0.000000 -1.000000
vn -0.000003 0.000000 -1.000000
vn 0.000003 0.000000 -1.000000
vn 0.000003 0.000000 -1.000000
vn 0.000003 0.000000 -1.000000
vn -0.285427 0.954462 -0.086802
vn -0.285427 0.954462 -0.086802
vn -0.285427 0.954462 -0.086802
vn -0.285427 0.954462 -0.086802
vn 0.285427 0.954462 -0.086799
vn 0.285427 0.954462 -0.086799
vn 0.285427 0.954462 -0.086799
vn 0.285427 0.954462 -0.086799
vn -0.000003 0.000000 -1.000000
vn -0.000003 0.000000 -1.000000
vn -0.000003 0.000000 -1.000000
vn 0.000003 0.000000 -1.000000
vn 0.000003 0.000000 -1.000000
vn 0.000003 0.000000 -1.000000
vn -0.285427 0.954462 -0.086802
vn -0.285427 0.954462 -0.086802
vn -0.285427 0.954462 -0.086802
vn -0.285427 0.954462 -0.086802
vn 0.285427 0.954462 -0.086799
vn 0.285427 0.954462 -0.086799
vn 0.285427 0.954462 -0.086799
vn 0.285427 0.954462 -0.086799
vn 0.668321 0.217150 0.711472
vn 0.668321 0.217150 0.711472
vn 0.568509 0.413045 0.711471
vn 0.568509 0.413046 0.711471
vn 0.702714 -0.000000 0.711472
vn 0.702714 -0.000000 0.711472
vn 0.668320 -0.217151 0.711473
vn 0.668320 -0.217151 0.711473
vn 0.568508 -0.413046 0.711471
vn 0.568509 -0.413045 0.711471
vn 0.413048 -0.568507 0.711471
vn 0.413048 -0.568507 0.711471
vn 0.217152 -0.668320 0.711473
vn 0.217152 -0.668320 0.711473
vn -0.000000 -0.702713 0.711473
vn -0.000000 -0.702713 0.711473
vn -0.217151 -0.668320 0.711473
vn -0.217151 -0.668320 0.711473
vn -0.413046 -0.568508 0.711471
vn -0.413046 -0.568508 0.711471
vn -0.568508 -0.413047 0.711472
vn -0.568508 -0.413046 0.711471
vn -0.668321 -0.217151 0.711472
vn -0.668321 -0.217151 0.711472
vn -0.702714 0.000000 0.711472
vn -0.702714 0.000000 0.711472
vn -0.668321 0.217150 0.711472
vn -0.668321 0.217150 0.711472
vn -0.568508 0.413045 0.711472
vn -0.568508 0.413045 0.711472
vn -0.413046 0.568508 0.711472
vn -0.413046 0.568508 0.711472
vn -0.217151 0.668320 0.711473
vn -0.217151 0.668320 0.711473
vn 0.000000 0.702713 0.711473
vn 0.000000 0.702713 0.711473
vn 0.217151 0.668320 0.711473
vn 0.217150 0.668321 0.711473
vn 0.413046 0.568508 0.711471
vn 0.413046 0.568508 0.711471
vn 0.951057 0.309017 0.000000
vn 1.000000 0.000000 0.000000
vn 0.951056 -0.309018 0.000000
vn 0.809017 -0.587786 0.000000
vn 0.587786 -0.809017 0.000000
vn 0.309018 -0.951056 0.000000
vn -0.000000 -1.000000 0.000000
vn -0.309018 -0.951056 0.000000
vn -0.587786 -0.809016 0.000000
vn -0.809017 -0.587786 0.000000
vn -0.951056 -0.309018 0.000000
vn -1.000000 0.000000 0.000000
vn -0.951057 0.309017 0.000000
vn -0.809017 0.587785 0.000000
vn -0.588260 0.808672 -0.000000
vn -0.314087 0.949394 -0.000000
vn -0.309213 0.950993 -0.000000
vn 0.000000 1.000000 -0.000000
vn 0.314087 0.949394 0.000000
vn 0.309213 0.950993 0.000000
vn 0.588260 0.808672 0.000000
vn 0.809017 0.587785 0.000000
vn -0.000003 -0.000001 1.000000
vn -0.000004 -0.000000 1.000000
vn -0.000004 0.000000 1.000000
vn -0.000003 -0.000001 1.000000
vn -0.000004 0.000001 1.000000
vn -0.000004 0.000001 1.000000
vn -0.000005 0.000002 1.000000
vn -0.000005 0.000002 1.000000
vn -0.000003 0.000003 1.000000
vn -0.000003 0.000003 1.000000
vn -0.000001 0.000003 1.000000
vn -0.000001 0.000003 1.000000
vn 0.000000 0.000003 1.000000
vn -0.000000 0.000003 1.000000
vn 0.000002 0.000003 1.000000
vn 0.000002 0.000003 1.000000
vn 0.000002 0.000003 1.000000
vn 0.000002 0.000003 1.000000
vn 0.000001 0.000002 1.000000
vn 0.000001 0.000002 1.000000
vn 0.000001 0.000001 1.000000
vn 0.000001 0.000001 1.000000
vn 0.000003 -0.000000 1.000000
vn 0.000003 0.000000 1.000000
vn 0.000003 -0.000001 1.000000
vn 0.000003 -0.000001 1.000000
vn 0.000003 -0.000002 1.000000
vn 0.000003 -0.000002 1.000000
vn 0.000003 -0.000003 1.000000
vn 0.000003 -0.000003 1.000000
vn 0.000001 -0.000003 1.000000
vn 0.000001 -0.000003 1.000000
vn 0.000000 -0.000003 1.000000
vn 0.000000 -0.000003 1.000000
vn -0.000001 -0.000003 1.000000
vn -0.000001 -0.000003 1.000000
vn -0.000002 -0.000003 1.000000
vn -0.000002 -0.000003 1.000000
vn -0.000002 -0.000002 1.000000
vn -0.000002 -0.000002 1.000000
s 1
g Flashlight_Rotateswitch
usemtl Flashlight_BatterySG
f 2/153/1 1/154/2 19/155/3 20/156/4
f 3/159/5 2/153/6 20/156/4 23/160/7
f 4/163/8 3/159/9 23/160/7 25/164/10
f 5/168/11 4/163/12 25/164/10 27/169/13
f 6/170/14 5/168/15 27/169/13 29/171/16
f 7/172/17 6/170/18 29/171/16 31/173/19
f 8/174/20 7/172/21 31/173/19 33/175/22
f 9/176/23 8/174/24 33/175/22 35/177/25
f 10/178/26 9/176/27 35/177/25 37/179/28
f 11/180/29 10/178/30 37/179/28 39/181/31
f 12/182/32 11/180/33 39/181/31 41/183/34
f 13/184/35 12/182/36 41/183/34 43/185/37
f 14/186/38 13/184/39 43/185/37 45/187/40
f 15/188/41 14/186/42 45/187/40 47/189/43
f 17/161/44 87/165/45 86/166/46 52/167/47 54/162/48
f 18/157/49 17/161/50 54/162/48 56/158/51
f 1/154/52 18/157/53 56/158/51 19/155/3
f 20/1/4 19/2/3 58/3/54 59/4/55
f 23/9/7 20/1/4 59/4/55 60/10/56
f 25/17/10 23/9/7 60/10/56 61/18/57
f 27/23/13 25/17/10 61/18/57 62/24/58
f 29/77/16 27/78/13 62/79/58 63/80/59
f 31/83/19 29/77/16 63/80/59 64/84/60
f 33/88/22 31/83/19 64/84/60 65/89/61
f 35/92/25 33/88/22 65/89/61 66/93/62
f 37/30/28 35/33/25 66/34/62 67/31/63
f 39/29/31 37/30/28 67/31/63 68/32/64
f 41/37/34 39/29/31 68/32/64 69/38/65
f 43/43/37 41/37/34 69/38/65 70/44/66
f 45/48/40 43/43/37 70/44/66 71/49/67
f 47/52/43 45/48/40 71/49/67 72/53/68
f 49/97/69 47/98/43 72/99/68 92/100/70 91/101/71
f 54/125/48 52/126/47 102/127/72 101/121/73 74/120/74
f 56/5/51 54/11/48 74/12/74 75/6/75
f 19/2/3 56/5/51 75/6/75 58/3/54
f 81/190/76 80/191/77 15/188/78 47/189/43 49/192/69
s off
f 79/61/79 81/58/80 83/57/81 82/62/82
s 18
f 82/130/83 83/132/84 85/133/85 84/131/86
f 84/131/86 85/133/85 90/136/87 89/134/88
s off
f 86/68/89 88/71/90 89/72/91 90/69/92
s 1
f 91/63/93 94/65/94 96/66/95 95/64/96
s 20
f 95/118/97 96/111/98 98/112/99 97/119/100
f 97/119/100 98/112/99 103/117/101 104/124/102
s 1
f 99/75/103 102/74/104 104/73/105 103/76/106
s 22
f 85/193/107 83/194/108 76/195/109 77/196/110
f 90/199/111 85/193/107 77/196/110 78/200/112
f 77/196/110 76/195/109 95/197/113 97/198/114
f 78/200/112 77/196/110 97/198/114 104/201/115
s 23
f 16/128/116 79/129/117 82/130/118 84/131/119
s 24
f 83/57/120 81/58/121 49/59/122 76/60/123
s 23
f 89/134/124 88/135/125 16/128/116 84/131/119
s 25
f 52/67/126 86/68/127 90/69/128 78/70/129
s 24
f 49/59/122 91/63/130 95/64/131 76/60/123
s 1
f 96/111/95 94/108/94 73/107/132 98/112/133
f 73/107/132 99/114/103 103/117/106 98/112/133
s 25
f 104/73/134 102/74/135 52/67/126 78/70/129
s off
f 79/202/136 80/203/137 81/204/138
f 86/205/139 87/206/140 88/207/141
f 91/137/142 92/138/143 93/139/144 94/140/145
f 99/141/146 100/142/147 101/143/148 102/144/149
f 79/208/150 80/209/151 81/210/152
f 86/211/153 87/212/154 88/213/155
f 91/145/156 92/146/157 93/147/158 94/148/159
f 99/149/160 100/150/161 101/151/162 102/152/163
s 26
f 105/14/164 106/7/165 143/13/166 144/20/167
f 106/7/165 105/14/164 108/15/168 107/8/169
f 107/8/169 108/15/168 110/21/170 109/16/171
f 109/16/171 110/21/170 112/26/172 111/22/173
f 111/22/173 112/26/172 114/28/174 113/27/175
f 113/81/175 114/85/174 116/86/176 115/82/177
f 115/82/177 116/86/176 118/90/178 117/87/179
f 117/87/179 118/90/178 120/94/180 119/91/181
f 119/91/181 120/94/180 122/96/182 121/95/183
f 121/39/183 122/45/182 124/40/184 123/35/185
f 123/35/185 124/40/184 126/41/186 125/36/187
f 125/36/187 126/41/186 128/46/188 127/42/189
f 127/42/189 128/46/188 130/50/190 129/47/191
f 129/47/191 130/50/190 132/54/192 131/51/193
f 131/51/193 132/54/192 134/56/194 133/55/195
f 133/103/195 134/105/194 135/106/196 136/104/197
f 136/104/197 135/106/196 138/110/198 137/109/199
f 137/109/199 138/110/198 139/116/200 140/115/201
f 140/115/201 139/116/200 142/123/202 141/122/203
f 141/19/203 142/25/202 144/20/167 143/13/166
s 1
f 59/4/55 58/3/54 106/7/204 107/8/205
f 60/10/56 59/4/55 107/8/205 109/16/206
f 61/18/57 60/10/56 109/16/206 111/22/207
f 62/24/58 61/18/57 111/22/207 113/27/208
f 63/80/59 62/79/58 113/81/208 115/82/209
f 64/84/60 63/80/59 115/82/209 117/87/210
f 65/89/61 64/84/60 117/87/210 119/91/211
f 66/93/62 65/89/61 119/91/211 121/95/212
f 67/31/63 66/34/62 121/39/212 123/35/213
f 68/32/64 67/31/63 123/35/213 125/36/214
f 69/38/65 68/32/64 125/36/214 127/42/215
f 70/44/66 69/38/65 127/42/215 129/47/216
f 71/49/67 70/44/66 129/47/216 131/51/217
f 72/53/68 71/49/67 131/51/217 133/55/218
f 73/107/132 94/108/94 93/102/219 136/104/220 137/109/221
f 74/120/74 101/121/73 100/113/222 140/115/223 141/122/224
f 75/6/75 74/12/74 141/19/224 143/13/225
f 58/3/54 75/6/75 143/13/225 106/7/204
s 27
f 21/214/226 22/215/227 108/216/228 105/217/229
f 22/215/227 24/218/230 110/219/231 108/216/228
f 24/218/230 26/222/232 112/223/233 110/219/231
f 26/222/232 28/226/234 114/227/235 112/223/233
f 28/226/234 30/230/236 116/231/237 114/227/235
f 30/230/236 32/234/238 118/235/239 116/231/237
f 32/234/238 34/238/240 120/239/241 118/235/239
f 34/238/240 36/242/242 122/243/243 120/239/241
f 36/242/242 38/246/244 124/247/245 122/243/243
f 38/246/244 40/250/246 126/251/247 124/247/245
f 40/250/246 42/252/248 128/253/249 126/251/247
f 42/252/248 44/248/250 130/249/251 128/253/249
f 44/248/250 46/244/252 132/245/253 130/249/251
f 46/244/252 48/240/254 134/241/255 132/245/253
f 48/240/254 50/236/256 135/237/257 134/241/255
f 50/236/256 51/232/258 138/233/259 135/237/257
f 51/232/258 53/228/260 139/229/261 138/233/259
f 53/228/260 55/224/262 142/225/263 139/229/261
f 55/224/262 57/220/264 144/221/265 142/225/263
f 57/220/264 21/214/226 105/217/229 144/221/265
s 1
f 93/102/219 92/100/70 72/99/68 133/103/218 136/104/220
f 100/113/222 99/114/103 73/107/132 137/109/221 140/115/223
