# 3ds Max Wavefront OBJ Exporter v0.97b - (c)2007 guruware
# File Created: 21.11.2016 22:28:01

mtllib Speaker.mtl

#
# object Box002
#

v  60.8540 -0.5745 15.8241
v  60.8540 -0.5745 15.5099
v  61.1915 -0.5745 15.5099
v  61.1915 -0.5745 15.8241
v  60.8540 -0.1276 15.8241
v  61.1915 -0.1276 15.8241
v  61.1915 -0.1536 15.5099
v  60.8540 -0.1536 15.5099
v  61.1714 -0.5310 15.8069
v  60.8741 -0.5310 15.8069
v  60.8741 -0.5445 15.8069
v  61.1714 -0.5445 15.8069
v  61.1714 -0.5310 15.5271
v  61.1714 -0.5445 15.5271
v  60.8741 -0.5310 15.5271
v  60.8741 -0.5445 15.5271
v  61.1915 -0.5175 15.8241
v  60.8540 -0.5175 15.8241
v  61.1915 -0.5579 15.8241
v  60.8540 -0.5579 15.8241
v  61.1915 -0.5175 15.5099
v  61.1915 -0.5579 15.5099
v  60.8540 -0.5175 15.5099
v  60.8540 -0.5579 15.5099
v  60.8675 -0.1432 15.8241
v  61.1780 -0.1432 15.8241
v  60.8675 -0.5019 15.8241
v  61.1780 -0.5019 15.8241
v  60.8675 -0.1407 15.8419
v  61.1780 -0.1407 15.8419
v  60.8675 -0.4994 15.8419
v  61.1780 -0.4994 15.8419
v  60.8464 -0.1255 15.8419
v  61.1990 -0.1255 15.8419
v  60.8464 -0.5166 15.8419
v  61.1990 -0.5166 15.8419
v  60.8464 -0.1253 15.8708
v  61.1990 -0.1253 15.8708
v  60.8464 -0.5168 15.8708
v  61.1990 -0.5168 15.8708
# 40 vertices

vn 0.0000 -1.0000 -0.0000
vn 0.0000 0.9966 -0.0825
vn 0.0000 -0.5185 0.8551
vn -0.0000 -0.5185 0.8551
vn 0.0000 0.5185 0.8551
vn 0.8377 -0.5462 -0.0000
vn 0.8377 0.5462 0.0000
vn 0.0000 -0.5185 -0.8551
vn 0.0000 0.5185 -0.8551
vn -0.8377 -0.5462 -0.0000
vn -0.8377 -0.5462 0.0000
vn -0.8377 0.5462 -0.0000
vn -0.0000 -0.7861 0.6181
vn 0.0000 0.0000 1.0000
vn 0.0000 0.2976 0.9547
vn 1.0000 0.0000 -0.0000
vn 0.9355 -0.3533 -0.0000
vn 0.9355 0.3533 0.0000
vn 0.0000 0.0000 -1.0000
vn 0.0000 -0.2976 -0.9547
vn 0.0000 0.2976 -0.9547
vn -1.0000 0.0000 -0.0000
vn -0.9355 -0.3533 0.0000
vn -0.9355 -0.3533 -0.0000
vn -0.9355 0.3533 -0.0000
vn -0.0000 0.0000 1.0000
vn -0.0000 -0.0000 1.0000
vn 0.0000 0.9907 -0.1363
vn 0.0000 -0.9907 0.1363
vn 0.0000 -0.0000 -1.0000
vn -0.0000 0.0000 -1.0000
vn -0.0000 1.0000 -0.0060
vn -1.0000 0.0000 0.0000
vn -0.0000 -1.0000 -0.0078
# 34 vertex normals

vt 0.9094 0.6684 0.0000
vt 0.6735 0.6706 0.0000
vt 0.6711 0.4171 0.0000
vt 0.9071 0.4149 0.0000
vt 0.5776 0.5242 0.0000
vt 0.3240 0.5249 0.0000
vt 0.3233 0.2882 0.0000
vt 0.5769 0.2874 0.0000
vt 0.9461 0.4296 0.0000
vt 0.9482 0.6529 0.0000
vt 0.9381 0.6530 0.0000
vt 0.9360 0.4297 0.0000
vt 0.6836 0.3762 0.0000
vt 0.8938 0.3742 0.0000
vt 0.8939 0.3844 0.0000
vt 0.6837 0.3863 0.0000
vt 0.6344 0.6559 0.0000
vt 0.6323 0.4326 0.0000
vt 0.6424 0.4325 0.0000
vt 0.6445 0.6558 0.0000
vt 0.8969 0.7093 0.0000
vt 0.6867 0.7113 0.0000
vt 0.6866 0.7012 0.0000
vt 0.8968 0.6992 0.0000
vt 0.9624 0.4143 0.0000
vt 0.9647 0.6679 0.0000
vt 0.9195 0.4147 0.0000
vt 0.9219 0.6683 0.0000
vt 0.0874 0.3084 0.0000
vt 0.0866 0.0155 0.0000
vt 0.3225 0.0148 0.0000
vt 0.6706 0.3581 0.0000
vt 0.9065 0.3559 0.0000
vt 0.6710 0.4046 0.0000
vt 0.9069 0.4024 0.0000
vt 0.5761 0.0141 0.0000
vt 0.6182 0.6712 0.0000
vt 0.6158 0.4176 0.0000
vt 0.6611 0.6708 0.0000
vt 0.6587 0.4172 0.0000
vt 0.8129 0.3063 0.0000
vt 0.8120 0.0134 0.0000
vt 0.9100 0.7274 0.0000
vt 0.6740 0.7296 0.0000
vt 0.9095 0.6809 0.0000
vt 0.6736 0.6831 0.0000
vt 0.5675 0.5359 0.0000
vt 0.3342 0.5366 0.0000
vt 0.8222 0.0251 0.0000
vt 0.8230 0.2945 0.0000
vt 0.0772 0.2967 0.0000
vt 0.0764 0.0273 0.0000
vt 0.3124 0.5645 0.0000
vt 0.5659 0.5645 0.0000
vt 0.5558 0.5762 0.0000
vt 0.3225 0.5762 0.0000
vt 0.5675 0.5495 0.0000
vt 0.3342 0.5502 0.0000
vt 0.8357 0.0269 0.0000
vt 0.8365 0.2963 0.0000
vt 0.0638 0.2986 0.0000
vt 0.0630 0.0291 0.0000
vt 0.5558 0.5897 0.0000
vt 0.3225 0.5897 0.0000
vt 0.5779 0.9876 0.0000
vt 0.3446 0.9876 0.0000
vt 0.3288 0.9762 0.0000
vt 0.5937 0.9762 0.0000
vt 0.2913 0.9429 0.0000
vt 0.2913 0.6735 0.0000
vt 0.3071 0.6606 0.0000
vt 0.3071 0.9544 0.0000
vt 0.6311 0.6735 0.0000
vt 0.6311 0.9429 0.0000
vt 0.6153 0.9544 0.0000
vt 0.6153 0.6606 0.0000
vt 0.3446 0.6259 0.0000
vt 0.5779 0.6259 0.0000
vt 0.5937 0.6387 0.0000
vt 0.3288 0.6387 0.0000
vt 0.3288 0.9545 0.0000
vt 0.5937 0.9545 0.0000
vt 0.3288 0.6604 0.0000
vt 0.5937 0.6604 0.0000
# 84 texture coords

g Box002
usemtl wire_006135113
s 2
f 1/1/1 2/2/1 3/3/1 4/4/1 
s 4
f 5/5/2 6/6/2 7/7/2 8/8/2 
s 8
f 9/9/3 10/10/4 11/11/5 12/12/5 
s 16
f 13/13/6 9/14/6 12/15/7 14/16/7 
s 32
f 15/17/8 13/18/8 14/19/9 16/20/9 
s 64
f 10/21/10 15/22/11 16/23/12 11/24/12 
s 8
f 17/25/13 18/26/13 10/10/4 9/9/3 
f 1/1/14 4/4/14 19/27/15 20/28/15 
f 20/28/15 19/27/15 12/12/5 11/11/5 
s 16
f 7/7/16 6/29/16 17/30/17 21/31/17 
f 21/32/17 17/33/17 9/14/6 13/13/6 
f 4/4/16 3/3/16 22/34/18 19/35/18 
f 19/35/18 22/34/18 14/16/7 12/15/7 
s 32
f 8/8/19 7/7/19 21/31/20 23/36/20 
f 23/37/20 21/38/20 13/18/8 15/17/8 
f 3/3/19 2/2/19 24/39/21 22/40/21 
f 22/40/21 24/39/21 16/20/9 14/19/9 
s 64
f 5/41/22 8/8/22 23/36/23 18/42/24 
f 18/43/24 23/44/23 15/22/11 10/21/10 
f 2/2/22 1/1/22 20/45/25 24/46/25 
f 24/46/25 20/45/25 11/24/12 16/23/12 
s off
f 6/6/14 5/5/14 25/47/14 26/48/14 
f 5/41/26 18/42/26 27/49/26 25/50/26 
f 17/30/14 6/29/14 26/51/14 28/52/14 
f 18/53/27 17/54/27 28/55/27 27/56/27 
f 26/48/28 25/47/28 29/57/28 30/58/28 
f 25/50/22 27/49/22 31/59/22 29/60/22 
f 28/52/16 26/51/16 30/61/16 32/62/16 
f 27/56/29 28/55/29 32/63/29 31/64/29 
f 30/65/30 29/66/30 33/67/30 34/68/30 
f 29/69/30 31/70/30 35/71/30 33/72/30 
f 32/73/31 30/74/31 34/75/31 36/76/31 
f 31/77/31 32/78/31 36/79/31 35/80/31 
f 34/68/32 33/67/32 37/81/32 38/82/32 
f 33/72/33 35/71/33 39/83/33 37/81/33 
f 36/76/16 34/75/16 38/82/16 40/84/16 
f 35/80/34 36/79/34 40/84/34 39/83/34 
f 39/83/14 40/84/14 38/82/14 37/81/14 
# 38 polygons

