# 3ds Max Wavefront OBJ Exporter v0.97b - (c)2007 guruware
# File Created: 23.06.2017 22:46:46

mtllib VentilationShaft.mtl

#
# object Box006
#

v  545.5262 79.0936 135.3352
v  545.5262 74.2985 135.3352
v  476.0227 74.2985 135.3352
v  476.0227 79.0936 135.3352
v  476.0227 0.0000 135.3352
v  476.0227 4.7950 135.3352
v  545.5262 4.7950 135.3352
v  545.5262 0.0000 135.3352
v  550.3213 74.2985 135.3352
v  550.3213 4.7950 135.3352
v  471.2277 4.7950 135.3352
v  471.2277 74.2985 135.3352
v  550.3213 79.0936 135.3352
v  471.2277 79.0936 135.3352
v  471.2277 0.0000 135.3352
v  550.3213 0.0000 135.3352
v  476.0227 79.0936 140.2757
v  545.5262 79.0936 140.2757
v  545.5262 74.2985 140.2757
v  476.0227 74.2985 140.2757
v  545.5262 0.0000 140.2757
v  476.0227 0.0000 140.2757
v  476.0227 4.7950 140.2757
v  545.5262 4.7950 140.2757
v  550.3213 74.2985 140.2757
v  550.3213 4.7950 140.2757
v  471.2277 4.7950 140.2757
v  471.2277 74.2985 140.2757
v  550.3213 79.0936 140.2757
v  471.2277 79.0936 140.2757
v  471.2277 0.0000 140.2757
v  550.3213 0.0000 140.2757
v  476.0227 74.2843 137.9895
v  476.0227 70.3928 140.7910
v  545.5262 70.3928 140.7910
v  545.5262 74.2843 137.9895
v  545.5262 73.8952 137.4490
v  476.0227 73.8952 137.4490
v  476.0227 70.0037 140.2505
v  545.5262 70.0037 140.2505
v  476.0227 69.3746 137.9895
v  476.0227 65.4831 140.7910
v  545.5262 65.4831 140.7910
v  545.5262 69.3746 137.9895
v  545.5262 68.9855 137.4490
v  476.0227 68.9855 137.4490
v  476.0227 65.0940 140.2505
v  545.5262 65.0940 140.2505
v  476.0227 64.0104 137.9895
v  476.0227 60.1189 140.7910
v  545.5262 60.1189 140.7910
v  545.5262 64.0104 137.9895
v  545.5262 63.6213 137.4490
v  476.0227 63.6213 137.4490
v  476.0227 59.7298 140.2505
v  545.5262 59.7298 140.2505
v  476.0227 58.5486 137.9895
v  476.0227 54.6571 140.7910
v  545.5262 54.6571 140.7910
v  545.5262 58.5486 137.9895
v  545.5262 58.1594 137.4490
v  476.0227 58.1594 137.4490
v  476.0227 54.2679 140.2505
v  545.5262 54.2679 140.2505
v  476.0227 53.1844 137.9895
v  476.0227 49.2929 140.7910
v  545.5262 49.2929 140.7910
v  545.5262 53.1844 137.9895
v  545.5262 52.7952 137.4490
v  476.0227 52.7952 137.4490
v  476.0227 48.9037 140.2505
v  545.5262 48.9037 140.2505
v  476.0227 47.8653 137.9895
v  476.0227 43.9738 140.7910
v  545.5262 43.9738 140.7910
v  545.5262 47.8653 137.9895
v  545.5262 47.4761 137.4490
v  476.0227 47.4761 137.4490
v  476.0227 43.5846 140.2505
v  545.5262 43.5846 140.2505
v  476.0227 42.5011 137.9895
v  476.0227 38.6096 140.7910
v  545.5262 38.6096 140.7910
v  545.5262 42.5011 137.9895
v  545.5262 42.1119 137.4490
v  476.0227 42.1119 137.4490
v  476.0227 38.2204 140.2505
v  545.5262 38.2204 140.2505
v  476.0227 36.8949 137.9895
v  476.0227 33.0034 140.7910
v  545.5262 33.0034 140.7910
v  545.5262 36.8949 137.9895
v  545.5262 36.5058 137.4490
v  476.0227 36.5058 137.4490
v  476.0227 32.6143 140.2505
v  545.5262 32.6143 140.2505
v  476.0227 31.5307 137.9895
v  476.0227 27.6392 140.7910
v  545.5262 27.6392 140.7910
v  545.5262 31.5307 137.9895
v  545.5262 31.1416 137.4490
v  476.0227 31.1416 137.4490
v  476.0227 27.2501 140.2505
v  545.5262 27.2501 140.2505
v  476.0227 25.8495 137.9895
v  476.0227 21.9580 140.7910
v  545.5262 21.9580 140.7910
v  545.5262 25.8495 137.9895
v  545.5262 25.4604 137.4490
v  476.0227 25.4604 137.4490
v  476.0227 21.5689 140.2505
v  545.5262 21.5689 140.2505
v  476.0227 14.8792 137.9895
v  476.0227 10.9877 140.7910
v  545.5262 10.9877 140.7910
v  545.5262 14.8792 137.9895
v  545.5262 14.4900 137.4490
v  476.0227 14.4900 137.4490
v  476.0227 10.5985 140.2505
v  545.5262 10.5985 140.2505
v  476.0227 20.4853 137.9895
v  476.0227 16.5938 140.7910
v  545.5262 16.5938 140.7910
v  545.5262 20.4853 137.9895
v  545.5262 20.0962 137.4490
v  476.0227 20.0962 137.4490
v  476.0227 16.2047 140.2505
v  545.5262 16.2047 140.2505
v  476.0227 9.5150 137.9895
v  476.0227 5.6235 140.7910
v  545.5262 5.6235 140.7910
v  545.5262 9.5150 137.9895
v  545.5262 9.1259 137.4490
v  476.0227 9.1259 137.4490
v  476.0227 5.2343 140.2505
v  545.5262 5.2343 140.2505
# 136 vertices

vn 0.0000 0.0000 -1.0000
vn 0.0000 1.0000 -0.0000
vn 0.0000 -1.0000 -0.0000
vn 1.0000 0.0000 -0.0000
vn -1.0000 0.0000 -0.0000
vn 0.0000 0.0000 1.0000
vn 0.0000 0.5843 0.8116
vn 0.0000 0.8116 -0.5843
vn 0.0000 -0.8116 0.5843
vn 0.0000 -0.5843 -0.8116
# 10 vertex normals

vt 0.0283 0.9400 0.0000
vt 0.0283 0.9137 0.0000
vt 0.4091 0.9137 0.0000
vt 0.4091 0.9400 0.0000
vt 0.4091 0.5066 0.0000
vt 0.4091 0.5329 0.0000
vt 0.0283 0.5329 0.0000
vt 0.0283 0.5066 0.0000
vt 0.0020 0.9138 0.0000
vt 0.0020 0.5329 0.0000
vt 0.4354 0.5329 0.0000
vt 0.4354 0.9137 0.0000
vt 0.0020 0.9400 0.0000
vt 0.4354 0.9400 0.0000
vt 0.4354 0.5066 0.0000
vt 0.0020 0.5066 0.0000
vt 0.4362 0.4895 0.0000
vt 0.0553 0.4895 0.0000
vt 0.0553 0.4625 0.0000
vt 0.4362 0.4625 0.0000
vt 0.0283 0.8867 0.0000
vt 0.4091 0.8866 0.0000
vt 0.0554 0.0020 0.0000
vt 0.4361 0.0020 0.0000
vt 0.4361 0.0291 0.0000
vt 0.0554 0.0291 0.0000
vt 0.4091 0.5600 0.0000
vt 0.0283 0.5600 0.0000
vt 0.4895 0.0553 0.0000
vt 0.4895 0.4362 0.0000
vt 0.4625 0.4362 0.0000
vt 0.4624 0.0553 0.0000
vt 0.0553 0.5329 0.0000
vt 0.0554 0.9137 0.0000
vt 0.0020 0.4362 0.0000
vt 0.0020 0.0553 0.0000
vt 0.0291 0.0553 0.0000
vt 0.0291 0.4362 0.0000
vt 0.3820 0.9137 0.0000
vt 0.3821 0.5329 0.0000
vt 0.4625 0.4895 0.0000
vt 0.4625 0.4625 0.0000
vt 0.4895 0.4625 0.0000
vt 0.0020 0.4625 0.0000
vt 0.0291 0.4625 0.0000
vt 0.0291 0.4895 0.0000
vt 0.0291 0.0020 0.0000
vt 0.0291 0.0291 0.0000
vt 0.0020 0.0291 0.0000
vt 0.4895 0.0291 0.0000
vt 0.4624 0.0291 0.0000
vt 0.4624 0.0020 0.0000
vt 0.0554 0.0553 0.0000
vt 0.4361 0.0553 0.0000
vt 0.4362 0.4362 0.0000
vt 0.0553 0.4362 0.0000
vt 0.5103 0.0319 0.0000
vt 0.5103 0.0056 0.0000
vt 0.8911 0.0056 0.0000
vt 0.8911 0.0319 0.0000
vt 0.8911 0.0356 0.0000
vt 0.5103 0.0356 0.0000
vt 0.5066 0.0319 0.0000
vt 0.5066 0.0056 0.0000
vt 0.5103 0.0020 0.0000
vt 0.8911 0.0020 0.0000
vt 0.8947 0.0056 0.0000
vt 0.8947 0.0319 0.0000
vt 0.8911 0.0618 0.0000
vt 0.5103 0.0618 0.0000
vt 0.4561 0.5365 0.0000
vt 0.4561 0.5103 0.0000
vt 0.8370 0.5103 0.0000
vt 0.8370 0.5365 0.0000
vt 0.8370 0.5402 0.0000
vt 0.4561 0.5402 0.0000
vt 0.4525 0.5365 0.0000
vt 0.4525 0.5103 0.0000
vt 0.4561 0.5066 0.0000
vt 0.8370 0.5066 0.0000
vt 0.8406 0.5103 0.0000
vt 0.8406 0.5365 0.0000
vt 0.8370 0.5665 0.0000
vt 0.4561 0.5665 0.0000
vt 0.5103 0.1088 0.0000
vt 0.5103 0.0826 0.0000
vt 0.8911 0.0826 0.0000
vt 0.8911 0.1088 0.0000
vt 0.8911 0.1125 0.0000
vt 0.5103 0.1125 0.0000
vt 0.5066 0.1088 0.0000
vt 0.5066 0.0826 0.0000
vt 0.5103 0.0789 0.0000
vt 0.8911 0.0789 0.0000
vt 0.8947 0.0826 0.0000
vt 0.8947 0.1088 0.0000
vt 0.8911 0.1388 0.0000
vt 0.5103 0.1388 0.0000
vt 0.4561 0.6134 0.0000
vt 0.4561 0.5872 0.0000
vt 0.8370 0.5872 0.0000
vt 0.8370 0.6134 0.0000
vt 0.8370 0.6171 0.0000
vt 0.4561 0.6171 0.0000
vt 0.4525 0.6134 0.0000
vt 0.4525 0.5872 0.0000
vt 0.4561 0.5835 0.0000
vt 0.8370 0.5835 0.0000
vt 0.8406 0.5872 0.0000
vt 0.8406 0.6134 0.0000
vt 0.8370 0.6434 0.0000
vt 0.4561 0.6434 0.0000
vt 0.5103 0.1857 0.0000
vt 0.5103 0.1595 0.0000
vt 0.8911 0.1595 0.0000
vt 0.8911 0.1857 0.0000
vt 0.8911 0.1894 0.0000
vt 0.5103 0.1894 0.0000
vt 0.5066 0.1857 0.0000
vt 0.5066 0.1595 0.0000
vt 0.5103 0.1558 0.0000
vt 0.8911 0.1558 0.0000
vt 0.8947 0.1595 0.0000
vt 0.8947 0.1857 0.0000
vt 0.8911 0.2157 0.0000
vt 0.5103 0.2157 0.0000
vt 0.4561 0.6904 0.0000
vt 0.4561 0.6641 0.0000
vt 0.8370 0.6641 0.0000
vt 0.8370 0.6904 0.0000
vt 0.8370 0.6940 0.0000
vt 0.4561 0.6940 0.0000
vt 0.4525 0.6904 0.0000
vt 0.4525 0.6641 0.0000
vt 0.4561 0.6604 0.0000
vt 0.8370 0.6604 0.0000
vt 0.8406 0.6641 0.0000
vt 0.8406 0.6904 0.0000
vt 0.8370 0.7203 0.0000
vt 0.4561 0.7203 0.0000
vt 0.5103 0.2627 0.0000
vt 0.5103 0.2364 0.0000
vt 0.8911 0.2364 0.0000
vt 0.8911 0.2627 0.0000
vt 0.8911 0.2663 0.0000
vt 0.5103 0.2663 0.0000
vt 0.5066 0.2627 0.0000
vt 0.5066 0.2364 0.0000
vt 0.5103 0.2327 0.0000
vt 0.8911 0.2327 0.0000
vt 0.8947 0.2364 0.0000
vt 0.8947 0.2627 0.0000
vt 0.8911 0.2926 0.0000
vt 0.5103 0.2926 0.0000
vt 0.4561 0.7673 0.0000
vt 0.4561 0.7410 0.0000
vt 0.8370 0.7410 0.0000
vt 0.8370 0.7673 0.0000
vt 0.8370 0.7709 0.0000
vt 0.4561 0.7709 0.0000
vt 0.4525 0.7673 0.0000
vt 0.4525 0.7410 0.0000
vt 0.4561 0.7373 0.0000
vt 0.8370 0.7373 0.0000
vt 0.8406 0.7410 0.0000
vt 0.8406 0.7673 0.0000
vt 0.8370 0.7972 0.0000
vt 0.4561 0.7972 0.0000
vt 0.5103 0.3396 0.0000
vt 0.5103 0.3133 0.0000
vt 0.8911 0.3133 0.0000
vt 0.8911 0.3396 0.0000
vt 0.8911 0.3432 0.0000
vt 0.5103 0.3432 0.0000
vt 0.5066 0.3396 0.0000
vt 0.5066 0.3133 0.0000
vt 0.5103 0.3096 0.0000
vt 0.8911 0.3096 0.0000
vt 0.8947 0.3133 0.0000
vt 0.8947 0.3396 0.0000
vt 0.8911 0.3695 0.0000
vt 0.5103 0.3695 0.0000
vt 0.4561 0.8442 0.0000
vt 0.4561 0.8179 0.0000
vt 0.8370 0.8179 0.0000
vt 0.8370 0.8442 0.0000
vt 0.8370 0.8478 0.0000
vt 0.4561 0.8478 0.0000
vt 0.4525 0.8442 0.0000
vt 0.4525 0.8179 0.0000
vt 0.4561 0.8143 0.0000
vt 0.8370 0.8143 0.0000
vt 0.8406 0.8179 0.0000
vt 0.8406 0.8442 0.0000
vt 0.8370 0.8741 0.0000
vt 0.4561 0.8741 0.0000
vt 0.4525 0.9980 0.0000
vt 0.4525 0.9717 0.0000
vt 0.8333 0.9717 0.0000
vt 0.8333 0.9980 0.0000
vt 0.0283 0.9571 0.0000
vt 0.4091 0.9571 0.0000
vt 0.4091 0.9607 0.0000
vt 0.0283 0.9607 0.0000
vt 0.0020 0.9571 0.0000
vt 0.0020 0.9607 0.0000
vt 0.4525 0.9681 0.0000
vt 0.8333 0.9681 0.0000
vt 0.8370 0.9717 0.0000
vt 0.8370 0.9980 0.0000
vt 0.4091 0.9870 0.0000
vt 0.0283 0.9870 0.0000
vt 0.5103 0.4165 0.0000
vt 0.5103 0.3902 0.0000
vt 0.8911 0.3902 0.0000
vt 0.8911 0.4165 0.0000
vt 0.8911 0.4201 0.0000
vt 0.5103 0.4201 0.0000
vt 0.5066 0.4165 0.0000
vt 0.5066 0.3902 0.0000
vt 0.5103 0.3866 0.0000
vt 0.8911 0.3866 0.0000
vt 0.8947 0.3902 0.0000
vt 0.8947 0.4165 0.0000
vt 0.8911 0.4464 0.0000
vt 0.5103 0.4464 0.0000
vt 0.4561 0.9211 0.0000
vt 0.4561 0.8948 0.0000
vt 0.8370 0.8948 0.0000
vt 0.8370 0.9211 0.0000
vt 0.8370 0.9247 0.0000
vt 0.4561 0.9247 0.0000
vt 0.4525 0.9211 0.0000
vt 0.4525 0.8948 0.0000
vt 0.4561 0.8912 0.0000
vt 0.8370 0.8912 0.0000
vt 0.8406 0.8948 0.0000
vt 0.8406 0.9211 0.0000
vt 0.8370 0.9510 0.0000
vt 0.4561 0.9510 0.0000
# 240 texture coords

g Box006
usemtl wire_148177027
s 32
f 1/1/1 2/2/1 3/3/1 4/4/1 
f 5/5/1 6/6/1 7/7/1 8/8/1 
f 9/9/1 10/10/1 7/7/1 2/2/1 
f 11/11/1 12/12/1 3/3/1 6/6/1 
f 13/13/1 9/9/1 2/2/1 1/1/1 
f 12/12/1 14/14/1 4/4/1 3/3/1 
f 15/15/1 11/11/1 6/6/1 5/5/1 
f 10/10/1 16/16/1 8/8/1 7/7/1 
s off
f 1/17/2 4/18/2 17/19/2 18/20/2 
f 3/3/3 2/2/3 19/21/3 20/22/3 
f 5/23/3 8/24/3 21/25/3 22/26/3 
f 7/7/2 6/6/2 23/27/2 24/28/2 
f 10/29/4 9/30/4 25/31/4 26/32/4 
f 2/2/5 7/7/5 24/33/5 19/34/5 
f 12/35/5 11/36/5 27/37/5 28/38/5 
f 6/6/4 3/3/4 20/39/4 23/40/4 
f 13/41/2 1/17/2 18/20/2 29/42/2 
f 9/30/4 13/43/4 29/42/4 25/31/4 
f 14/44/5 12/35/5 28/38/5 30/45/5 
f 4/18/2 14/46/2 30/45/2 17/19/2 
f 15/47/3 5/23/3 22/26/3 31/48/3 
f 11/36/5 15/49/5 31/48/5 27/37/5 
f 16/50/4 10/29/4 26/32/4 32/51/4 
f 8/24/3 16/52/3 32/51/3 21/25/3 
s 1
f 23/53/6 22/26/6 21/25/6 24/54/6 
s 2
f 21/25/6 32/51/6 26/32/6 24/54/6 
f 23/53/6 27/37/6 31/48/6 22/26/6 
s 1
f 19/55/6 18/20/6 17/19/6 20/56/6 
s 2
f 17/19/6 30/45/6 28/38/6 20/56/6 
f 19/55/6 25/31/6 29/42/6 18/20/6 
s 4
f 20/56/6 28/38/6 27/37/6 23/53/6 
f 24/54/6 26/32/6 25/31/6 19/55/6 
s 1
f 33/57/7 34/58/7 35/59/7 36/60/7 
s off
f 33/57/8 36/60/8 37/61/8 38/62/8 
f 34/58/5 33/57/5 38/63/5 39/64/5 
f 35/59/9 34/58/9 39/65/9 40/66/9 
f 36/60/4 35/59/4 40/67/4 37/68/4 
f 40/69/10 39/70/10 38/62/10 37/61/10 
s 1
f 41/71/7 42/72/7 43/73/7 44/74/7 
s off
f 41/71/8 44/74/8 45/75/8 46/76/8 
f 42/72/5 41/71/5 46/77/5 47/78/5 
f 43/73/9 42/72/9 47/79/9 48/80/9 
f 44/74/4 43/73/4 48/81/4 45/82/4 
f 48/83/10 47/84/10 46/76/10 45/75/10 
s 1
f 49/85/7 50/86/7 51/87/7 52/88/7 
s off
f 49/85/8 52/88/8 53/89/8 54/90/8 
f 50/86/5 49/85/5 54/91/5 55/92/5 
f 51/87/9 50/86/9 55/93/9 56/94/9 
f 52/88/4 51/87/4 56/95/4 53/96/4 
f 56/97/10 55/98/10 54/90/10 53/89/10 
s 1
f 57/99/7 58/100/7 59/101/7 60/102/7 
s off
f 57/99/8 60/102/8 61/103/8 62/104/8 
f 58/100/5 57/99/5 62/105/5 63/106/5 
f 59/101/9 58/100/9 63/107/9 64/108/9 
f 60/102/4 59/101/4 64/109/4 61/110/4 
f 64/111/10 63/112/10 62/104/10 61/103/10 
s 1
f 65/113/7 66/114/7 67/115/7 68/116/7 
s off
f 65/113/8 68/116/8 69/117/8 70/118/8 
f 66/114/5 65/113/5 70/119/5 71/120/5 
f 67/115/9 66/114/9 71/121/9 72/122/9 
f 68/116/4 67/115/4 72/123/4 69/124/4 
f 72/125/10 71/126/10 70/118/10 69/117/10 
s 1
f 73/127/7 74/128/7 75/129/7 76/130/7 
s off
f 73/127/8 76/130/8 77/131/8 78/132/8 
f 74/128/5 73/127/5 78/133/5 79/134/5 
f 75/129/9 74/128/9 79/135/9 80/136/9 
f 76/130/4 75/129/4 80/137/4 77/138/4 
f 80/139/10 79/140/10 78/132/10 77/131/10 
s 1
f 81/141/7 82/142/7 83/143/7 84/144/7 
s off
f 81/141/8 84/144/8 85/145/8 86/146/8 
f 82/142/5 81/141/5 86/147/5 87/148/5 
f 83/143/9 82/142/9 87/149/9 88/150/9 
f 84/144/4 83/143/4 88/151/4 85/152/4 
f 88/153/10 87/154/10 86/146/10 85/145/10 
s 1
f 89/155/7 90/156/7 91/157/7 92/158/7 
s off
f 89/155/8 92/158/8 93/159/8 94/160/8 
f 90/156/5 89/155/5 94/161/5 95/162/5 
f 91/157/9 90/156/9 95/163/9 96/164/9 
f 92/158/4 91/157/4 96/165/4 93/166/4 
f 96/167/10 95/168/10 94/160/10 93/159/10 
s 1
f 97/169/7 98/170/7 99/171/7 100/172/7 
s off
f 97/169/8 100/172/8 101/173/8 102/174/8 
f 98/170/5 97/169/5 102/175/5 103/176/5 
f 99/171/9 98/170/9 103/177/9 104/178/9 
f 100/172/4 99/171/4 104/179/4 101/180/4 
f 104/181/10 103/182/10 102/174/10 101/173/10 
s 1
f 105/183/7 106/184/7 107/185/7 108/186/7 
s off
f 105/183/8 108/186/8 109/187/8 110/188/8 
f 106/184/5 105/183/5 110/189/5 111/190/5 
f 107/185/9 106/184/9 111/191/9 112/192/9 
f 108/186/4 107/185/4 112/193/4 109/194/4 
f 112/195/10 111/196/10 110/188/10 109/187/10 
s 1
f 113/197/7 114/198/7 115/199/7 116/200/7 
s off
f 113/201/8 116/202/8 117/203/8 118/204/8 
f 114/205/5 113/201/5 118/204/5 119/206/5 
f 115/199/9 114/198/9 119/207/9 120/208/9 
f 116/200/4 115/199/4 120/209/4 117/210/4 
f 120/211/10 119/212/10 118/204/10 117/203/10 
s 1
f 121/213/7 122/214/7 123/215/7 124/216/7 
s off
f 121/213/8 124/216/8 125/217/8 126/218/8 
f 122/214/5 121/213/5 126/219/5 127/220/5 
f 123/215/9 122/214/9 127/221/9 128/222/9 
f 124/216/4 123/215/4 128/223/4 125/224/4 
f 128/225/10 127/226/10 126/218/10 125/217/10 
s 1
f 129/227/7 130/228/7 131/229/7 132/230/7 
s off
f 129/227/8 132/230/8 133/231/8 134/232/8 
f 130/228/5 129/227/5 134/233/5 135/234/5 
f 131/229/9 130/228/9 135/235/9 136/236/9 
f 132/230/4 131/229/4 136/237/4 133/238/4 
f 136/239/10 135/240/10 134/232/10 133/231/10 
# 110 polygons

