# This file uses centimeters as units for non-parametric coordinates.

mtllib G17_Mag.mtl
g default
v 1.789709 63.641930 -11.593082
v -1.789709 63.641930 -11.593082
v 1.789709 60.792442 -3.650019
v -1.789709 60.792442 -3.650019
v -1.789709 47.960155 -17.208748
v -1.789709 46.709732 -8.702039
v 1.789709 47.960155 -17.208748
v 1.789709 46.709732 -8.702039
vt 0.375000 0.850899
vt 0.375000 0.769459
vt 0.625000 0.769459
vt 0.625000 0.850899
vt 0.375000 0.850899
vt 0.375000 0.769459
vt 0.625000 0.769459
vt 0.625000 0.850899
vt 0.375000 0.850899
vt 0.375000 0.769459
vt 0.625000 0.769459
vt 0.625000 0.850899
vn 0.000000 -0.989369 -0.145430
vn 0.000000 -0.989369 -0.145430
vn 0.000000 -0.989369 -0.145430
vn 0.000000 -0.989369 -0.145430
vn 0.000000 0.941265 0.337669
vn 0.000000 0.941265 0.337669
vn 0.000000 0.941265 0.337669
vn 0.000000 0.941265 0.337669
vn -1.000000 0.000000 0.000000
vn -1.000000 0.000000 0.000000
vn -1.000000 0.000000 0.000000
vn -1.000000 0.000000 0.000000
vn 0.000000 0.337137 -0.941456
vn 0.000000 0.337137 -0.941456
vn 0.000000 0.337137 -0.941456
vn 0.000000 0.337137 -0.941456
vn 1.000000 0.000000 0.000000
vn 1.000000 0.000000 0.000000
vn 1.000000 0.000000 0.000000
vn 1.000000 0.000000 0.000000
vn 0.000000 -0.337669 0.941265
vn 0.000000 -0.337669 0.941265
vn 0.000000 -0.337669 0.941265
vn 0.000000 -0.337669 0.941265
s off
g G17_Mag
usemtl initialShadingGroup
f 6/9/1 5/10/2 7/11/3 8/12/4
f 4/5/5 3/8/6 1/7/7 2/6/8
f 4/1/9 2/2/10 5/10/11 6/9/12
f 2/2/13 1/3/14 7/11/15 5/10/16
f 1/3/17 3/4/18 8/12/19 7/11/20
f 3/4/21 4/1/22 6/9/23 8/12/24
