# This file uses centimeters as units for non-parametric coordinates.

mtllib G17_TriggerOBJ.mtl
g default
v 0.393841 60.034534 -0.444265
v 0.393841 61.083225 0.702665
v 0.393841 61.034164 -0.839351
v 0.393841 61.657978 0.702665
v 0.393841 60.558907 0.871466
v 0.393841 58.931866 0.630836
v 0.393841 58.996071 1.823544
v 0.393841 58.581844 1.520923
v 0.393841 62.334457 -0.886764
v 0.393841 62.334457 0.702665
v 0.393841 61.487453 -1.835595
v 0.188939 58.996071 1.823544
v 0.188939 60.558907 0.871466
v 0.188939 61.487453 -1.835597
v 0.188939 61.034164 -0.839351
v 0.188939 60.155602 1.354511
v 0.188939 59.775078 1.925838
v 0.188939 59.196484 2.307870
v 0.188939 59.683224 2.151301
v -0.393841 60.034534 -0.444265
v -0.393841 61.083225 0.702665
v -0.393841 61.034164 -0.839351
v -0.393841 61.657978 0.702665
v -0.393841 60.558907 0.871466
v -0.393841 58.931866 0.630836
v -0.393841 58.996071 1.823544
v -0.393841 58.581844 1.520923
v -0.393841 62.334457 -0.886764
v -0.393841 62.334457 0.702665
v -0.393841 61.487453 -1.835595
v -0.188939 58.996071 1.823544
v -0.188939 60.558907 0.871466
v -0.188939 61.487453 -1.835597
v -0.188939 61.034164 -0.839351
v -0.188939 60.155602 1.354511
v -0.188939 59.775078 1.925838
v -0.188939 59.196484 2.307870
v -0.188939 59.683224 2.151301
v 0.188939 61.224880 -2.137558
v -0.188939 61.224880 -2.137558
v 0.089212 60.756714 -2.200753
v -0.089212 60.756714 -2.200753
v -0.089212 60.613678 -0.673161
v 0.089212 60.613678 -0.673161
vt 0.372377 0.643219
vt 0.372377 0.657169
vt 0.358891 0.657169
vt 0.358891 0.643219
vt 0.372377 0.626719
vt 0.358891 0.626719
vt 0.372377 0.620208
vt 0.358891 0.620208
vt 0.372138 0.611031
vt 0.372138 0.619752
vt 0.358652 0.619752
vt 0.358652 0.611031
vt 0.351339 0.611031
vt 0.351339 0.583630
vt 0.379451 0.583630
vt 0.387302 0.611031
vt 0.351339 0.537728
vt 0.379451 0.537728
vt 0.379694 0.582261
vt 0.387007 0.582261
vt 0.410230 0.672590
vt 0.382471 0.672590
vt 0.382471 0.646557
vt 0.410230 0.646557
vt 0.373809 0.646557
vt 0.381122 0.646557
vt 0.381122 0.675328
vt 0.373809 0.675328
vt 0.426264 0.646557
vt 0.439750 0.646557
vt 0.439750 0.660544
vt 0.426264 0.660544
vt 0.357559 0.620208
vt 0.357559 0.664324
vt 0.351191 0.664324
vt 0.351191 0.620208
vt 0.331204 0.499720
vt 0.283114 0.517736
vt 0.283114 0.501137
vt 0.318883 0.470852
vt 0.332682 0.537272
vt 0.283114 0.537272
vt 0.277850 0.485995
vt 0.285354 0.439008
vt 0.362273 0.512811
vt 0.248158 0.440862
vt 0.257596 0.428899
vt 0.288301 0.560225
vt 0.281270 0.557573
vt 0.276387 0.543516
vt 0.291491 0.537728
vt 0.321183 0.582862
vt 0.306119 0.571215
vt 0.459631 0.626565
vt 0.411542 0.608549
vt 0.423863 0.579681
vt 0.459631 0.609966
vt 0.459631 0.646101
vt 0.410063 0.646101
vt 0.457391 0.547837
vt 0.464896 0.594824
vt 0.380473 0.621640
vt 0.485150 0.537728
vt 0.494587 0.549691
vt 0.281040 0.605815
vt 0.263223 0.616804
vt 0.248158 0.628452
vt 0.277850 0.583318
vt 0.292954 0.589106
vt 0.288071 0.603163
vt 0.321655 0.609443
vt 0.307518 0.638214
vt 0.313466 0.600722
vt 0.294405 0.643013
vt 0.298866 0.598897
vt 0.336934 0.638214
vt 0.322798 0.609443
vt 0.330987 0.600722
vt 0.350048 0.643013
vt 0.345587 0.598897
vt 0.384502 0.485995
vt 0.384502 0.440862
vt 0.391815 0.440862
vt 0.391815 0.485995
vt 0.371016 0.440862
vt 0.363703 0.440862
vt 0.363703 0.428899
vt 0.391815 0.428899
vt 0.363703 0.501137
vt 0.363703 0.485995
vt 0.371016 0.485995
vt 0.391815 0.501137
vt 0.363703 0.517736
vt 0.391815 0.517736
vt 0.363703 0.537272
vt 0.391815 0.537272
vt 0.444741 0.646557
vt 0.451109 0.646557
vt 0.454668 0.660078
vt 0.441182 0.660078
vt 0.322205 0.569573
vt 0.350317 0.569573
vt 0.350317 0.598441
vt 0.343004 0.598441
vt 0.339445 0.586298
vt 0.333077 0.586298
vt 0.329518 0.598441
vt 0.322205 0.598441
vt 0.322205 0.537728
vt 0.350317 0.537728
vt 0.424831 0.660614
vt 0.411345 0.660614
vt 0.411345 0.646557
vt 0.424831 0.646557
vt 0.379451 0.583630
vt 0.372138 0.611031
vt 0.379694 0.611031
vt 0.379989 0.611031
vt 0.372138 0.611031
vt 0.387302 0.582261
vt 0.358652 0.611031
vt 0.379451 0.611031
vn 1.000000 0.000000 0.000000
vn 1.000000 0.000000 0.000000
vn 1.000000 0.000000 0.000000
vn 1.000000 0.000000 0.000000
vn 1.000000 -0.000000 0.000000
vn 1.000000 0.000000 0.000000
vn 1.000000 0.000000 0.000000
vn 1.000000 0.000000 0.000000
vn 1.000000 0.000000 0.000000
vn 1.000000 0.000000 0.000000
vn 1.000000 0.000000 0.000000
vn 0.000000 0.802532 0.596609
vn 0.000000 0.517139 0.855901
vn 0.000000 0.802532 0.596609
vn 0.000000 0.486673 0.873585
vn 0.000000 0.860195 0.509966
vn 0.000000 0.860195 0.509966
vn 0.000002 0.747436 -0.664334
vn 0.000000 0.492849 -0.870115
vn -0.000003 0.747577 -0.664175
vn 0.000000 0.470721 -0.882282
vn 0.000000 -0.260927 0.965359
vn 0.000000 0.473127 0.880994
vn 0.000000 0.312088 0.950053
vn -0.000001 -0.675702 -0.737175
vn 0.000005 -0.910213 -0.414141
vn 0.000000 -0.691632 -0.722250
vn 0.000005 -0.910213 -0.414140
vn 1.000000 0.000000 0.000000
vn 1.000000 0.000000 0.000000
vn 1.000000 0.000000 0.000000
vn 1.000000 -0.000000 0.000000
vn 1.000000 -0.000000 0.000000
vn 1.000000 0.000000 0.000000
vn 0.000000 0.551001 0.834504
vn 0.000000 0.551001 0.834504
vn -1.000000 0.000000 0.000000
vn -1.000000 -0.000000 0.000000
vn -1.000000 0.000000 0.000000
vn -1.000000 0.000000 0.000000
vn -1.000000 0.000000 0.000000
vn -1.000000 -0.000000 0.000000
vn -1.000000 0.000000 0.000000
vn -1.000000 0.000000 0.000000
vn -1.000000 0.000000 0.000000
vn -1.000000 -0.000000 0.000000
vn -1.000000 -0.000000 0.000000
vn 0.000000 0.133769 -0.991013
vn 0.000000 0.133770 -0.991012
vn 0.000000 -0.999962 -0.008734
vn 0.000000 -0.804145 -0.594434
vn 0.000000 -0.997692 -0.067896
vn 0.000000 -0.804145 -0.594433
vn 0.000000 0.312088 0.950053
vn 0.000000 -0.328600 0.944469
vn 0.000000 0.473127 0.880994
vn 0.000000 0.137618 0.990485
vn 0.000000 0.122410 0.992480
vn 0.000000 0.000000 1.000000
vn 0.000000 0.000000 1.000000
vn 0.000000 0.000000 1.000000
vn 0.000000 0.000000 1.000000
vn 0.000000 0.948581 -0.316536
vn 0.000000 1.000000 0.000000
vn 0.000000 0.962274 -0.272084
vn 0.000000 1.000000 0.000000
vn -0.000003 0.746002 -0.665943
vn 0.000008 0.746000 -0.665946
vn 0.000001 -0.675702 -0.737175
vn -0.000000 -0.691632 -0.722250
vn -0.000005 -0.910213 -0.414141
vn -0.000005 -0.910213 -0.414140
vn -0.000000 -0.631255 -0.775575
vn 0.000000 -0.623978 -0.781442
vn -0.414546 -0.612575 -0.672981
vn 0.521705 -0.653117 -0.548873
vn 0.000000 0.306216 0.951962
vn 0.000000 0.306216 0.951962
vn -1.000000 0.000000 0.000000
vn -1.000000 0.000000 0.000000
vn -1.000000 0.000000 0.000000
vn -1.000000 -0.000000 0.000000
vn -1.000000 -0.000000 0.000000
vn -1.000000 0.000000 0.000000
vn 0.000000 -0.924013 0.382361
vn 0.000000 -0.924016 0.382355
vn 1.000000 0.000000 0.000000
vn 0.976268 -0.215460 -0.021878
vn 0.988082 -0.152291 -0.022373
vn -0.976268 -0.215461 -0.021878
vn -1.000000 0.000000 0.000000
vn -0.988082 -0.152291 -0.022373
vn -0.830231 -0.554255 -0.059311
vn 0.830231 -0.554255 -0.059311
s 1
g G17_Trigger
usemtl phong6SG
f 4/38/1 2/39/2 3/37/3
f 3/37/3 2/39/2 1/40/4
f 2/39/2 5/43/5 1/40/4
f 1/40/4 5/43/5 6/44/6
f 5/43/5 7/46/7 6/44/6
f 6/44/6 7/46/7 8/47/8
f 3/37/3 9/41/9 4/38/1
f 4/38/1 9/41/9 10/42/10
f 9/41/9 3/37/3 11/45/11
s 2
f 16/1/12 13/2/13 35/4/14
f 35/4/14 13/2/13 32/3/15
f 17/5/16 16/1/12 36/6/17
f 36/6/17 16/1/12 35/4/14
s 3
f 14/116/18 39/10/19 33/12/20
f 33/12/20 39/10/19 40/11/21
s 2
f 13/81/13 12/82/22 5/84/23
f 5/84/23 12/82/22 7/83/24
f 15/19/25 14/117/26 3/20/27
f 3/120/27 14/118/26 11/16/28
s 6
f 18/50/29 12/51/30 19/49/31
f 13/52/32 16/53/33 12/51/30
f 16/53/33 17/48/34 12/51/30
f 17/48/34 19/49/31 12/51/30
s 2
f 19/7/35 17/5/16 38/8/36
f 38/8/36 17/5/16 36/6/17
s 8
f 23/54/37 22/55/38 21/57/39
f 21/57/39 22/55/38 20/56/40
f 25/60/41 24/61/42 20/56/40
f 20/56/40 24/61/42 21/57/39
f 27/63/43 26/64/44 25/60/41
f 25/60/41 26/64/44 24/61/42
f 29/58/45 28/59/46 23/54/37
f 23/54/37 28/59/46 22/55/38
f 28/59/46 30/62/47 22/55/38
s 3
f 41/97/48 42/98/49 39/100/19
f 39/100/19 42/98/49 40/99/21
s 2
f 27/21/50 25/22/51 8/24/52
f 8/24/52 25/22/51 6/23/53
f 26/86/54 27/87/50 31/85/55
f 7/83/24 12/82/22 8/88/52
f 27/87/50 8/88/52 31/85/55
f 31/85/55 8/88/52 12/82/22
f 32/91/15 24/90/56 31/85/55
f 31/85/55 24/90/56 26/86/54
f 24/90/56 32/91/15 21/89/57
f 5/84/23 2/92/58 13/81/13
f 21/89/57 32/91/15 2/92/58
f 32/91/15 13/81/13 2/92/58
f 23/93/59 21/89/57 4/94/60
f 4/94/60 21/89/57 2/92/58
f 29/95/61 23/93/59 10/96/62
f 10/96/62 23/93/59 4/94/60
s 3
f 28/14/63 29/17/64 9/115/65
f 9/115/65 29/17/64 10/18/66
f 28/14/63 9/115/65 30/13/67
f 30/13/67 9/115/65 33/121/20
f 33/121/20 9/115/65 14/9/18
f 9/15/65 11/122/68 14/119/18
s 2
f 34/25/69 22/26/70 33/28/71
f 33/28/71 22/26/70 30/27/72
f 3/108/27 1/101/73 15/107/25
f 22/103/70 34/104/69 20/102/74
f 34/104/69 43/105/75 20/102/74
f 15/107/25 1/101/73 44/106/76
f 20/102/74 43/105/75 1/101/73
f 1/101/73 43/105/75 44/106/76
f 6/109/53 25/110/51 1/101/73
f 1/101/73 25/110/51 20/102/74
f 19/111/35 38/112/36 18/114/77
f 18/114/77 38/112/36 37/113/78
s 14
f 37/69/79 38/70/80 31/68/81
f 32/67/82 31/68/81 35/66/83
f 35/66/83 31/68/81 36/65/84
f 36/65/84 31/68/81 38/70/80
s 2
f 18/29/85 37/30/86 12/32/22
f 12/32/22 37/30/86 31/31/55
f 14/71/87 15/72/88 39/73/89
f 34/76/90 33/77/91 40/78/92
f 43/79/75 34/76/90 42/80/93
f 42/80/93 34/76/90 40/78/92
f 44/74/76 41/75/94 15/72/88
f 15/72/88 41/75/94 39/73/89
f 43/33/75 42/34/93 44/36/76
f 44/36/76 42/34/93 41/35/94
