# 3ds Max Wavefront OBJ Exporter v0.97b - (c)2007 guruware
# File Created: 05.12.2016 21:59:19

mtllib SmokeDetector.mtl

#
# object Cylinder001
#

v  16.8809 0.2261 -10.0132
v  16.7742 0.2261 -10.6187
v  16.7742 0.5788 -10.6187
v  16.8809 0.5788 -10.0132
v  16.4668 0.2261 -11.1511
v  16.4668 0.5788 -11.1511
v  15.9958 0.2261 -11.5464
v  15.9958 0.5788 -11.5464
v  15.4180 0.2261 -11.7566
v  15.4180 0.5788 -11.7566
v  14.8032 0.2261 -11.7566
v  14.8032 0.5788 -11.7566
v  14.2254 0.2261 -11.5464
v  14.2254 0.5788 -11.5464
v  13.7544 0.2261 -11.1511
v  13.7544 0.5788 -11.1511
v  13.4470 0.2261 -10.6187
v  13.4470 0.5788 -10.6187
v  13.3402 0.2261 -10.0132
v  13.3402 0.5788 -10.0132
v  13.4470 0.2261 -9.4077
v  13.4470 0.5788 -9.4077
v  13.7544 0.2261 -8.8752
v  13.7544 0.5788 -8.8752
v  14.2254 0.2261 -8.4800
v  14.2254 0.5788 -8.4800
v  14.8032 0.2261 -8.2697
v  14.8032 0.5788 -8.2697
v  15.4180 0.2261 -8.2697
v  15.4180 0.5788 -8.2697
v  15.9958 0.2261 -8.4800
v  15.9958 0.5788 -8.4800
v  16.4668 0.2261 -8.8752
v  16.4668 0.5788 -8.8752
v  16.7742 0.2261 -9.4077
v  16.7742 0.5788 -9.4077
v  16.6433 0.6860 -10.5710
v  16.7416 0.6860 -10.0132
v  16.3600 0.6860 -11.0616
v  15.9261 0.6860 -11.4257
v  15.3938 0.6860 -11.6194
v  14.8274 0.6860 -11.6194
v  14.2951 0.6860 -11.4257
v  13.8612 0.6860 -11.0616
v  13.5779 0.6860 -10.5710
v  13.4796 0.6860 -10.0132
v  13.5779 0.6860 -9.4553
v  13.8612 0.6860 -8.9648
v  14.2951 0.6860 -8.6007
v  14.8274 0.6860 -8.4069
v  15.3938 0.6860 -8.4069
v  15.9261 0.6860 -8.6007
v  16.3600 0.6860 -8.9648
v  16.6433 0.6860 -9.4553
v  16.2431 0.6860 -10.4254
v  16.3158 0.6860 -10.0132
v  16.0338 0.6860 -10.7879
v  15.7132 0.6860 -11.0569
v  15.3199 0.6860 -11.2001
v  14.9013 0.6860 -11.2001
v  14.5080 0.6860 -11.0569
v  14.1874 0.6860 -10.7879
v  13.9781 0.6860 -10.4254
v  13.9054 0.6860 -10.0132
v  13.9781 0.6860 -9.6010
v  14.1874 0.6860 -9.2385
v  14.5080 0.6860 -8.9695
v  14.9013 0.6860 -8.8263
v  15.3199 0.6860 -8.8263
v  15.7132 0.6860 -8.9695
v  16.0338 0.6860 -9.2385
v  16.2431 0.6860 -9.6010
v  16.0410 1.1559 -10.3518
v  16.1007 1.1559 -10.0132
v  16.2477 0.8348 -10.0132
v  16.1791 0.8348 -10.4021
v  15.7764 1.1076 -10.5961
v  15.9483 1.1076 -10.2983
v  16.0865 0.7865 -10.3486
v  15.8890 0.7865 -10.6906
v  15.6056 1.1559 -10.8706
v  15.8691 1.1559 -10.6496
v  15.9817 0.8348 -10.7441
v  15.6791 0.8348 -10.9979
v  15.2459 1.1076 -10.8877
v  15.5691 1.1076 -10.7701
v  15.6425 0.7865 -10.8974
v  15.2715 0.7865 -11.0325
v  14.9387 1.1559 -10.9882
v  15.2825 1.1559 -10.9882
v  15.3080 0.8348 -11.1330
v  14.9131 0.8348 -11.1330
v  14.6521 1.1076 -10.7701
v  14.9753 1.1076 -10.8877
v  14.9497 0.7865 -11.0325
v  14.5786 0.7865 -10.8974
v  14.3521 1.1559 -10.6496
v  14.6155 1.1559 -10.8706
v  14.5421 0.8348 -10.9979
v  14.2395 0.8348 -10.7441
v  14.2729 1.1076 -10.2983
v  14.4448 1.1076 -10.5961
v  14.3322 0.7865 -10.6906
v  14.1347 0.7865 -10.3486
v  14.1205 1.1559 -10.0132
v  14.1802 1.1559 -10.3518
v  14.0421 0.8348 -10.4021
v  13.9735 0.8348 -10.0132
v  14.2856 1.1076 -9.6931
v  14.2259 1.1076 -10.0318
v  14.0789 0.7865 -10.0318
v  14.1474 0.7865 -9.6429
v  14.3521 1.1559 -9.3768
v  14.1802 1.1559 -9.6745
v  14.0421 0.8348 -9.6243
v  14.2395 0.8348 -9.2823
v  14.6843 1.1076 -9.2377
v  14.4209 1.1076 -9.4587
v  14.3083 0.7865 -9.3642
v  14.6108 0.7865 -9.1104
v  14.9387 1.1559 -9.0381
v  14.6155 1.1559 -9.1557
v  14.5421 0.8348 -9.0284
v  14.9131 0.8348 -8.8934
v  15.2825 1.1076 -9.1451
v  14.9387 1.1076 -9.1451
v  14.9131 0.7865 -9.0004
v  15.3080 0.7865 -9.0004
v  15.6056 1.1559 -9.1557
v  15.2825 1.1559 -9.0381
v  15.3080 0.8348 -8.8934
v  15.6791 0.8348 -9.0284
v  15.8003 1.1076 -9.4587
v  15.5369 1.1076 -9.2377
v  15.6104 0.7865 -9.1104
v  15.9129 0.7865 -9.3642
v  16.0410 1.1559 -9.6745
v  15.8691 1.1559 -9.3768
v  15.9817 0.8348 -9.2823
v  16.1791 0.8348 -9.6243
v  15.9953 1.1076 -10.0318
v  15.9356 1.1076 -9.6931
v  16.0737 0.7865 -9.6429
v  16.1423 0.7865 -10.0318
v  15.8079 1.3303 -10.5983
v  15.5657 1.3303 -10.8015
v  15.2687 1.3303 -10.9096
v  16.0208 1.3303 -10.0132
v  14.9525 1.3303 -10.9096
v  14.6555 1.3303 -10.8015
v  14.2552 1.3303 -10.3245
v  14.4133 1.3303 -10.5983
v  14.2004 1.3303 -10.0132
v  14.2552 1.3303 -9.7019
v  14.6555 1.3303 -9.2249
v  14.4133 1.3303 -9.4281
v  14.9525 1.3303 -9.1168
v  15.2687 1.3303 -9.1168
v  15.8079 1.3303 -9.4281
v  15.5657 1.3303 -9.2249
v  15.9659 1.3303 -9.7019
v  15.9659 1.3303 -10.3245
# 162 vertices

vn 1.0000 0.0000 0.0000
vn 0.9397 0.0000 -0.3420
vn 0.9397 -0.0000 -0.3420
vn 1.0000 -0.0000 0.0000
vn 0.7660 0.0000 -0.6428
vn 0.5000 0.0000 -0.8660
vn 0.1736 0.0000 -0.9848
vn -0.1736 0.0000 -0.9848
vn -0.5000 0.0000 -0.8660
vn -0.7660 0.0000 -0.6428
vn -0.9397 -0.0000 -0.3420
vn -0.9397 0.0000 -0.3420
vn -1.0000 -0.0000 -0.0000
vn -1.0000 0.0000 -0.0000
vn -0.9397 0.0000 0.3420
vn -0.7660 0.0000 0.6428
vn -0.5000 0.0000 0.8660
vn -0.1736 0.0000 0.9848
vn 0.1736 0.0000 0.9848
vn 0.5000 0.0000 0.8660
vn 0.7660 0.0000 0.6428
vn 0.9397 0.0000 0.3420
vn 0.0000 -1.0000 -0.0000
vn 0.6097 0.7926 0.0000
vn 0.5730 0.7926 -0.2085
vn 0.4671 0.7926 -0.3919
vn 0.3049 0.7926 -0.5280
vn 0.1059 0.7926 -0.6005
vn -0.1059 0.7926 -0.6005
vn -0.3049 0.7926 -0.5280
vn -0.4671 0.7926 -0.3919
vn -0.5730 0.7926 -0.2085
vn -0.6097 0.7926 -0.0000
vn -0.5730 0.7926 0.2085
vn -0.4671 0.7926 0.3919
vn -0.3049 0.7926 0.5280
vn -0.1059 0.7926 0.6005
vn 0.1059 0.7926 0.6005
vn 0.3049 0.7926 0.5280
vn 0.4671 0.7926 0.3919
vn 0.5730 0.7926 0.2085
vn 0.0000 1.0000 -0.0000
vn -0.0000 1.0000 -0.0000
vn -0.0000 1.0000 0.0000
vn 0.0000 1.0000 0.0000
vn 0.8724 0.4156 -0.2572
vn 0.9078 0.4156 -0.0567
vn 0.9081 0.4157 -0.0501
vn 0.8705 0.4157 -0.2635
vn 0.7895 0.4110 -0.4558
vn 0.5030 0.4156 -0.7578
vn 0.6590 0.4156 -0.6269
vn 0.6634 0.4157 -0.6221
vn 0.4975 0.4157 -0.7614
vn 0.3118 0.4110 -0.8567
vn -0.1018 0.4156 -0.9038
vn 0.1018 0.4156 -0.9038
vn 0.1083 0.4157 -0.9030
vn -0.1083 0.4157 -0.9030
vn -0.3118 0.4110 -0.8567
vn -0.6590 0.4156 -0.6269
vn -0.5030 0.4156 -0.7578
vn -0.4975 0.4157 -0.7614
vn -0.6634 0.4157 -0.6221
vn -0.7895 0.4110 -0.4558
vn -0.9078 0.4156 -0.0567
vn -0.8724 0.4156 -0.2572
vn -0.8705 0.4157 -0.2635
vn -0.9081 0.4157 -0.0501
vn -0.8978 0.4110 0.1583
vn -0.7318 0.4156 0.5401
vn -0.8337 0.4156 0.3637
vn -0.8362 0.4157 0.3577
vn -0.7279 0.4157 0.5453
vn -0.5860 0.4110 0.6984
vn -0.2135 0.4156 0.8842
vn -0.4048 0.4156 0.8145
vn -0.4106 0.4157 0.8115
vn -0.2071 0.4157 0.8856
vn -0.0000 0.4110 0.9116
vn 0.4048 0.4156 0.8145
vn 0.2135 0.4156 0.8842
vn 0.2071 0.4157 0.8856
vn 0.4106 0.4157 0.8115
vn 0.5860 0.4110 0.6984
vn 0.8337 0.4156 0.3637
vn 0.7318 0.4156 0.5401
vn 0.7279 0.4157 0.5453
vn 0.8362 0.4157 0.3577
vn 0.8978 0.4110 0.1583
vn 0.8544 0.4162 -0.3110
vn 0.9093 0.4162 0.0000
vn 0.6965 0.4162 -0.5845
vn 0.4546 0.4162 -0.7874
vn 0.1579 0.4162 -0.8954
vn -0.1579 0.4162 -0.8954
vn -0.4546 0.4162 -0.7874
vn -0.6965 0.4162 -0.5845
vn -0.8544 0.4162 -0.3110
vn -0.9093 0.4162 0.0000
vn -0.9093 0.4162 -0.0000
vn -0.8544 0.4162 0.3110
vn -0.6965 0.4162 0.5845
vn -0.4546 0.4162 0.7874
vn -0.1579 0.4162 0.8954
vn 0.1579 0.4162 0.8954
vn 0.4546 0.4162 0.7874
vn 0.6965 0.4162 0.5845
vn 0.8544 0.4162 0.3110
vn -0.4730 -0.0659 -0.8786
vn -0.3559 0.9116 0.2055
vn 0.5244 -0.0659 0.8489
vn 0.3559 -0.9116 -0.2055
vn -0.9271 -0.0659 -0.3690
vn -0.1406 0.9116 0.3862
vn 0.9474 -0.0659 0.3132
vn 0.1406 -0.9116 -0.3862
vn -0.9474 -0.0659 0.3132
vn 0.1406 0.9116 0.3862
vn 0.9271 -0.0659 -0.3690
vn -0.1406 -0.9116 -0.3862
vn -0.5244 -0.0659 0.8489
vn 0.3559 0.9116 0.2055
vn 0.4730 -0.0659 -0.8786
vn -0.3559 -0.9116 -0.2055
vn 0.1439 -0.0659 0.9874
vn 0.4048 0.9116 -0.0714
vn -0.2024 -0.0659 -0.9771
vn -0.4048 -0.9116 0.0714
vn 0.7449 -0.0659 0.6639
vn 0.2642 0.9116 -0.3148
vn -0.7831 -0.0659 -0.6183
vn -0.2642 -0.9116 0.3148
vn 0.9974 -0.0659 0.0297
vn 0.0000 0.9116 -0.4110
vn -0.9974 -0.0659 0.0297
vn -0.0000 -0.9116 0.4110
vn 0.7831 -0.0659 -0.6183
vn -0.2642 0.9116 -0.3148
vn -0.7449 -0.0659 0.6639
vn 0.2642 -0.9116 0.3148
vn -0.1439 -0.0659 0.9874
vn 0.4048 -0.9116 0.0714
vn 0.2024 -0.0659 -0.9771
vn -0.4048 0.9116 -0.0714
# 145 vertex normals

vt 0.7890 0.4900 0.0000
vt 0.8062 0.5751 0.0000
vt 0.7598 0.5798 0.0000
vt 0.7444 0.5040 0.0000
vt 0.8062 0.6618 0.0000
vt 0.7598 0.6571 0.0000
vt 0.7890 0.7468 0.0000
vt 0.7444 0.7329 0.0000
vt 0.7549 0.8272 0.0000
vt 0.7137 0.8043 0.0000
vt 0.7048 0.8997 0.0000
vt 0.6682 0.8686 0.0000
vt 0.6429 0.9613 0.0000
vt 0.6075 0.9258 0.0000
vt 0.8272 0.2786 0.0000
vt 0.8891 0.3402 0.0000
vt 0.8525 0.3713 0.0000
vt 0.7919 0.3141 0.0000
vt 0.9393 0.4127 0.0000
vt 0.8980 0.4356 0.0000
vt 0.9734 0.4931 0.0000
vt 0.9287 0.5071 0.0000
vt 0.9905 0.5782 0.0000
vt 0.9441 0.5829 0.0000
vt 0.9905 0.6648 0.0000
vt 0.9441 0.6602 0.0000
vt 0.9734 0.7499 0.0000
vt 0.9287 0.7360 0.0000
vt 0.9393 0.8303 0.0000
vt 0.8980 0.8074 0.0000
vt 0.8891 0.9028 0.0000
vt 0.8525 0.8717 0.0000
vt 0.8272 0.9644 0.0000
vt 0.7918 0.9289 0.0000
vt 0.6429 0.2755 0.0000
vt 0.7048 0.3371 0.0000
vt 0.6682 0.3682 0.0000
vt 0.6076 0.3110 0.0000
vt 0.7549 0.4097 0.0000
vt 0.7137 0.4326 0.0000
vt 0.4268 0.4473 0.0000
vt 0.3633 0.5005 0.0000
vt 0.2854 0.5289 0.0000
vt 0.4826 0.2939 0.0000
vt 0.2025 0.5289 0.0000
vt 0.1247 0.5005 0.0000
vt 0.0198 0.3755 0.0000
vt 0.0612 0.4473 0.0000
vt 0.0054 0.2939 0.0000
vt 0.0198 0.2123 0.0000
vt 0.1247 0.0873 0.0000
vt 0.0612 0.1405 0.0000
vt 0.2025 0.0589 0.0000
vt 0.2854 0.0589 0.0000
vt 0.4268 0.1405 0.0000
vt 0.3633 0.0873 0.0000
vt 0.4682 0.2123 0.0000
vt 0.4682 0.3755 0.0000
vt 0.7376 0.5820 0.0000
vt 0.7230 0.5106 0.0000
vt 0.7376 0.6548 0.0000
vt 0.7231 0.7262 0.0000
vt 0.6942 0.7933 0.0000
vt 0.6513 0.8536 0.0000
vt 0.5926 0.9044 0.0000
vt 0.8355 0.3863 0.0000
vt 0.7768 0.3356 0.0000
vt 0.8785 0.4466 0.0000
vt 0.9074 0.5137 0.0000
vt 0.9219 0.5851 0.0000
vt 0.9219 0.6579 0.0000
vt 0.9074 0.7293 0.0000
vt 0.8786 0.7964 0.0000
vt 0.8356 0.8567 0.0000
vt 0.7769 0.9075 0.0000
vt 0.6512 0.3832 0.0000
vt 0.5925 0.3325 0.0000
vt 0.6942 0.4435 0.0000
vt 0.6803 0.5872 0.0000
vt 0.6680 0.5274 0.0000
vt 0.6804 0.6484 0.0000
vt 0.6684 0.7084 0.0000
vt 0.6444 0.7643 0.0000
vt 0.6091 0.8134 0.0000
vt 0.5628 0.8519 0.0000
vt 0.7928 0.4259 0.0000
vt 0.7471 0.3881 0.0000
vt 0.8282 0.4747 0.0000
vt 0.8523 0.5305 0.0000
vt 0.8646 0.5903 0.0000
vt 0.8647 0.6515 0.0000
vt 0.8527 0.7114 0.0000
vt 0.8287 0.7674 0.0000
vt 0.7934 0.8165 0.0000
vt 0.7471 0.8549 0.0000
vt 0.6085 0.4229 0.0000
vt 0.5627 0.3850 0.0000
vt 0.6439 0.4716 0.0000
vt 0.1996 0.8919 0.0000
vt 0.2478 0.8865 0.0000
vt 0.2596 0.9372 0.0000
vt 0.1998 0.9445 0.0000
vt 0.5716 0.1221 0.0000
vt 0.5257 0.1284 0.0000
vt 0.5159 0.0818 0.0000
vt 0.5686 0.0746 0.0000
vt 0.1182 0.8530 0.0000
vt 0.1571 0.8803 0.0000
vt 0.1329 0.9251 0.0000
vt 0.0848 0.8910 0.0000
vt 0.8532 0.2486 0.0000
vt 0.8069 0.2486 0.0000
vt 0.8034 0.2011 0.0000
vt 0.8567 0.2011 0.0000
vt 0.0807 0.7720 0.0000
vt 0.0930 0.8172 0.0000
vt 0.0470 0.8355 0.0000
vt 0.0318 0.7799 0.0000
vt 0.6708 0.1222 0.0000
vt 0.6245 0.1222 0.0000
vt 0.6210 0.0747 0.0000
vt 0.6743 0.0747 0.0000
vt 0.1029 0.6856 0.0000
vt 0.0839 0.7284 0.0000
vt 0.0367 0.7137 0.0000
vt 0.0599 0.6609 0.0000
vt 0.5660 0.2252 0.0000
vt 0.5196 0.2252 0.0000
vt 0.5162 0.1777 0.0000
vt 0.5694 0.1777 0.0000
vt 0.1755 0.6324 0.0000
vt 0.1330 0.6538 0.0000
vt 0.1053 0.6115 0.0000
vt 0.1578 0.5848 0.0000
vt 0.7741 0.1409 0.0000
vt 0.7278 0.1409 0.0000
vt 0.7243 0.0934 0.0000
vt 0.7776 0.0934 0.0000
vt 0.2661 0.6396 0.0000
vt 0.2193 0.6274 0.0000
vt 0.2268 0.5753 0.0000
vt 0.2848 0.5912 0.0000
vt 0.5660 0.3221 0.0000
vt 0.5196 0.3221 0.0000
vt 0.5162 0.2746 0.0000
vt 0.5694 0.2746 0.0000
vt 0.3291 0.7036 0.0000
vt 0.3020 0.6650 0.0000
vt 0.3397 0.6317 0.0000
vt 0.3729 0.6795 0.0000
vt 0.7613 0.2259 0.0000
vt 0.7150 0.2259 0.0000
vt 0.7115 0.1785 0.0000
vt 0.7648 0.1785 0.0000
vt 0.3373 0.7924 0.0000
vt 0.3407 0.7458 0.0000
vt 0.3902 0.7439 0.0000
vt 0.3860 0.8013 0.0000
vt 0.8767 0.1409 0.0000
vt 0.8304 0.1409 0.0000
vt 0.8269 0.0934 0.0000
vt 0.8802 0.0934 0.0000
vt 0.2873 0.8667 0.0000
vt 0.3197 0.8325 0.0000
vt 0.3597 0.8625 0.0000
vt 0.3199 0.9050 0.0000
vt 0.6587 0.2259 0.0000
vt 0.6124 0.2259 0.0000
vt 0.6089 0.1785 0.0000
vt 0.6622 0.1785 0.0000
vt 0.1666 0.8582 0.0000
vt 0.1354 0.8364 0.0000
vt 0.1142 0.8065 0.0000
vt 0.2403 0.8635 0.0000
vt 0.1043 0.7701 0.0000
vt 0.1070 0.7336 0.0000
vt 0.1478 0.6726 0.0000
vt 0.1224 0.6991 0.0000
vt 0.1818 0.6557 0.0000
vt 0.2184 0.6518 0.0000
vt 0.2856 0.6824 0.0000
vt 0.2554 0.6614 0.0000
vt 0.3074 0.7134 0.0000
vt 0.3173 0.7487 0.0000
vt 0.2996 0.8199 0.0000
vt 0.3144 0.7863 0.0000
vt 0.2734 0.8472 0.0000
vt 0.2021 0.8676 0.0000
vt 0.2687 0.9634 0.0000
vt 0.1970 0.9730 0.0000
vt 0.1214 0.9505 0.0000
vt 0.0651 0.9094 0.0000
vt 0.0229 0.8474 0.0000
vt 0.0054 0.7818 0.0000
vt 0.0107 0.7080 0.0000
vt 0.0378 0.6458 0.0000
vt 0.0883 0.5905 0.0000
vt 0.1500 0.5582 0.0000
vt 0.2279 0.5467 0.0000
vt 0.2974 0.5666 0.0000
vt 0.3587 0.6123 0.0000
vt 0.3974 0.6689 0.0000
vt 0.4166 0.7406 0.0000
vt 0.4117 0.8081 0.0000
vt 0.3825 0.8765 0.0000
vt 0.3360 0.9269 0.0000
vt 0.5103 0.1317 0.0000
vt 0.5004 0.0851 0.0000
vt 0.5137 0.0662 0.0000
vt 0.5665 0.0589 0.0000
vt 0.5844 0.0736 0.0000
vt 0.5874 0.1211 0.0000
vt 0.5738 0.1378 0.0000
vt 0.5279 0.1441 0.0000
vt 0.7911 0.2497 0.0000
vt 0.7877 0.2023 0.0000
vt 0.8034 0.1853 0.0000
vt 0.8567 0.1853 0.0000
vt 0.8724 0.2023 0.0000
vt 0.8690 0.2497 0.0000
vt 0.8532 0.2644 0.0000
vt 0.8069 0.2644 0.0000
vt 0.6087 0.1234 0.0000
vt 0.6053 0.0759 0.0000
vt 0.6210 0.0589 0.0000
vt 0.6743 0.0589 0.0000
vt 0.6900 0.0759 0.0000
vt 0.6866 0.1234 0.0000
vt 0.6708 0.1380 0.0000
vt 0.6245 0.1380 0.0000
vt 0.5038 0.2263 0.0000
vt 0.5004 0.1788 0.0000
vt 0.5162 0.1619 0.0000
vt 0.5694 0.1619 0.0000
vt 0.5852 0.1788 0.0000
vt 0.5817 0.2263 0.0000
vt 0.5660 0.2410 0.0000
vt 0.5196 0.2410 0.0000
vt 0.7120 0.1420 0.0000
vt 0.7086 0.0946 0.0000
vt 0.7243 0.0776 0.0000
vt 0.7776 0.0776 0.0000
vt 0.7933 0.0946 0.0000
vt 0.7899 0.1420 0.0000
vt 0.7741 0.1567 0.0000
vt 0.7278 0.1567 0.0000
vt 0.5038 0.3232 0.0000
vt 0.5004 0.2758 0.0000
vt 0.5162 0.2588 0.0000
vt 0.5694 0.2588 0.0000
vt 0.5852 0.2758 0.0000
vt 0.5817 0.3232 0.0000
vt 0.5660 0.3379 0.0000
vt 0.5196 0.3379 0.0000
vt 0.6992 0.2271 0.0000
vt 0.6958 0.1796 0.0000
vt 0.7115 0.1626 0.0000
vt 0.7648 0.1626 0.0000
vt 0.7805 0.1796 0.0000
vt 0.7771 0.2271 0.0000
vt 0.7613 0.2417 0.0000
vt 0.7150 0.2417 0.0000
vt 0.8146 0.1420 0.0000
vt 0.8112 0.0946 0.0000
vt 0.8269 0.0776 0.0000
vt 0.8802 0.0776 0.0000
vt 0.8959 0.0946 0.0000
vt 0.8925 0.1420 0.0000
vt 0.8767 0.1567 0.0000
vt 0.8304 0.1567 0.0000
vt 0.6779 0.1796 0.0000
vt 0.6745 0.2271 0.0000
vt 0.6587 0.2417 0.0000
vt 0.6124 0.2417 0.0000
vt 0.5966 0.2271 0.0000
vt 0.5932 0.1796 0.0000
vt 0.6089 0.1626 0.0000
vt 0.6622 0.1626 0.0000
# 278 texture coords

g Cylinder001
usemtl wire_228184153
s 8
f 1/1/1 2/2/2 3/3/3 4/4/4 
f 2/2/2 5/5/5 6/6/5 3/3/3 
f 5/5/5 7/7/6 8/8/6 6/6/5 
f 7/7/6 9/9/7 10/10/7 8/8/6 
f 9/9/7 11/11/8 12/12/8 10/10/7 
f 11/11/8 13/13/9 14/14/9 12/12/8 
f 13/15/9 15/16/10 16/17/10 14/18/9 
f 15/16/10 17/19/11 18/20/12 16/17/10 
f 17/19/11 19/21/13 20/22/14 18/20/12 
f 19/21/13 21/23/15 22/24/15 20/22/14 
f 21/23/15 23/25/16 24/26/16 22/24/15 
f 23/25/16 25/27/17 26/28/17 24/26/16 
f 25/27/17 27/29/18 28/30/18 26/28/17 
f 27/29/18 29/31/19 30/32/19 28/30/18 
f 29/31/19 31/33/20 32/34/20 30/32/19 
f 31/35/20 33/36/21 34/37/21 32/38/20 
f 33/36/21 35/39/22 36/40/22 34/37/21 
f 35/39/22 1/1/1 4/4/4 36/40/22 
s 1
f 33/41/23 31/42/23 29/43/23 1/44/23 
f 29/43/23 27/45/23 25/46/23 21/47/23 
f 25/46/23 23/48/23 21/47/23 
f 21/47/23 19/49/23 17/50/23 13/51/23 
f 17/50/23 15/52/23 13/51/23 
f 13/51/23 11/53/23 9/54/23 5/55/23 
f 9/54/23 7/56/23 5/55/23 
f 21/47/23 13/51/23 5/55/23 29/43/23 
f 5/55/23 2/57/23 1/44/23 29/43/23 
f 35/58/23 33/41/23 1/44/23 
s 2147483648
f 4/4/24 3/3/25 37/59/25 38/60/24 
f 3/3/25 6/6/26 39/61/26 37/59/25 
f 6/6/26 8/8/27 40/62/27 39/61/26 
f 8/8/27 10/10/28 41/63/28 40/62/27 
f 10/10/28 12/12/29 42/64/29 41/63/28 
f 12/12/29 14/14/30 43/65/30 42/64/29 
f 14/18/30 16/17/31 44/66/31 43/67/30 
f 16/17/31 18/20/32 45/68/32 44/66/31 
f 18/20/32 20/22/33 46/69/33 45/68/32 
f 20/22/33 22/24/34 47/70/34 46/69/33 
f 22/24/34 24/26/35 48/71/35 47/70/34 
f 24/26/35 26/28/36 49/72/36 48/71/35 
f 26/28/36 28/30/37 50/73/37 49/72/36 
f 28/30/37 30/32/38 51/74/38 50/73/37 
f 30/32/38 32/34/39 52/75/39 51/74/38 
f 32/38/39 34/37/40 53/76/40 52/77/39 
f 34/37/40 36/40/41 54/78/41 53/76/40 
f 36/40/41 4/4/24 38/60/24 54/78/41 
s off
f 38/60/42 37/59/42 55/79/42 56/80/42 
f 37/59/42 39/61/42 57/81/42 55/79/42 
f 39/61/42 40/62/42 58/82/42 57/81/42 
f 40/62/42 41/63/42 59/83/42 58/82/42 
f 41/63/43 42/64/43 60/84/43 59/83/43 
f 42/64/43 43/65/43 61/85/43 60/84/43 
f 43/67/43 44/66/43 62/86/43 61/87/43 
f 44/66/43 45/68/43 63/88/43 62/86/43 
f 45/68/43 46/69/43 64/89/43 63/88/43 
f 46/69/44 47/70/44 65/90/44 64/89/44 
f 47/70/44 48/71/44 66/91/44 65/90/44 
f 48/71/44 49/72/44 67/92/44 66/91/44 
f 49/72/44 50/73/44 68/93/44 67/92/44 
f 50/73/44 51/74/44 69/94/44 68/93/44 
f 51/74/45 52/75/45 70/95/45 69/94/45 
f 52/77/45 53/76/45 71/96/45 70/97/45 
f 53/76/45 54/78/45 72/98/45 71/96/45 
f 54/78/45 38/60/45 56/80/45 72/98/45 
s 536870912
f 73/99/46 74/100/47 75/101/48 76/102/49 
s off
f 77/103/50 78/104/50 79/105/50 80/106/50 
s 536870912
f 81/107/51 82/108/52 83/109/53 84/110/54 
s off
f 85/111/55 86/112/55 87/113/55 88/114/55 
s 536870912
f 89/115/56 90/116/57 91/117/58 92/118/59 
s off
f 93/119/60 94/120/60 95/121/60 96/122/60 
s 536870912
f 97/123/61 98/124/62 99/125/63 100/126/64 
s off
f 101/127/65 102/128/65 103/129/65 104/130/65 
s 536870912
f 105/131/66 106/132/67 107/133/68 108/134/69 
s off
f 109/135/70 110/136/70 111/137/70 112/138/70 
s 536870912
f 113/139/71 114/140/72 115/141/73 116/142/74 
s off
f 117/143/75 118/144/75 119/145/75 120/146/75 
s 536870912
f 121/147/76 122/148/77 123/149/78 124/150/79 
s off
f 125/151/80 126/152/80 127/153/80 128/154/80 
s 536870912
f 129/155/81 130/156/82 131/157/83 132/158/84 
s off
f 133/159/85 134/160/85 135/161/85 136/162/85 
s 536870912
f 137/163/86 138/164/87 139/165/88 140/166/89 
s off
f 141/167/90 142/168/90 143/169/90 144/170/90 
f 145/171/42 146/172/42 147/173/42 148/174/42 
f 147/173/42 149/175/42 150/176/42 151/177/42 
f 150/176/42 152/178/42 151/177/42 
f 151/177/42 153/179/42 154/180/42 155/181/42 
f 154/180/42 156/182/42 155/181/42 
f 155/181/42 157/183/42 158/184/42 159/185/42 
f 158/184/42 160/186/42 159/185/42 
f 151/177/42 155/181/42 159/185/42 147/173/42 
f 159/185/42 161/187/42 148/174/42 147/173/42 
f 162/188/42 145/171/42 148/174/42 
s 536870912
f 162/188/91 148/174/92 74/100/47 73/99/46 
f 56/189/92 55/190/91 76/102/49 75/101/48 
f 145/171/93 162/188/91 73/99/46 82/108/52 
f 55/190/91 57/191/93 83/109/53 76/102/49 
f 146/172/94 145/171/93 82/108/52 81/107/51 
f 57/191/93 58/192/94 84/110/54 83/109/53 
f 147/173/95 146/172/94 81/107/51 90/116/57 
f 58/192/94 59/193/95 91/117/58 84/110/54 
f 149/175/96 147/173/95 90/116/57 89/115/56 
f 59/193/95 60/194/96 92/118/59 91/117/58 
f 150/176/97 149/175/96 89/115/56 98/124/62 
f 60/194/96 61/195/97 99/125/63 92/118/59 
f 152/178/98 150/176/97 98/124/62 97/123/61 
f 61/195/97 62/196/98 100/126/64 99/125/63 
f 151/177/99 152/178/98 97/123/61 106/132/67 
f 62/196/98 63/197/99 107/133/68 100/126/64 
f 153/179/100 151/177/99 106/132/67 105/131/66 
f 63/197/99 64/198/101 108/134/69 107/133/68 
f 154/180/102 153/179/100 105/131/66 114/140/72 
f 64/198/101 65/199/102 115/141/73 108/134/69 
f 156/182/103 154/180/102 114/140/72 113/139/71 
f 65/199/102 66/200/103 116/142/74 115/141/73 
f 155/181/104 156/182/103 113/139/71 122/148/77 
f 66/200/103 67/201/104 123/149/78 116/142/74 
f 157/183/105 155/181/104 122/148/77 121/147/76 
f 67/201/104 68/202/105 124/150/79 123/149/78 
f 158/184/106 157/183/105 121/147/76 130/156/82 
f 68/202/105 69/203/106 131/157/83 124/150/79 
f 160/186/107 158/184/106 130/156/82 129/155/81 
f 69/203/106 70/204/107 132/158/84 131/157/83 
f 159/185/108 160/186/107 129/155/81 138/164/87 
f 70/204/107 71/205/108 139/165/88 132/158/84 
f 161/187/109 159/185/108 138/164/87 137/163/86 
f 71/205/108 72/206/109 140/166/89 139/165/88 
f 148/174/92 161/187/109 137/163/86 74/100/47 
f 72/206/109 56/189/92 75/101/48 140/166/89 
s off
f 73/207/110 76/208/110 79/105/110 78/104/110 
f 76/209/111 83/210/111 80/106/111 79/105/111 
f 83/211/112 82/212/112 77/103/112 80/106/112 
f 82/213/113 73/214/113 78/104/113 77/103/113 
f 81/215/114 84/216/114 87/113/114 86/112/114 
f 84/217/115 91/218/115 88/114/115 87/113/115 
f 91/219/116 90/220/116 85/111/116 88/114/116 
f 90/221/117 81/222/117 86/112/117 85/111/117 
f 89/223/118 92/224/118 95/121/118 94/120/118 
f 92/225/119 99/226/119 96/122/119 95/121/119 
f 99/227/120 98/228/120 93/119/120 96/122/120 
f 98/229/121 89/230/121 94/120/121 93/119/121 
f 97/231/122 100/232/122 103/129/122 102/128/122 
f 100/233/123 107/234/123 104/130/123 103/129/123 
f 107/235/124 106/236/124 101/127/124 104/130/124 
f 106/237/125 97/238/125 102/128/125 101/127/125 
f 105/239/126 108/240/126 111/137/126 110/136/126 
f 108/241/127 115/242/127 112/138/127 111/137/127 
f 115/243/128 114/244/128 109/135/128 112/138/128 
f 114/245/129 105/246/129 110/136/129 109/135/129 
f 113/247/130 116/248/130 119/145/130 118/144/130 
f 116/249/131 123/250/131 120/146/131 119/145/131 
f 123/251/132 122/252/132 117/143/132 120/146/132 
f 122/253/133 113/254/133 118/144/133 117/143/133 
f 121/255/134 124/256/134 127/153/134 126/152/134 
f 124/257/135 131/258/135 128/154/135 127/153/135 
f 131/259/136 130/260/136 125/151/136 128/154/136 
f 130/261/137 121/262/137 126/152/137 125/151/137 
f 129/263/138 132/264/138 135/161/138 134/160/138 
f 132/265/139 139/266/139 136/162/139 135/161/139 
f 139/267/140 138/268/140 133/159/140 136/162/140 
f 138/269/141 129/270/141 134/160/141 133/159/141 
f 75/271/142 74/272/142 141/167/142 144/170/142 
f 74/273/143 137/274/143 142/168/143 141/167/143 
f 137/275/144 140/276/144 143/169/144 142/168/144 
f 140/277/145 75/278/145 144/170/145 143/169/145 
# 156 polygons - 8 triangles

