# 3ds Max Wavefront OBJ Exporter v0.97b - (c)2007 guruware
# File Created: 24.06.2017 15:05:19

mtllib WoodenPlanks.mtl

#
# object Box003
#

v  -119.3979 0.0000 75.2953
v  -63.4604 0.7511 75.2953
v  -63.4604 0.7511 77.0671
v  -119.3979 0.0000 77.0671
v  -63.4604 9.6507 77.0671
v  -63.4604 9.6507 75.2953
v  -119.3979 10.4018 75.2953
v  -119.3979 10.4018 77.0671
v  -36.4065 0.0000 77.0671
v  -36.4065 0.0000 75.2953
v  -36.4065 10.4018 75.2953
v  -36.4065 10.4018 77.0671
# 12 vertices

vn 0.0167 -0.9999 -0.0000
vn -0.0089 -1.0000 -0.0000
vn -0.0089 1.0000 -0.0000
vn 0.0167 0.9999 -0.0000
vn 0.0000 0.0000 1.0000
vn 1.0000 0.0000 -0.0000
vn -0.0000 0.0000 -1.0000
vn -1.0000 0.0000 -0.0000
vn -0.0346 -0.9994 -0.0000
vn -0.0346 0.9994 -0.0000
vn 0.0000 0.0000 -1.0000
# 11 vertex normals

vt 0.8794 0.0322 0.0000
vt 0.3677 0.0365 0.0000
vt 0.3680 0.0169 0.0000
vt 0.8792 0.0125 0.0000
vt 0.5137 0.6039 0.0000
vt 0.5133 0.6236 0.0000
vt 0.0022 0.6279 0.0000
vt 0.0020 0.6083 0.0000
vt 0.5144 0.5024 0.0000
vt 0.0030 0.4897 0.0000
vt 0.1211 0.0068 0.0000
vt 0.1203 0.0264 0.0000
vt 0.0020 0.0216 0.0000
vt 0.0028 0.0020 0.0000
vt 0.3670 0.1380 0.0000
vt 0.1196 0.1450 0.0000
vt 0.9977 0.0115 0.0000
vt 0.9979 0.0312 0.0000
vt 0.7610 0.6140 0.0000
vt 0.7602 0.6336 0.0000
vt 0.7618 0.4954 0.0000
vt 0.8784 0.1508 0.0000
# 22 texture coords

g Box003
usemtl wire_228214153
s 2
f 1/1/1 2/2/2 3/3/2 4/4/1 
s 4
f 5/5/3 6/6/3 7/7/4 8/8/4 
s 8
f 3/9/5 5/5/5 8/8/5 4/10/5 
s 16
f 9/11/6 10/12/6 11/13/6 12/14/6 
s 32
f 2/2/7 6/15/7 11/16/7 10/12/7 
s 64
f 1/1/8 4/4/8 8/17/8 7/18/8 
s 2
f 10/12/9 9/11/9 3/3/2 2/2/2 
s 4
f 12/19/10 11/20/10 6/6/3 5/5/3 
s 8
f 9/21/5 12/19/5 5/5/5 3/9/5 
s 32
f 1/1/11 7/22/11 6/15/7 2/2/7 
# 10 polygons

#
# object Object010
#

v  -119.3979 41.8783 75.2953
v  -90.4210 42.4984 75.2953
v  -90.4210 42.4984 77.0671
v  -119.3979 41.8783 77.0671
v  -90.4210 51.6600 77.0671
v  -90.4210 51.6600 75.2953
v  -119.3979 52.2801 75.2953
v  -119.3979 52.2801 77.0671
v  -36.4065 41.8783 77.0671
v  -36.4065 41.8783 75.2953
v  -36.4065 52.2801 75.2953
v  -36.4065 52.2801 77.0671
# 12 vertices

vn 0.0267 -0.9996 -0.0000
vn 0.0062 -1.0000 -0.0000
vn 0.0062 1.0000 -0.0000
vn 0.0267 0.9996 -0.0000
vn 0.0000 0.0000 1.0000
vn 1.0000 0.0000 -0.0000
vn 0.0000 0.0000 -1.0000
vn -0.0000 0.0000 -1.0000
vn -1.0000 0.0000 -0.0000
vn -0.0143 -0.9999 -0.0000
vn -0.0143 0.9999 -0.0000
# 11 vertex normals

vt 0.8796 0.1915 0.0000
vt 0.6146 0.1997 0.0000
vt 0.6144 0.1800 0.0000
vt 0.8789 0.1718 0.0000
vt 0.2675 0.7654 0.0000
vt 0.2677 0.7851 0.0000
vt 0.0031 0.7932 0.0000
vt 0.0025 0.7736 0.0000
vt 0.2670 0.6609 0.0000
vt 0.0020 0.6550 0.0000
vt 0.1207 0.1758 0.0000
vt 0.1205 0.1955 0.0000
vt 0.0020 0.1945 0.0000
vt 0.0022 0.1748 0.0000
vt 0.6151 0.3042 0.0000
vt 0.1212 0.3141 0.0000
vt 0.9973 0.1682 0.0000
vt 0.9979 0.1878 0.0000
vt 0.7615 0.7696 0.0000
vt 0.7613 0.7893 0.0000
vt 0.7608 0.6510 0.0000
vt 0.8801 0.3101 0.0000
# 22 texture coords

g Object010
usemtl wire_228214153
s 2
f 13/23/12 14/24/13 15/25/13 16/26/12 
s 4
f 17/27/14 18/28/14 19/29/15 20/30/15 
s 8
f 15/31/16 17/27/16 20/30/16 16/32/16 
s 16
f 21/33/17 22/34/17 23/35/17 24/36/17 
s 32
f 14/24/18 18/37/18 23/38/19 22/34/19 
s 64
f 13/23/20 16/26/20 20/39/20 19/40/20 
s 2
f 22/34/21 21/33/21 15/25/13 14/24/13 
s 4
f 24/41/22 23/42/22 18/28/14 17/27/14 
s 8
f 21/43/16 24/41/16 17/27/16 15/31/16 
s 32
f 13/23/18 19/44/18 18/37/18 14/24/18 
# 10 polygons

#
# object Object012
#

v  -119.3979 23.2002 75.2953
v  -78.4106 23.8800 75.2953
v  -78.4106 23.8800 77.0671
v  -119.3979 23.2002 77.0671
v  -78.4106 32.9222 77.0671
v  -78.4106 32.9222 75.2953
v  -119.3979 33.6020 75.2953
v  -119.3979 33.6020 77.0671
v  -36.4065 23.2002 77.0671
v  -36.4065 23.2002 75.2953
v  -36.4065 33.6020 75.2953
v  -36.4065 33.6020 77.0671
# 12 vertices

vn 0.0207 -0.9998 -0.0000
vn 0.0003 -1.0000 -0.0000
vn 0.0003 1.0000 -0.0000
vn 0.0207 0.9998 -0.0000
vn 0.0000 0.0000 1.0000
vn 1.0000 0.0000 -0.0000
vn -0.0000 0.0000 -1.0000
vn -1.0000 0.0000 -0.0000
vn -0.0202 -0.9998 -0.0000
vn -0.0202 0.9998 -0.0000
vn 0.0000 0.0000 -1.0000
# 11 vertex normals

vt 0.8795 0.3535 0.0000
vt 0.5047 0.3610 0.0000
vt 0.5046 0.3414 0.0000
vt 0.8791 0.3338 0.0000
vt 0.3769 0.9219 0.0000
vt 0.3769 0.9415 0.0000
vt 0.0024 0.9491 0.0000
vt 0.0020 0.9294 0.0000
vt 0.3768 0.8187 0.0000
vt 0.0021 0.8108 0.0000
vt 0.1209 0.3340 0.0000
vt 0.1205 0.3537 0.0000
vt 0.0020 0.3514 0.0000
vt 0.0024 0.3317 0.0000
vt 0.5047 0.4642 0.0000
vt 0.1206 0.4723 0.0000
vt 0.9976 0.3315 0.0000
vt 0.9980 0.3511 0.0000
vt 0.7610 0.9292 0.0000
vt 0.7606 0.9489 0.0000
vt 0.7609 0.8106 0.0000
vt 0.8795 0.4721 0.0000
# 22 texture coords

g Object012
usemtl wire_228214153
s 2
f 25/45/23 26/46/24 27/47/24 28/48/23 
s 4
f 29/49/25 30/50/25 31/51/26 32/52/26 
s 8
f 27/53/27 29/49/27 32/52/27 28/54/27 
s 16
f 33/55/28 34/56/28 35/57/28 36/58/28 
s 32
f 26/46/29 30/59/29 35/60/29 34/56/29 
s 64
f 25/45/30 28/48/30 32/61/30 31/62/30 
s 2
f 34/56/31 33/55/31 27/47/24 26/46/24 
s 4
f 36/63/32 35/64/32 30/50/25 29/49/25 
s 8
f 33/65/27 36/63/27 29/49/27 27/53/27 
s 32
f 25/45/33 31/66/33 30/59/29 26/46/29 
# 10 polygons

