# 3ds Max Wavefront OBJ Exporter v0.97b - (c)2007 guruware
# File Created: 20.10.2016 21:00:06

#
# object Box019
#

v  -263.968018 0.022705 -14.195534
v  263.968018 0.022705 -14.195534
v  -263.968018 331.201050 -14.195518
v  263.968018 331.201050 -14.195518
v  -247.112717 18.477005 4.195518
v  247.112717 18.477005 4.195518
v  247.112717 312.746765 4.195534
v  -247.112717 312.746765 4.195534
v  -263.968018 0.022705 14.195518
v  263.968018 0.022705 14.195518
v  263.968018 331.201050 14.195534
v  -263.968018 331.201050 14.195534
v  247.112717 18.477005 14.195518
v  -247.112717 18.477005 14.195518
v  -247.112717 312.746765 14.195534
v  247.112717 312.746765 14.195534
# 16 vertices

vn 0.000000 0.000000 -1.000000
vn 0.000000 -0.000000 1.000000
vn 0.000000 -1.000000 -0.000000
vn 1.000000 0.000000 -0.000000
vn 0.000000 1.000000 0.000000
vn -1.000000 0.000000 -0.000000
# 6 vertex normals

vt 0.559226 0.387487 0.000000
vt 0.559226 0.706751 0.000000
vt 0.002000 0.706751 0.000000
vt 0.002000 0.387487 0.000000
vt 0.002000 0.714316 0.000000
vt 0.523645 0.714316 0.000000
vt 0.523645 0.998000 0.000000
vt 0.002000 0.998000 0.000000
vt 0.626589 0.350483 0.000000
vt 0.029282 0.350483 0.000000
vt 0.047799 0.331997 0.000000
vt 0.608071 0.331997 0.000000
vt 0.029282 0.031428 0.000000
vt 0.047799 0.049917 0.000000
vt 0.626589 0.031428 0.000000
vt 0.608071 0.049917 0.000000
vt 0.626589 0.379768 0.000000
vt 0.029282 0.379922 0.000000
vt 0.002000 0.350483 0.000000
vt 0.002000 0.031428 0.000000
vt 0.029282 0.002138 0.000000
vt 0.626589 0.002000 0.000000
vt 0.653869 0.031428 0.000000
vt 0.653869 0.350483 0.000000
vt 0.052533 0.326785 0.000000
vt 0.603338 0.326785 0.000000
vt 0.603338 0.055128 0.000000
vt 0.052533 0.055128 0.000000
# 28 texture coords

g Box019
s 2
f -16/-28/-6 -14/-27/-6 -13/-26/-6 -15/-25/-6 
s 4
f -12/-24/-5 -11/-23/-5 -10/-22/-5 -9/-21/-5 
s off
f -8/-20/-5 -7/-19/-5 -4/-18/-5 -3/-17/-5 
f -7/-19/-5 -6/-16/-5 -1/-15/-5 -4/-18/-5 
f -6/-16/-5 -5/-14/-5 -2/-13/-5 -1/-15/-5 
f -5/-14/-5 -8/-20/-5 -3/-17/-5 -2/-13/-5 
s 8
f -16/-12/-4 -15/-11/-4 -7/-19/-4 -8/-20/-4 
s 16
f -15/-10/-3 -13/-9/-3 -6/-16/-3 -7/-19/-3 
s 32
f -13/-8/-2 -14/-7/-2 -5/-14/-2 -6/-16/-2 
s 64
f -14/-6/-1 -16/-5/-1 -8/-20/-1 -5/-14/-1 
s off
f -11/-4/-2 -12/-3/-2 -3/-17/-2 -4/-18/-2 
f -12/-3/-3 -9/-2/-3 -2/-13/-3 -3/-17/-3 
f -9/-2/-4 -10/-1/-4 -1/-15/-4 -2/-13/-4 
f -10/-1/-1 -11/-4/-1 -4/-18/-1 -1/-15/-1 
# 14 polygons

