# 3ds Max Wavefront OBJ Exporter v0.97b - (c)2007 guruware
# File Created: 16.06.2017 08:15:34

mtllib Brick.mtl

#
# object Box001
#

v  -171.4443 0.0000 37.0195
v  -171.4443 0.0000 -3.2332
v  -89.4813 0.0000 -3.2332
v  -89.4813 0.0000 37.0195
v  -171.4443 26.6908 37.0195
v  -89.4813 26.6908 37.0195
v  -89.4813 26.6908 -3.2332
v  -171.4443 26.6908 -3.2332
v  -171.4443 1.3566 38.3762
v  -89.4813 1.3566 38.3762
v  -89.4813 25.3342 38.3762
v  -171.4443 25.3342 38.3762
v  -88.1247 1.3566 37.0195
v  -88.1247 1.3566 -3.2332
v  -88.1247 25.3342 -3.2332
v  -88.1247 25.3342 37.0195
v  -89.4813 1.3566 -4.5898
v  -171.4443 1.3566 -4.5898
v  -171.4443 25.3342 -4.5898
v  -89.4813 25.3342 -4.5898
v  -172.8010 1.3566 -3.2332
v  -172.8010 1.3566 37.0195
v  -172.8010 25.3342 37.0195
v  -172.8010 25.3342 -3.2332
# 24 vertices

vn 0.0000 -1.0000 -0.0000
vn 0.0000 1.0000 -0.0000
vn -0.3416 -0.3416 0.8756
vn 0.3416 -0.3416 0.8756
vn 0.3416 0.3416 0.8756
vn -0.3416 0.3416 0.8756
vn 0.8756 -0.3416 0.3416
vn 0.8756 -0.3416 -0.3416
vn 0.8756 0.3416 -0.3416
vn 0.8756 0.3416 0.3416
vn 0.3416 -0.3416 -0.8756
vn -0.3416 -0.3416 -0.8756
vn -0.3416 0.3416 -0.8756
vn 0.3416 0.3416 -0.8756
vn -0.8756 -0.3416 -0.3416
vn -0.8756 -0.3416 0.3416
vn -0.8756 0.3416 0.3416
vn -0.8756 0.3416 -0.3416
vn -0.4606 -0.7588 0.4606
vn 0.4606 -0.7588 0.4606
vn -0.4606 -0.7588 -0.4606
vn 0.4606 -0.7588 -0.4606
vn -0.4606 0.7588 0.4606
vn 0.4606 0.7588 0.4606
vn -0.4606 0.7588 -0.4606
vn 0.4606 0.7588 -0.4606
# 26 vertex normals

vt 0.7994 0.0020 0.0000
vt 0.7994 0.2961 0.0000
vt 0.2005 0.2961 0.0000
vt 0.2005 0.0020 0.0000
vt 0.7996 0.7933 0.0000
vt 0.2004 0.7933 0.0000
vt 0.2005 0.4994 0.0000
vt 0.7994 0.4994 0.0000
vt 0.7996 0.9825 0.0000
vt 0.2004 0.9825 0.0000
vt 0.2004 0.8073 0.0000
vt 0.7996 0.8073 0.0000
vt 0.0153 0.7906 0.0000
vt 0.0154 0.5019 0.0000
vt 0.1873 0.5018 0.0000
vt 0.1872 0.7908 0.0000
vt 0.2005 0.3101 0.0000
vt 0.7994 0.3101 0.0000
vt 0.7994 0.4853 0.0000
vt 0.2005 0.4853 0.0000
vt 0.9846 0.5019 0.0000
vt 0.9847 0.7906 0.0000
vt 0.8128 0.7908 0.0000
vt 0.8127 0.5018 0.0000
vt 0.9870 0.8039 0.0000
vt 0.9980 0.7929 0.0000
vt 0.0020 0.7929 0.0000
vt 0.0130 0.8039 0.0000
vt 0.9869 0.4886 0.0000
vt 0.9979 0.4996 0.0000
vt 0.0021 0.4996 0.0000
vt 0.0131 0.4886 0.0000
vt 0.8106 0.8041 0.0000
vt 0.1894 0.8041 0.0000
vt 0.8105 0.4885 0.0000
vt 0.1895 0.4885 0.0000
vt 0.2004 0.9966 0.0000
vt 0.7996 0.9966 0.0000
# 38 texture coords

g Box001
usemtl wire_086086086
s 1
f 1/1/1 2/2/1 3/3/1 4/4/1 
f 5/5/2 6/6/2 7/7/2 8/8/2 
s 2
f 9/9/3 10/10/4 11/11/5 12/12/6 
f 13/13/7 14/14/8 15/15/9 16/16/10 
f 17/17/11 18/18/12 19/19/13 20/20/14 
f 21/21/15 22/22/16 23/23/17 24/24/18 
f 9/25/3 22/22/16 1/26/19 
f 4/27/20 13/13/7 10/28/4 
f 21/21/15 18/29/12 2/30/21 
f 3/31/22 17/32/11 14/14/8 
f 12/33/6 5/5/23 23/23/17 
f 16/16/10 6/6/24 11/34/5 
f 24/24/18 8/8/25 19/35/13 
f 20/36/14 7/7/26 15/15/9 
f 1/26/19 22/22/16 21/21/15 2/30/21 
f 2/2/21 18/18/12 17/17/11 3/3/22 
f 3/31/22 14/14/8 13/13/7 4/27/20 
f 4/37/20 10/10/4 9/9/3 1/38/19 
f 5/5/23 12/12/6 11/11/5 6/6/24 
f 6/6/24 16/16/10 15/15/9 7/7/26 
f 7/7/26 20/20/14 19/19/13 8/8/25 
f 8/8/25 24/24/18 23/23/17 5/5/23 
f 10/28/4 13/13/7 16/16/10 11/34/5 
f 12/33/6 23/23/17 22/22/16 9/25/3 
f 14/14/8 17/32/11 20/36/14 15/15/9 
f 18/29/12 21/21/15 24/24/18 19/35/13 
# 18 polygons - 8 triangles

