# 3ds Max Wavefront OBJ Exporter v0.97b - (c)2007 guruware
# File Created: 14.01.2017 00:38:06

mtllib TestThing.mtl

#
# object Box001
#

v  12.5435 0.0000 5.5167
v  12.5435 0.0000 4.5167
v  13.5435 0.0000 4.5167
v  13.5435 0.0000 5.5167
v  12.5435 2.0000 5.5167
v  13.5435 2.0000 5.5167
v  13.5435 2.0000 4.5167
v  12.5435 2.0000 4.5167
# 8 vertices

vn 0.0000 -1.0000 -0.0000
vn 0.0000 1.0000 -0.0000
vn 0.0000 0.0000 1.0000
vn 1.0000 0.0000 -0.0000
vn 0.0000 0.0000 -1.0000
vn -1.0000 0.0000 -0.0000
# 6 vertex normals

vt 0.5000 0.5000 0.0000
vt 0.5000 0.3340 0.0000
vt 0.6660 0.3340 0.0000
vt 0.6660 0.5000 0.0000
vt 0.1680 0.5000 0.0000
vt 0.0020 0.5000 0.0000
vt 0.0020 0.3340 0.0000
vt 0.1680 0.3340 0.0000
vt 0.6660 0.8320 0.0000
vt 0.5000 0.8320 0.0000
vt 0.9980 0.3340 0.0000
vt 0.9980 0.5000 0.0000
vt 0.5000 0.0020 0.0000
vt 0.6660 0.0020 0.0000
# 14 texture coords

g Box001
usemtl wire_087225087
s 2
f 1/1/1 2/2/1 3/3/1 4/4/1 
s 4
f 5/5/2 6/6/2 7/7/2 8/8/2 
s 8
f 1/1/3 4/4/3 6/9/3 5/10/3 
s 16
f 4/4/4 3/3/4 7/11/4 6/12/4 
s 32
f 3/3/5 2/2/5 8/13/5 7/14/5 
s 64
f 2/2/6 1/1/6 5/5/6 8/8/6 
# 6 polygons

