# 3ds Max Wavefront OBJ Exporter v0.97b - (c)2007 guruware
# File Created: 23.02.2017 21:37:51

mtllib DrawerKitchen.mtl

#
# object apartment_living_kitchen_kitchen_kitchen_counter_draw_4_kitchen_counter_draw_pCube4
#

v  -39.2405 1.9741 34.5863
v  -39.2405 1.9741 34.6535
v  -39.2405 2.0049 34.6535
v  -39.2405 2.0049 34.5863
v  -39.2105 2.4894 34.6535
v  -39.1605 2.4894 34.6535
v  -39.1605 2.4894 34.5863
v  -39.2105 2.4894 34.5863
v  -39.1605 2.0184 34.6535
v  -39.1605 1.9605 34.6535
v  -39.1605 1.9605 34.5863
v  -39.1605 2.0184 34.5863
v  -39.2105 1.9605 34.5863
v  -39.2105 1.9605 34.6535
v  -39.2105 2.0184 34.6535
v  -39.1605 1.9605 32.0323
v  -39.2105 1.9605 32.0323
v  -39.2105 2.0184 32.0323
v  -39.1605 2.0184 32.0323
v  -39.1605 2.4315 32.0323
v  -39.2105 2.4315 32.0323
v  -39.2105 2.4894 32.0323
v  -39.1605 2.4894 32.0323
v  -39.1605 2.4315 34.6535
v  -39.1605 2.4315 34.5863
v  -39.2105 2.4315 34.6535
v  -39.2405 2.4759 34.5863
v  -39.2405 2.4450 34.5863
v  -39.2405 2.4450 34.6535
v  -39.2405 2.4759 34.6535
v  -39.2105 2.0184 34.5863
v  -39.2105 2.4315 34.5863
v  -39.2405 1.9741 32.0323
v  -39.2405 2.0049 32.0323
v  -39.2405 2.4450 32.0323
v  -39.2405 2.4759 32.0323
v  -39.2105 2.0184 32.0994
v  -39.2105 2.4315 32.0994
v  -39.2405 2.0049 32.0994
v  -39.2405 1.9741 32.0994
v  -39.2105 1.9605 32.0994
v  -39.1605 1.9605 32.0994
v  -39.1605 2.0184 32.0994
v  -39.1605 2.4315 32.0994
v  -39.1605 2.4894 32.0994
v  -39.2105 2.4894 32.0994
v  -39.2405 2.4759 32.0994
v  -39.2405 2.4450 32.0994
v  -36.9285 1.9605 34.5863
v  -36.9285 1.9605 32.0994
v  -36.9285 2.0184 32.0994
v  -36.9285 2.0184 34.5863
v  -36.9285 2.4315 32.0994
v  -36.9285 2.4315 34.5863
v  -36.9785 2.0065 34.5364
v  -36.9785 2.0065 32.1494
v  -39.1105 2.0065 32.1494
v  -39.1105 2.0065 34.5364
v  -39.1105 2.4315 32.1494
v  -39.1105 2.4315 34.5364
v  -36.9785 2.4315 34.5364
v  -36.9785 2.4315 32.1494
v  -39.2738 2.2424 33.9489
v  -39.2696 2.2282 33.9530
v  -39.1964 2.2282 33.9530
v  -39.1963 2.2424 33.9489
v  -39.2738 2.2424 34.2488
v  -39.2696 2.2282 34.2447
v  -39.1963 2.2424 34.2488
v  -39.1964 2.2282 34.2447
v  -39.2838 2.2482 33.9389
v  -39.1960 2.2482 33.9389
v  -39.2838 2.2482 34.2588
v  -39.1960 2.2482 34.2588
v  -39.2938 2.2424 33.9289
v  -39.1957 2.2424 33.9289
v  -39.2938 2.2424 34.2688
v  -39.1957 2.2424 34.2688
v  -39.2979 2.2282 33.9247
v  -39.1956 2.2282 33.9247
v  -39.2979 2.2282 34.2730
v  -39.1956 2.2282 34.2730
v  -39.2938 2.2141 33.9289
v  -39.1957 2.2141 33.9289
v  -39.2938 2.2141 34.2688
v  -39.1957 2.2141 34.2688
v  -39.1960 2.2082 33.9389
v  -39.2838 2.2082 33.9389
v  -39.2838 2.2082 34.2588
v  -39.1960 2.2082 34.2588
v  -39.1963 2.2141 33.9489
v  -39.2738 2.2141 33.9489
v  -39.2738 2.2141 34.2488
v  -39.1963 2.2141 34.2488
v  -39.2738 2.2424 32.4501
v  -39.2696 2.2282 32.4542
v  -39.1964 2.2282 32.4542
v  -39.1963 2.2424 32.4501
v  -39.2738 2.2424 32.7500
v  -39.2696 2.2282 32.7459
v  -39.1963 2.2424 32.7500
v  -39.1964 2.2282 32.7459
v  -39.2838 2.2482 32.4401
v  -39.1960 2.2482 32.4401
v  -39.2838 2.2482 32.7600
v  -39.1960 2.2482 32.7600
v  -39.2938 2.2424 32.4301
v  -39.1957 2.2424 32.4301
v  -39.2938 2.2424 32.7700
v  -39.1957 2.2424 32.7700
v  -39.2979 2.2282 32.4259
v  -39.1956 2.2282 32.4259
v  -39.2979 2.2282 32.7742
v  -39.1956 2.2282 32.7742
v  -39.2938 2.2141 32.4301
v  -39.1957 2.2141 32.4301
v  -39.2938 2.2141 32.7700
v  -39.1957 2.2141 32.7700
v  -39.1960 2.2082 32.4401
v  -39.2838 2.2082 32.4401
v  -39.2838 2.2082 32.7600
v  -39.1960 2.2082 32.7600
v  -39.1963 2.2141 32.4501
v  -39.2738 2.2141 32.4501
v  -39.2738 2.2141 32.7500
v  -39.1963 2.2141 32.7500
# 126 vertices

vn -0.8403 -0.5422 -0.0000
vn -0.8402 -0.5422 0.0000
vn -0.8403 0.5422 -0.0000
vn -0.2108 0.9775 -0.0000
vn 0.0000 1.0000 -0.0000
vn 1.0000 0.0000 -0.0000
vn 0.0000 -1.0000 0.0000
vn 0.0000 0.0000 1.0000
vn 0.0000 0.0000 -1.0000
vn -1.0000 0.0000 -0.0000
vn -0.4120 -0.9112 0.0000
vn -0.4121 0.9112 -0.0000
vn -0.4121 -0.9112 -0.0000
vn -0.8402 -0.5422 -0.0000
vn -0.4120 -0.9112 -0.0000
vn 0.0000 -1.0000 -0.0000
vn 0.4156 0.8090 0.4156
vn 0.7071 -0.0000 0.7071
vn 0.0000 0.6186 0.7857
vn 0.4156 0.8090 -0.4156
vn 0.7071 -0.0000 -0.7071
vn 0.0000 0.6186 -0.7857
vn -0.1305 0.9828 -0.1305
vn 0.0000 1.0000 -0.0090
vn -0.1305 0.9828 0.1305
vn 0.0000 1.0000 0.0089
vn -0.5500 0.6285 -0.5500
vn 0.0000 0.6122 -0.7907
vn -0.5500 0.6285 0.5500
vn 0.0000 0.6122 0.7907
vn -0.7071 0.0000 -0.7071
vn 0.0000 -0.0000 -1.0000
vn -0.7071 0.0000 0.7071
vn 0.0000 -0.0000 1.0000
vn -0.5500 -0.6285 -0.5500
vn 0.0000 -0.6122 -0.7907
vn -0.5500 -0.6285 0.5500
vn 0.0000 -0.6122 0.7907
vn 0.0000 -1.0000 -0.0090
vn -0.1305 -0.9828 -0.1305
vn -0.1305 -0.9828 0.1305
vn 0.0000 -1.0000 0.0089
vn 0.0000 -0.6186 0.7857
vn 0.4156 -0.8090 0.4156
vn 0.4156 -0.8090 -0.4156
vn 0.0000 -0.6186 -0.7857
vn 0.7071 0.0000 0.7071
vn 0.7071 0.0000 -0.7071
vn 0.0000 1.0000 0.0090
vn -0.7071 -0.0000 0.7071
vn 0.0000 -1.0000 0.0090
# 51 vertex normals

vt 0.9215 0.0107 0.0000
vt 0.9277 0.0096 0.0000
vt 0.9284 0.0117 0.0000
vt 0.9215 0.0124 0.0000
vt 0.5110 0.5685 0.0000
vt 0.5127 0.5759 0.0000
vt 0.5023 0.5769 0.0000
vt 0.5028 0.5684 0.0000
vt 0.0501 0.0105 0.0000
vt 0.0501 0.0020 0.0000
vt 0.0599 0.0020 0.0000
vt 0.0599 0.0105 0.0000
vt 0.9209 0.0090 0.0000
vt 0.9204 0.0022 0.0000
vt 0.9273 0.0020 0.0000
vt 0.9275 0.0072 0.0000
vt 0.0427 0.0020 0.0000
vt 0.0427 0.0105 0.0000
vt 0.0119 0.0020 0.0000
vt 0.0192 0.0020 0.0000
vt 0.0192 0.0105 0.0000
vt 0.0119 0.0105 0.0000
vt 0.0119 0.0713 0.0000
vt 0.0192 0.0713 0.0000
vt 0.0192 0.0799 0.0000
vt 0.0119 0.0799 0.0000
vt 0.5141 0.5858 0.0000
vt 0.5026 0.5874 0.0000
vt 0.0427 0.0799 0.0000
vt 0.0427 0.0713 0.0000
vt 0.0501 0.0713 0.0000
vt 0.0501 0.0799 0.0000
vt 0.5033 0.5667 0.0000
vt 0.5033 0.5655 0.0000
vt 0.5076 0.5634 0.0000
vt 0.5092 0.5653 0.0000
vt 0.0599 0.0713 0.0000
vt 0.9210 0.0145 0.0000
vt 0.9299 0.0149 0.0000
vt 0.9313 0.0793 0.0000
vt 0.9209 0.0795 0.0000
vt 0.0383 0.0085 0.0000
vt 0.0383 0.0040 0.0000
vt 0.0237 0.0040 0.0000
vt 0.0237 0.0085 0.0000
vt 0.5062 0.5617 0.0000
vt 0.5028 0.5645 0.0000
vt 0.0383 0.0779 0.0000
vt 0.0383 0.0733 0.0000
vt 0.0237 0.0733 0.0000
vt 0.0237 0.0779 0.0000
vt 0.5189 0.0149 0.0000
vt 0.5278 0.0145 0.0000
vt 0.5279 0.0795 0.0000
vt 0.5174 0.0793 0.0000
vt 0.5272 0.0124 0.0000
vt 0.5203 0.0117 0.0000
vt 0.5211 0.0096 0.0000
vt 0.5273 0.0107 0.0000
vt 0.5213 0.0072 0.0000
vt 0.5279 0.0090 0.0000
vt 0.5215 0.0020 0.0000
vt 0.5284 0.0022 0.0000
vt 0.0020 0.0105 0.0000
vt 0.0020 0.0020 0.0000
vt 0.0020 0.0713 0.0000
vt 0.0034 0.5759 0.0000
vt 0.0138 0.5769 0.0000
vt 0.0135 0.5874 0.0000
vt 0.0020 0.5858 0.0000
vt 0.0051 0.5685 0.0000
vt 0.0134 0.5684 0.0000
vt 0.0070 0.5653 0.0000
vt 0.0128 0.5668 0.0000
vt 0.0086 0.5633 0.0000
vt 0.0129 0.5655 0.0000
vt 0.0100 0.5617 0.0000
vt 0.0134 0.5646 0.0000
vt 0.1339 0.0020 0.0000
vt 0.5000 0.0020 0.0000
vt 0.5000 0.0105 0.0000
vt 0.1339 0.0105 0.0000
vt 0.5000 0.0713 0.0000
vt 0.1339 0.0713 0.0000
vt 0.0105 0.1339 0.0000
vt 0.0105 0.4625 0.0000
vt 0.0020 0.4625 0.0000
vt 0.0020 0.1339 0.0000
vt 0.6319 0.1339 0.0000
vt 0.9980 0.1339 0.0000
vt 0.9980 0.4625 0.0000
vt 0.6319 0.4625 0.0000
vt 0.6234 0.4625 0.0000
vt 0.6234 0.1339 0.0000
vt 0.1413 0.1413 0.0000
vt 0.4926 0.1413 0.0000
vt 0.4926 0.4551 0.0000
vt 0.1413 0.4551 0.0000
vt 0.0713 0.4625 0.0000
vt 0.0713 0.1339 0.0000
vt 0.5626 0.1339 0.0000
vt 0.5626 0.4625 0.0000
vt 0.3607 0.5397 0.0000
vt 0.3681 0.5470 0.0000
vt 0.0020 0.5470 0.0000
vt 0.0094 0.5397 0.0000
vt 0.0787 0.4551 0.0000
vt 0.0787 0.1413 0.0000
vt 0.1413 0.0787 0.0000
vt 0.4926 0.0787 0.0000
vt 0.5552 0.4551 0.0000
vt 0.5552 0.1413 0.0000
vt 0.3607 0.4771 0.0000
vt 0.0094 0.4771 0.0000
vt 0.9575 0.0471 0.0000
vt 0.9569 0.0492 0.0000
vt 0.9461 0.0492 0.0000
vt 0.9461 0.0471 0.0000
vt 0.5651 0.1075 0.0000
vt 0.5645 0.1096 0.0000
vt 0.5216 0.1096 0.0000
vt 0.5210 0.1075 0.0000
vt 0.9625 0.0073 0.0000
vt 0.9645 0.0082 0.0000
vt 0.9602 0.0181 0.0000
vt 0.9580 0.0178 0.0000
vt 0.9590 0.0454 0.0000
vt 0.9460 0.0454 0.0000
vt 0.5666 0.1058 0.0000
vt 0.5195 0.1058 0.0000
vt 0.9558 0.0184 0.0000
vt 0.9610 0.0066 0.0000
vt 0.9604 0.0437 0.0000
vt 0.9460 0.0437 0.0000
vt 0.5180 0.1041 0.0000
vt 0.5681 0.1041 0.0000
vt 0.9594 0.0058 0.0000
vt 0.9537 0.0191 0.0000
vt 0.9610 0.0415 0.0000
vt 0.9460 0.0415 0.0000
vt 0.5687 0.1019 0.0000
vt 0.5174 0.1019 0.0000
vt 0.9514 0.0188 0.0000
vt 0.9574 0.0050 0.0000
vt 0.9604 0.0393 0.0000
vt 0.9460 0.0393 0.0000
vt 0.5180 0.0997 0.0000
vt 0.5681 0.0997 0.0000
vt 0.9497 0.0174 0.0000
vt 0.9554 0.0041 0.0000
vt 0.9460 0.0376 0.0000
vt 0.9590 0.0376 0.0000
vt 0.5666 0.0980 0.0000
vt 0.5195 0.0980 0.0000
vt 0.9487 0.0153 0.0000
vt 0.9538 0.0035 0.0000
vt 0.9461 0.0359 0.0000
vt 0.9575 0.0359 0.0000
vt 0.5210 0.0963 0.0000
vt 0.5651 0.0963 0.0000
vt 0.9523 0.0028 0.0000
vt 0.9477 0.0133 0.0000
vt 0.9569 0.0337 0.0000
vt 0.9461 0.0337 0.0000
vt 0.5216 0.0941 0.0000
vt 0.5645 0.0941 0.0000
vt 0.9460 0.0119 0.0000
vt 0.9503 0.0020 0.0000
vt 0.0135 0.1078 0.0000
vt 0.0129 0.1100 0.0000
vt 0.0021 0.1100 0.0000
vt 0.0021 0.1078 0.0000
vt 0.6310 0.1075 0.0000
vt 0.6304 0.1096 0.0000
vt 0.5875 0.1096 0.0000
vt 0.5869 0.1075 0.0000
vt 0.0895 0.0153 0.0000
vt 0.0895 0.0175 0.0000
vt 0.0787 0.0175 0.0000
vt 0.0781 0.0153 0.0000
vt 0.0150 0.1061 0.0000
vt 0.0021 0.1061 0.0000
vt 0.6325 0.1058 0.0000
vt 0.5854 0.1058 0.0000
vt 0.0767 0.0136 0.0000
vt 0.0896 0.0136 0.0000
vt 0.0165 0.1044 0.0000
vt 0.0020 0.1044 0.0000
vt 0.5839 0.1041 0.0000
vt 0.6340 0.1041 0.0000
vt 0.0896 0.0119 0.0000
vt 0.0752 0.0119 0.0000
vt 0.0171 0.1023 0.0000
vt 0.0020 0.1023 0.0000
vt 0.6346 0.1019 0.0000
vt 0.5833 0.1019 0.0000
vt 0.0746 0.0098 0.0000
vt 0.0896 0.0098 0.0000
vt 0.0165 0.1001 0.0000
vt 0.0020 0.1001 0.0000
vt 0.5839 0.0997 0.0000
vt 0.6340 0.0997 0.0000
vt 0.0752 0.0076 0.0000
vt 0.0896 0.0076 0.0000
vt 0.0021 0.0984 0.0000
vt 0.0150 0.0984 0.0000
vt 0.6325 0.0980 0.0000
vt 0.5854 0.0980 0.0000
vt 0.0767 0.0059 0.0000
vt 0.0896 0.0059 0.0000
vt 0.0021 0.0967 0.0000
vt 0.0135 0.0967 0.0000
vt 0.5869 0.0963 0.0000
vt 0.6310 0.0963 0.0000
vt 0.0895 0.0042 0.0000
vt 0.0781 0.0042 0.0000
vt 0.0129 0.0945 0.0000
vt 0.0021 0.0945 0.0000
vt 0.5875 0.0941 0.0000
vt 0.6304 0.0941 0.0000
vt 0.0787 0.0020 0.0000
vt 0.0895 0.0020 0.0000
# 222 texture coords

g apartment_living_kitchen_kitchen_kitchen_counter_draw_4_kitchen_counter_draw_pCube4
usemtl wire_224198087
s 1
f 1/1/1 2/2/2 3/3/3 4/4/3 
f 5/5/4 6/6/5 7/7/5 8/8/4 
s off
f 9/9/6 10/10/6 11/11/6 12/12/6 
f 13/13/7 11/14/7 10/15/7 14/16/7 
f 14/17/8 10/10/8 9/9/8 15/18/8 
f 16/19/9 17/20/9 18/21/9 19/22/9 
f 20/23/9 21/24/9 22/25/9 23/26/9 
f 24/27/6 25/28/6 7/7/6 6/6/6 
f 5/29/8 26/30/8 24/31/8 6/32/8 
s 1
f 27/33/3 28/34/1 29/35/1 30/36/3 
s off
f 20/23/9 19/22/9 18/21/9 21/24/9 
f 9/9/6 12/12/6 25/37/6 24/31/6 
f 26/30/8 15/18/8 9/9/8 24/31/8 
f 31/38/10 15/39/10 26/40/10 32/41/10 
s 1
f 13/13/11 14/16/11 2/2/2 1/1/1 
s off
f 3/42/8 2/43/8 14/17/8 15/18/8 
s 1
f 3/3/3 15/39/12 31/38/12 4/4/3 
s off
f 33/44/9 34/45/9 18/21/9 17/20/9 
s 1
f 26/46/13 29/35/1 28/34/1 32/47/13 
s off
f 5/29/8 30/48/8 29/49/8 26/30/8 
s 1
f 8/8/4 27/33/3 30/36/3 5/5/4 
s off
f 35/50/9 36/51/9 22/25/9 21/24/9 
f 18/52/10 37/53/10 38/54/10 21/55/10 
s 1
f 39/56/3 37/53/12 18/52/12 34/57/3 
f 34/57/3 33/58/14 40/59/1 39/56/3 
f 17/60/15 41/61/15 40/59/1 33/58/14 
s off
f 17/60/16 16/62/16 42/63/16 41/61/16 
f 16/19/6 19/22/6 43/64/6 42/65/6 
f 44/66/6 43/64/6 19/22/6 20/23/6 
f 23/67/6 45/68/6 44/69/6 20/70/6 
s 1
f 45/68/5 23/67/5 22/71/4 46/72/4 
f 36/73/3 47/74/3 46/72/4 22/71/4 
f 36/73/3 35/75/1 48/76/1 47/74/3 
f 21/77/13 38/78/13 48/76/1 35/75/1 
s off
f 37/53/10 31/38/10 32/41/10 38/54/10 
s 1
f 31/38/12 37/53/12 39/56/3 4/4/3 
f 4/4/3 39/56/3 40/59/1 1/1/1 
f 1/1/1 40/59/1 41/61/15 13/13/11 
s off
f 13/13/16 41/61/16 42/63/16 11/14/16 
f 49/79/6 50/80/6 51/81/6 52/82/6 
f 53/83/6 54/84/6 52/82/6 51/81/6 
f 44/69/6 45/68/6 7/7/6 25/28/6 
s 1
f 46/72/4 8/8/4 7/7/5 45/68/5 
f 47/74/3 27/33/3 8/8/4 46/72/4 
f 47/74/3 48/76/1 28/34/1 27/33/3 
f 48/76/1 38/78/13 32/47/13 28/34/1 
s off
f 52/85/8 12/86/8 11/87/8 49/88/8 
f 50/89/16 49/90/16 11/91/16 42/92/16 
f 42/92/9 43/93/9 51/94/9 50/89/9 
f 55/95/5 56/96/5 57/97/5 58/98/5 
f 25/99/8 12/86/8 52/85/8 54/100/8 
f 53/101/9 51/94/9 43/93/9 44/102/9 
f 59/103/5 44/104/5 25/105/5 60/106/5 
f 60/107/5 25/99/5 54/100/5 61/108/5 
f 61/109/5 54/84/5 53/83/5 62/110/5 
f 44/102/5 59/111/5 62/112/5 53/101/5 
f 57/113/6 59/103/6 60/106/6 58/114/6 
f 60/107/9 61/108/9 55/95/9 58/98/9 
f 56/96/10 55/95/10 61/109/10 62/110/10 
f 62/112/8 59/111/8 57/97/8 56/96/8 
s 1
f 63/115/17 64/116/18 65/117/8 66/118/19 
f 67/119/20 68/120/21 64/121/18 63/122/17 
f 69/123/22 70/124/9 68/125/21 67/126/20 
f 71/127/23 63/115/17 66/118/19 72/128/24 
f 73/129/25 67/119/20 63/122/17 71/130/23 
f 73/131/25 74/132/26 69/123/22 67/126/20 
f 75/133/27 71/127/23 72/128/24 76/134/28 
f 73/129/25 71/130/23 75/135/27 77/136/29 
f 78/137/30 74/132/26 73/131/25 77/138/29 
f 79/139/31 75/133/27 76/134/28 80/140/32 
f 81/141/33 77/136/29 75/135/27 79/142/31 
f 77/138/29 81/143/33 82/144/34 78/137/30 
f 83/145/35 79/139/31 80/140/32 84/146/36 
f 81/141/33 79/142/31 83/147/35 85/148/37 
f 85/149/37 86/150/38 82/144/34 81/143/33 
f 83/145/35 84/146/36 87/151/39 88/152/40 
f 89/153/41 85/148/37 83/147/35 88/154/40 
f 86/150/38 85/149/37 89/155/41 90/156/42 
f 87/151/39 91/157/43 92/158/44 88/152/40 
f 89/153/41 88/154/40 92/159/44 93/160/45 
f 94/161/46 90/156/42 89/155/41 93/162/45 
f 64/163/18 92/158/44 91/157/43 65/164/8 
f 92/159/44 64/165/18 68/166/21 93/160/45 
f 94/161/46 93/162/45 68/167/21 70/168/9 
f 95/169/17 96/170/47 97/171/8 98/172/19 
f 99/173/20 100/174/48 96/175/47 95/176/17 
f 101/177/22 102/178/9 100/179/48 99/180/20 
f 103/181/23 95/169/17 98/172/19 104/182/24 
f 105/183/25 99/173/20 95/176/17 103/184/23 
f 105/185/25 106/186/49 101/177/22 99/180/20 
f 107/187/27 103/181/23 104/182/24 108/188/28 
f 105/183/25 103/184/23 107/189/27 109/190/29 
f 110/191/30 106/186/49 105/185/25 109/192/29 
f 111/193/31 107/187/27 108/188/28 112/194/9 
f 113/195/50 109/190/29 107/189/27 111/196/31 
f 109/192/29 113/197/50 114/198/34 110/191/30 
f 115/199/35 111/193/31 112/194/9 116/200/36 
f 113/195/50 111/196/31 115/201/35 117/202/37 
f 117/203/37 118/204/38 114/198/34 113/197/50 
f 115/199/35 116/200/36 119/205/39 120/206/40 
f 121/207/41 117/202/37 115/201/35 120/208/40 
f 118/204/38 117/203/37 121/209/41 122/210/51 
f 119/205/39 123/211/43 124/212/44 120/206/40 
f 121/207/41 120/208/40 124/213/44 125/214/45 
f 126/215/46 122/210/51 121/209/41 125/216/45 
f 96/217/47 124/212/44 123/211/43 97/218/8 
f 124/213/44 96/219/47 100/220/48 125/214/45 
f 126/215/46 125/216/45 100/221/48 102/222/9 
# 108 polygons

