# 3ds Max Wavefront OBJ Exporter v0.97b - (c)2007 guruware
# File Created: 23.02.2017 22:30:10

mtllib UpperCabinetDoor1_Right.mtl

#
# object apartment_living_kitchen_kitchen_kitchen_overhead_door_kitchen_overhead_door_5_pCube4
#

v  -50.8400 7.9794 37.0145
v  -50.8400 7.9486 37.0145
v  -50.8400 7.9486 38.9387
v  -50.8400 7.9794 38.9387
v  -50.7600 5.9924 38.9387
v  -50.8100 5.9924 38.9387
v  -50.8100 5.9924 37.0145
v  -50.7600 5.9924 37.0145
v  -50.7600 7.9930 38.9387
v  -50.7600 7.9350 38.9387
v  -50.7600 7.9350 37.0145
v  -50.7600 7.9930 37.0145
v  -50.8100 7.9930 37.0145
v  -50.8100 7.9930 38.9387
v  -50.8100 7.9350 37.0145
v  -50.8100 7.9350 38.9387
v  -50.7600 6.0503 38.9387
v  -50.8100 6.0503 38.9387
v  -50.7600 6.0503 37.0145
v  -50.8100 6.0503 37.0145
v  -50.8400 6.0368 38.9387
v  -50.8400 6.0368 37.0145
v  -50.8400 6.0060 37.0145
v  -50.8400 6.0060 38.9387
v  -50.7959 6.2032 37.2488
v  -50.8691 6.2032 37.2488
v  -50.8733 6.1891 37.2447
v  -50.7958 6.1891 37.2447
v  -50.8691 6.2032 37.5405
v  -50.8733 6.1891 37.5447
v  -50.7959 6.2032 37.5405
v  -50.7958 6.1891 37.5447
v  -50.8833 6.1832 37.2347
v  -50.7955 6.1832 37.2347
v  -50.8833 6.1832 37.5547
v  -50.7955 6.1832 37.5547
v  -50.8933 6.1891 37.2247
v  -50.7952 6.1891 37.2247
v  -50.8933 6.1891 37.5647
v  -50.7952 6.1891 37.5647
v  -50.8974 6.2032 37.2206
v  -50.7951 6.2032 37.2206
v  -50.8974 6.2032 37.5688
v  -50.7951 6.2032 37.5688
v  -50.8933 6.2174 37.2247
v  -50.7952 6.2174 37.2247
v  -50.8933 6.2174 37.5647
v  -50.7952 6.2174 37.5647
v  -50.7955 6.2232 37.2347
v  -50.8833 6.2232 37.2347
v  -50.8833 6.2232 37.5547
v  -50.7955 6.2232 37.5547
v  -50.8733 6.2174 37.2447
v  -50.7958 6.2174 37.2447
v  -50.8733 6.2174 37.5447
v  -50.7958 6.2174 37.5447
# 56 vertices

vn -0.8402 0.5422 -0.0000
vn -0.8403 -0.5422 -0.0000
vn 0.0000 -1.0000 -0.0000
vn -0.2108 -0.9775 -0.0000
vn 1.0000 0.0000 -0.0000
vn -0.2107 0.9775 -0.0000
vn 0.0000 1.0000 -0.0000
vn 0.0000 0.0000 -1.0000
vn 0.0000 0.0000 1.0000
vn -0.8403 0.5422 -0.0000
vn -1.0000 0.0000 -0.0000
vn -0.4121 -0.9112 -0.0000
vn -0.4120 0.9112 -0.0000
vn 0.0000 -0.6974 0.7166
vn 0.0000 -0.6186 0.7857
vn 0.7166 -0.6974 -0.0000
vn 0.0000 -0.6186 -0.7857
vn 0.0000 -0.6974 -0.7166
vn 0.0000 -0.9665 -0.2566
vn 0.0000 -1.0000 -0.0090
vn -0.2566 -0.9665 -0.0000
vn 0.0000 -0.9665 0.2566
vn 0.0000 -1.0000 0.0090
vn 0.0000 -0.4961 -0.8683
vn 0.0000 -0.6122 -0.7907
vn -0.8682 -0.4961 -0.0000
vn 0.0000 -0.6122 0.7907
vn 0.0000 -0.4961 0.8683
vn 0.0000 -0.0000 -1.0000
vn 0.0000 -0.0000 1.0000
vn 0.0000 0.4961 -0.8683
vn 0.0000 0.6122 -0.7907
vn -0.8682 0.4961 -0.0000
vn 0.0000 0.4961 0.8683
vn 0.0000 0.6122 0.7907
vn 0.0000 1.0000 -0.0090
vn 0.0000 0.9665 -0.2566
vn -0.2566 0.9665 -0.0000
vn 0.0000 1.0000 0.0090
vn 0.0000 0.9665 0.2566
vn 0.0000 0.6974 0.7166
vn 0.0000 0.6186 0.7857
vn 0.7166 0.6974 -0.0000
vn 0.0000 0.6186 -0.7857
vn 0.0000 0.6974 -0.7166
# 45 vertex normals

vt 0.0020 0.9786 0.0000
vt 0.0020 0.9714 0.0000
vt 0.4516 0.9714 0.0000
vt 0.4516 0.9786 0.0000
vt 0.4516 0.4891 0.0000
vt 0.4516 0.5008 0.0000
vt 0.0020 0.5008 0.0000
vt 0.0020 0.4891 0.0000
vt 0.0207 0.4695 0.0000
vt 0.0208 0.4560 0.0000
vt 0.4704 0.4618 0.0000
vt 0.4702 0.4753 0.0000
vt 0.0020 0.9863 0.0000
vt 0.4516 0.9863 0.0000
vt 0.4516 0.9980 0.0000
vt 0.0020 0.9980 0.0000
vt 0.4819 0.4755 0.0000
vt 0.4821 0.4619 0.0000
vt 0.0090 0.4694 0.0000
vt 0.0091 0.4559 0.0000
vt 0.0265 0.0157 0.0000
vt 0.0148 0.0155 0.0000
vt 0.0150 0.0020 0.0000
vt 0.0266 0.0021 0.0000
vt 0.4762 0.0079 0.0000
vt 0.4760 0.0215 0.0000
vt 0.4879 0.0081 0.0000
vt 0.4877 0.0216 0.0000
vt 0.4516 0.5157 0.0000
vt 0.0020 0.5157 0.0000
vt 0.0020 0.5085 0.0000
vt 0.4516 0.5085 0.0000
vt 0.0020 0.9637 0.0000
vt 0.0020 0.5234 0.0000
vt 0.4516 0.5234 0.0000
vt 0.4516 0.9637 0.0000
vt 0.4890 0.4652 0.0000
vt 0.4889 0.4724 0.0000
vt 0.0020 0.4661 0.0000
vt 0.0021 0.4589 0.0000
vt 0.4948 0.0113 0.0000
vt 0.4948 0.0185 0.0000
vt 0.0078 0.0123 0.0000
vt 0.0079 0.0051 0.0000
vt 0.5087 0.0402 0.0000
vt 0.5258 0.0402 0.0000
vt 0.5268 0.0437 0.0000
vt 0.5087 0.0437 0.0000
vt 0.5833 0.0266 0.0000
vt 0.5151 0.0266 0.0000
vt 0.5141 0.0232 0.0000
vt 0.5842 0.0232 0.0000
vt 0.4744 0.4891 0.0000
vt 0.4911 0.4928 0.0000
vt 0.4904 0.4962 0.0000
vt 0.4727 0.4923 0.0000
vt 0.5291 0.0464 0.0000
vt 0.5086 0.0464 0.0000
vt 0.5118 0.0205 0.0000
vt 0.5866 0.0205 0.0000
vt 0.4698 0.4944 0.0000
vt 0.4898 0.4989 0.0000
vt 0.5314 0.0491 0.0000
vt 0.5085 0.0491 0.0000
vt 0.5889 0.0177 0.0000
vt 0.5095 0.0177 0.0000
vt 0.4893 0.5015 0.0000
vt 0.4669 0.4965 0.0000
vt 0.5324 0.0526 0.0000
vt 0.5085 0.0526 0.0000
vt 0.5085 0.0143 0.0000
vt 0.5899 0.0143 0.0000
vt 0.4652 0.4997 0.0000
vt 0.4886 0.5049 0.0000
vt 0.5314 0.0560 0.0000
vt 0.5085 0.0560 0.0000
vt 0.5095 0.0109 0.0000
vt 0.5889 0.0109 0.0000
vt 0.4654 0.5032 0.0000
vt 0.4878 0.5082 0.0000
vt 0.5086 0.0587 0.0000
vt 0.5291 0.0587 0.0000
vt 0.5118 0.0082 0.0000
vt 0.5866 0.0082 0.0000
vt 0.4871 0.5109 0.0000
vt 0.4671 0.5064 0.0000
vt 0.5268 0.0614 0.0000
vt 0.5087 0.0614 0.0000
vt 0.5141 0.0054 0.0000
vt 0.5842 0.0054 0.0000
vt 0.4865 0.5135 0.0000
vt 0.4688 0.5095 0.0000
vt 0.5258 0.0649 0.0000
vt 0.5087 0.0649 0.0000
vt 0.5151 0.0020 0.0000
vt 0.5833 0.0020 0.0000
vt 0.4690 0.5131 0.0000
vt 0.4857 0.5169 0.0000
# 98 texture coords

g apartment_living_kitchen_kitchen_kitchen_overhead_door_kitchen_overhead_door_5_pCube4
usemtl wire_088177027
s 1
f 1/1/1 2/2/2 3/3/2 4/4/1 
f 5/5/3 6/6/4 7/7/4 8/8/3 
s off
f 9/9/5 10/10/5 11/11/5 12/12/5 
s 1
f 13/13/6 14/14/6 9/15/7 12/16/7 
s off
f 13/17/8 12/12/8 11/11/8 15/18/8 
f 9/9/9 14/19/9 16/20/9 10/10/9 
f 17/21/9 18/22/9 6/23/9 5/24/9 
f 8/25/5 19/26/5 17/21/5 5/24/5 
f 7/27/8 20/28/8 19/26/8 8/25/8 
s 1
f 21/29/10 22/30/10 23/31/2 24/32/2 
s off
f 17/21/9 10/10/9 16/20/9 18/22/9 
f 17/21/5 19/26/5 11/11/5 10/10/5 
f 20/28/8 15/18/8 11/11/8 19/26/8 
f 15/33/11 20/34/11 18/35/11 16/36/11 
s 1
f 4/4/1 14/14/6 13/13/6 1/1/1 
s off
f 2/37/8 1/38/8 13/17/8 15/18/8 
s 1
f 2/2/2 15/33/12 16/36/12 3/3/2 
s off
f 4/39/9 3/40/9 16/20/9 14/19/9 
s 1
f 20/34/13 22/30/10 21/29/10 18/35/13 
s off
f 7/27/8 23/41/8 22/42/8 20/28/8 
s 1
f 23/31/2 7/7/4 6/6/4 24/32/2 
s off
f 21/43/9 24/44/9 6/23/9 18/22/9 
s 2
f 25/45/9 26/46/9 27/47/14 28/48/15 
s 1
f 26/49/5 29/50/5 30/51/16 27/52/16 
s 2
f 29/53/8 31/54/8 32/55/17 30/56/18 
f 28/48/15 27/47/14 33/57/19 34/58/20 
s 1
f 27/52/16 30/51/16 35/59/21 33/60/21 
s 2
f 35/61/22 30/56/18 32/55/17 36/62/23 
f 34/58/20 33/57/19 37/63/24 38/64/25 
s 1
f 37/65/26 33/60/21 35/59/21 39/66/26 
s 2
f 35/61/22 36/62/23 40/67/27 39/68/28 
f 38/64/25 37/63/24 41/69/29 42/70/8 
s 1
f 37/65/26 39/66/26 43/71/11 41/72/11 
s 2
f 43/73/30 39/68/28 40/67/27 44/74/9 
f 42/70/8 41/69/29 45/75/31 46/76/32 
s 1
f 43/71/11 47/77/33 45/78/33 41/72/11 
s 2
f 47/79/34 43/73/30 44/74/9 48/80/35 
f 49/81/36 46/76/32 45/75/31 50/82/37 
s 1
f 45/78/33 47/77/33 51/83/38 50/84/38 
s 2
f 48/80/35 52/85/39 51/86/40 47/79/34 
f 50/82/37 53/87/41 54/88/42 49/81/36 
s 1
f 51/83/38 55/89/43 53/90/43 50/84/38 
s 2
f 51/86/40 52/85/39 56/91/44 55/92/45 
f 54/88/42 53/87/41 26/93/9 25/94/9 
s 1
f 55/89/43 29/95/5 26/96/5 53/90/43 
s 2
f 29/97/8 55/92/45 56/91/44 31/98/8 
# 46 polygons

