# 3ds Max Wavefront OBJ Exporter v0.97b - (c)2007 guruware
# File Created: 23.02.2017 23:24:29

mtllib UpperCabinetDoor3_Right.mtl

#
# object apartment_living_kitchen_kitchen_kitchen_overhead_door_kitchen_overhead_door_8_pCube4
#

v  -45.7970 7.9794 38.8899
v  -45.7970 7.9486 38.8899
v  -48.0031 7.9486 38.8899
v  -48.0031 7.9794 38.8899
v  -48.0031 5.9924 38.9699
v  -48.0031 5.9924 38.9199
v  -45.7970 5.9924 38.9199
v  -45.7970 5.9924 38.9699
v  -48.0031 7.9930 38.9699
v  -48.0031 7.9350 38.9699
v  -45.7970 7.9350 38.9699
v  -45.7970 7.9930 38.9699
v  -45.7970 7.9930 38.9199
v  -48.0031 7.9930 38.9199
v  -45.7970 7.9350 38.9199
v  -48.0031 7.9350 38.9199
v  -48.0031 6.0503 38.9699
v  -48.0031 6.0503 38.9199
v  -45.7970 6.0503 38.9699
v  -45.7970 6.0503 38.9199
v  -48.0031 6.0368 38.8899
v  -45.7970 6.0368 38.8899
v  -45.7970 6.0060 38.8899
v  -48.0031 6.0060 38.8899
v  -46.2545 6.1891 38.8566
v  -46.2503 6.2032 38.8608
v  -46.2503 6.2032 38.9340
v  -46.2545 6.1891 38.9342
v  -45.9545 6.1891 38.8566
v  -45.9586 6.2032 38.8608
v  -45.9545 6.1891 38.9342
v  -45.9586 6.2032 38.9340
v  -46.2645 6.1832 38.8466
v  -46.2645 6.1832 38.9344
v  -45.9445 6.1832 38.8466
v  -45.9445 6.1832 38.9344
v  -46.2745 6.1891 38.8366
v  -46.2745 6.1891 38.9347
v  -45.9345 6.1891 38.8366
v  -45.9345 6.1891 38.9347
v  -46.2786 6.2032 38.8325
v  -46.2786 6.2032 38.9348
v  -45.9304 6.2032 38.8325
v  -45.9304 6.2032 38.9348
v  -46.2745 6.2174 38.8366
v  -46.2745 6.2174 38.9347
v  -45.9345 6.2174 38.8366
v  -45.9345 6.2174 38.9347
v  -46.2645 6.2232 38.9344
v  -46.2645 6.2232 38.8466
v  -45.9445 6.2232 38.8466
v  -45.9445 6.2232 38.9344
v  -46.2545 6.2174 38.9342
v  -46.2545 6.2174 38.8566
v  -45.9545 6.2174 38.8566
v  -45.9545 6.2174 38.9342
# 56 vertices

vn 0.0000 0.5422 -0.8402
vn 0.0000 -0.5422 -0.8403
vn 0.0000 -1.0000 -0.0000
vn 0.0000 -0.9775 -0.2108
vn 0.0000 0.0000 1.0000
vn 0.0000 0.9775 -0.2107
vn 0.0000 1.0000 -0.0000
vn 1.0000 0.0000 -0.0000
vn -1.0000 0.0000 -0.0000
vn 0.0000 -0.5422 -0.8402
vn 0.0000 0.0000 -1.0000
vn 0.0000 -0.9112 -0.4120
vn 0.0000 0.9112 -0.4120
vn 0.7166 -0.6975 -0.0000
vn 1.0000 -0.0000 -0.0000
vn 0.7857 -0.6186 -0.0000
vn 0.0000 -0.6975 0.7166
vn 0.0000 -0.0000 1.0000
vn -0.7857 -0.6186 -0.0000
vn -0.7166 -0.6975 -0.0000
vn -0.2566 -0.9665 -0.0000
vn -0.0089 -1.0000 -0.0000
vn 0.0000 -0.9665 -0.2566
vn 0.2566 -0.9665 -0.0000
vn 0.0089 -1.0000 -0.0000
vn -0.8682 -0.4961 -0.0000
vn -0.7907 -0.6123 -0.0000
vn -0.0000 -0.4961 -0.8683
vn 0.0000 -0.4961 -0.8682
vn 0.7907 -0.6122 -0.0000
vn 0.8683 -0.4961 -0.0000
vn -1.0000 -0.0000 -0.0000
vn -0.0000 -0.0000 -1.0000
vn -0.0000 0.0000 -1.0000
vn -0.8682 0.4961 -0.0000
vn -0.7907 0.6123 -0.0000
vn -0.0000 0.4961 -0.8683
vn 0.0000 0.4961 -0.8682
vn 0.8683 0.4961 -0.0000
vn 0.7907 0.6122 -0.0000
vn -0.0089 1.0000 -0.0000
vn -0.2566 0.9665 -0.0000
vn 0.0000 0.9665 -0.2566
vn 0.2566 0.9665 -0.0000
vn 0.0089 1.0000 -0.0000
vn 0.7857 0.6186 -0.0000
vn 0.7166 0.6975 -0.0000
vn 0.0000 0.6975 0.7166
vn -0.7857 0.6186 -0.0000
vn -0.7166 0.6975 -0.0000
# 50 vertex normals

vt 0.0020 0.4901 0.0000
vt 0.0021 0.4901 0.0000
vt 0.5316 0.4901 0.0000
vt 0.5315 0.4901 0.0000
vt 0.5316 0.0020 0.0000
vt 0.5316 0.0140 0.0000
vt 0.0021 0.0140 0.0000
vt 0.0021 0.0020 0.0000
vt 0.0209 0.9980 0.0000
vt 0.0209 0.9843 0.0000
vt 0.5429 0.9843 0.0000
vt 0.5429 0.9980 0.0000
vt 0.0020 0.4980 0.0000
vt 0.5315 0.4980 0.0000
vt 0.5315 0.5100 0.0000
vt 0.0020 0.5100 0.0000
vt 0.5547 0.9980 0.0000
vt 0.5547 0.9843 0.0000
vt 0.0091 0.9980 0.0000
vt 0.0091 0.9843 0.0000
vt 0.0209 0.5384 0.0000
vt 0.0091 0.5384 0.0000
vt 0.0091 0.5247 0.0000
vt 0.0209 0.5247 0.0000
vt 0.5429 0.5247 0.0000
vt 0.5429 0.5384 0.0000
vt 0.5547 0.5247 0.0000
vt 0.5547 0.5384 0.0000
vt 0.5316 0.0219 0.0000
vt 0.0021 0.0219 0.0000
vt 0.0021 0.4822 0.0000
vt 0.0021 0.0298 0.0000
vt 0.5316 0.0298 0.0000
vt 0.5316 0.4822 0.0000
vt 0.5618 0.9875 0.0000
vt 0.5618 0.9948 0.0000
vt 0.0020 0.9948 0.0000
vt 0.0020 0.9875 0.0000
vt 0.5618 0.5279 0.0000
vt 0.5618 0.5352 0.0000
vt 0.0020 0.5352 0.0000
vt 0.0020 0.5279 0.0000
vt 0.5647 0.0641 0.0000
vt 0.5637 0.0675 0.0000
vt 0.5464 0.0675 0.0000
vt 0.5464 0.0641 0.0000
vt 0.6230 0.0234 0.0000
vt 0.6221 0.0269 0.0000
vt 0.5531 0.0280 0.0000
vt 0.5521 0.0245 0.0000
vt 0.6005 0.5461 0.0000
vt 0.6005 0.5496 0.0000
vt 0.5832 0.5496 0.0000
vt 0.5822 0.5461 0.0000
vt 0.5671 0.0613 0.0000
vt 0.5463 0.0613 0.0000
vt 0.6254 0.0206 0.0000
vt 0.5497 0.0218 0.0000
vt 0.5798 0.5433 0.0000
vt 0.6006 0.5433 0.0000
vt 0.5695 0.0586 0.0000
vt 0.5463 0.0586 0.0000
vt 0.5473 0.0191 0.0000
vt 0.6277 0.0179 0.0000
vt 0.6007 0.5406 0.0000
vt 0.5775 0.5406 0.0000
vt 0.5704 0.0551 0.0000
vt 0.5462 0.0551 0.0000
vt 0.6286 0.0144 0.0000
vt 0.5462 0.0156 0.0000
vt 0.5765 0.5371 0.0000
vt 0.6007 0.5371 0.0000
vt 0.5695 0.0516 0.0000
vt 0.5463 0.0516 0.0000
vt 0.5472 0.0121 0.0000
vt 0.6276 0.0109 0.0000
vt 0.5775 0.5336 0.0000
vt 0.6007 0.5336 0.0000
vt 0.5463 0.0489 0.0000
vt 0.5671 0.0489 0.0000
vt 0.6252 0.0082 0.0000
vt 0.5495 0.0093 0.0000
vt 0.5798 0.5309 0.0000
vt 0.6006 0.5309 0.0000
vt 0.5464 0.0461 0.0000
vt 0.5647 0.0461 0.0000
vt 0.5518 0.0066 0.0000
vt 0.6228 0.0055 0.0000
vt 0.6005 0.5281 0.0000
vt 0.5822 0.5281 0.0000
vt 0.5637 0.0426 0.0000
vt 0.5464 0.0426 0.0000
vt 0.5527 0.0031 0.0000
vt 0.6217 0.0020 0.0000
vt 0.5832 0.5247 0.0000
vt 0.6005 0.5247 0.0000
# 96 texture coords

g apartment_living_kitchen_kitchen_kitchen_overhead_door_kitchen_overhead_door_8_pCube4
usemtl wire_061135006
s 1
f 1/1/1 2/2/2 3/3/2 4/4/1 
f 5/5/3 6/6/4 7/7/4 8/8/3 
s off
f 9/9/5 10/10/5 11/11/5 12/12/5 
s 1
f 13/13/6 14/14/6 9/15/7 12/16/7 
s off
f 13/17/8 12/12/8 11/11/8 15/18/8 
f 9/9/9 14/19/9 16/20/9 10/10/9 
f 17/21/9 18/22/9 6/23/9 5/24/9 
f 8/25/5 19/26/5 17/21/5 5/24/5 
f 7/27/8 20/28/8 19/26/8 8/25/8 
s 1
f 21/29/1 22/30/1 23/30/10 24/29/10 
s off
f 17/21/9 10/10/9 16/20/9 18/22/9 
f 17/21/5 19/26/5 11/11/5 10/10/5 
f 20/28/8 15/18/8 11/11/8 19/26/8 
f 15/31/11 20/32/11 18/33/11 16/34/11 
s 1
f 4/4/1 14/14/6 13/13/6 1/1/1 
s off
f 2/35/8 1/36/8 13/17/8 15/18/8 
s 1
f 2/2/2 15/31/12 16/34/12 3/3/2 
s off
f 4/37/9 3/38/9 16/20/9 14/19/9 
s 1
f 20/32/13 22/30/1 21/29/1 18/33/13 
s off
f 7/27/8 23/39/8 22/40/8 20/28/8 
s 1
f 23/30/10 7/7/4 6/6/4 24/29/10 
s off
f 21/41/9 24/42/9 6/23/9 18/22/9 
s 2
f 25/43/14 26/44/15 27/45/8 28/46/16 
s 1
f 29/47/17 30/48/18 26/49/5 25/50/17 
s 2
f 31/51/19 32/52/9 30/53/9 29/54/20 
f 33/55/21 25/43/14 28/46/16 34/56/22 
s 1
f 35/57/23 29/47/17 25/50/17 33/58/23 
s 2
f 35/59/24 36/60/25 31/51/19 29/54/20 
f 37/61/26 33/55/21 34/56/22 38/62/27 
s 1
f 35/57/23 33/58/23 37/63/28 39/64/29 
s 2
f 40/65/30 36/60/25 35/59/24 39/66/31 
f 41/67/32 37/61/26 38/62/27 42/68/9 
s 1
f 43/69/33 39/64/29 37/63/28 41/70/34 
s 2
f 39/66/31 43/71/8 44/72/15 40/65/30 
f 45/73/35 41/67/32 42/68/9 46/74/36 
s 1
f 43/69/33 41/70/34 45/75/37 47/76/38 
s 2
f 47/77/39 48/78/40 44/72/15 43/71/8 
f 45/73/35 46/74/36 49/79/41 50/80/42 
s 1
f 51/81/43 47/76/38 45/75/37 50/82/43 
s 2
f 48/78/40 47/77/39 51/83/44 52/84/45 
f 49/79/41 53/85/46 54/86/47 50/80/42 
s 1
f 51/81/43 50/82/43 54/87/48 55/88/48 
s 2
f 56/89/49 52/84/45 51/83/44 55/90/50 
f 26/91/15 54/86/47 53/85/46 27/92/8 
s 1
f 54/87/48 26/93/5 30/94/18 55/88/48 
s 2
f 56/89/49 55/90/50 30/95/9 32/96/9 
# 46 polygons

