# 3ds Max Wavefront OBJ Exporter v0.97b - (c)2007 guruware
# File Created: 24.02.2017 19:12:40

mtllib DoorFrame.mtl

#
# object apartment_living_kitchen_living_kitchen_frame001
#

v  -148.4634 2.5000 192.2526
v  -148.4634 2.4187 192.2526
v  -148.9634 2.4187 192.2526
v  -148.9634 2.5000 192.2526
v  -148.4634 2.5000 193.7526
v  -148.9634 2.5000 193.7526
v  -148.9634 2.4187 193.7526
v  -148.4634 2.4187 193.7526
v  -148.9634 2.4187 192.3130
v  -148.9634 2.5000 192.3130
v  -148.4634 2.4187 192.3130
v  -148.4634 2.5000 192.3130
v  -148.4634 2.5000 193.7070
v  -148.4634 2.4187 193.7070
v  -148.9634 2.5000 193.7070
v  -148.9634 2.4187 193.7070
v  -148.4634 0.0000 192.3130
v  -148.4634 -0.0000 192.2526
v  -148.9634 -0.0000 192.2526
v  -148.9634 -0.0000 192.3130
v  -148.9634 -0.0000 193.7070
v  -148.9634 -0.0000 193.7526
v  -148.4634 -0.0000 193.7526
v  -148.4634 -0.0000 193.7070
v  -148.5492 -0.0000 193.7070
v  -148.5492 2.4187 193.7070
v  -148.5492 2.4187 192.3130
v  -148.5492 -0.0000 192.3130
v  -148.8776 2.4187 193.7070
v  -148.8776 -0.0000 193.7070
v  -148.8776 2.4187 192.3130
v  -148.8776 0.0000 192.3130
v  -148.5492 2.3722 193.6733
v  -148.5492 -0.0000 193.6733
v  -148.8776 -0.0000 193.6733
v  -148.8776 2.3722 193.6733
v  -148.8776 2.3722 192.3466
v  -148.5492 2.3722 192.3466
v  -148.5492 -0.0000 192.3466
v  -148.8776 -0.0000 192.3466
# 40 vertices

vn -0.0000 -0.0000 -1.0000
vn 0.0000 -0.0000 1.0000
vn -1.0000 0.0000 -0.0000
vn 1.0000 0.0000 -0.0000
vn 1.0000 -0.0000 -0.0000
vn -1.0000 0.0000 0.0000
vn 1.0000 -0.0000 0.0000
vn -1.0000 -0.0000 0.0000
vn 1.0000 0.0000 0.0000
vn -0.0000 0.0000 -1.0000
vn -1.0000 -0.0000 -0.0000
vn 0.0000 0.0000 1.0000
vn 0.0000 -1.0000 0.0000
vn 0.0001 -1.0000 0.0000
vn -0.0000 0.0000 1.0000
vn -0.0000 -1.0000 -0.0000
vn -0.0000 -0.0000 1.0000
vn 1.0000 -0.0000 -0.0012
vn -0.0000 1.0000 -0.0001
vn -0.0000 1.0000 0.0000
# 20 vertex normals

vt 0.4993 0.6118 0.0000
vt 0.4992 0.5956 0.0000
vt 0.5957 0.5949 0.0000
vt 0.5958 0.6111 0.0000
vt 0.1524 0.6120 0.0000
vt 0.0563 0.6207 0.0000
vt 0.0549 0.6045 0.0000
vt 0.1510 0.5959 0.0000
vt 0.4025 0.0022 0.0000
vt 0.4187 0.0020 0.0000
vt 0.4189 0.0171 0.0000
vt 0.4027 0.0173 0.0000
vt 0.4840 0.5957 0.0000
vt 0.4841 0.6119 0.0000
vt 0.3106 0.3781 0.0000
vt 0.3108 0.3946 0.0000
vt 0.2946 0.3948 0.0000
vt 0.2944 0.3783 0.0000
vt 0.6852 0.6102 0.0000
vt 0.6837 0.5940 0.0000
vt 0.7001 0.5926 0.0000
vt 0.7015 0.6087 0.0000
vt 0.2900 0.0187 0.0000
vt 0.3062 0.0185 0.0000
vt 0.4233 0.3768 0.0000
vt 0.4071 0.3770 0.0000
vt 0.4797 0.0028 0.0000
vt 0.4948 0.0027 0.0000
vt 0.5913 0.0020 0.0000
vt 0.7155 0.0023 0.0000
vt 0.7306 0.0022 0.0000
vt 0.7349 0.5951 0.0000
vt 0.7198 0.5952 0.0000
vt 0.6309 0.0035 0.0000
vt 0.6472 0.0020 0.0000
vt 0.0020 0.0140 0.0000
vt 0.0981 0.0054 0.0000
vt 0.1145 0.0039 0.0000
vt 0.1674 0.5945 0.0000
vt 0.1356 0.0020 0.0000
vt 0.1885 0.5926 0.0000
vt 0.2688 0.0190 0.0000
vt 0.2732 0.3786 0.0000
vt 0.4585 0.0030 0.0000
vt 0.4628 0.5959 0.0000
vt 0.6626 0.5959 0.0000
vt 0.6097 0.0054 0.0000
vt 0.4445 0.3765 0.0000
vt 0.4401 0.0169 0.0000
vt 0.7562 0.5949 0.0000
vt 0.7518 0.0020 0.0000
vt 0.2548 0.9980 0.0000
vt 0.2024 0.4135 0.0000
vt 0.2563 0.4087 0.0000
vt 0.3086 0.9932 0.0000
vt 0.2129 0.3732 0.0000
vt 0.2087 0.0259 0.0000
vt 0.2627 0.0252 0.0000
vt 0.2670 0.3725 0.0000
vt 0.3766 0.4087 0.0000
vt 0.3809 0.9955 0.0000
vt 0.3268 0.9959 0.0000
vt 0.3225 0.4091 0.0000
vt 0.7902 0.5949 0.0000
vt 0.7902 0.0020 0.0000
vt 0.7963 0.0020 0.0000
vt 0.7963 0.5888 0.0000
vt 0.8164 0.5949 0.0000
vt 0.8102 0.5888 0.0000
vt 0.8102 0.0020 0.0000
vt 0.8164 0.0020 0.0000
vt 0.2069 0.3794 0.0000
vt 0.2024 0.0198 0.0000
vt 0.7701 0.5888 0.0000
vt 0.7701 0.0020 0.0000
vt 0.7762 0.0020 0.0000
vt 0.7762 0.5949 0.0000
vt 0.8303 0.5949 0.0000
vt 0.8303 0.0020 0.0000
vt 0.8365 0.0020 0.0000
vt 0.8365 0.5888 0.0000
vt 0.3060 0.0034 0.0000
vt 0.4073 0.3934 0.0000
# 83 texture coords

g apartment_living_kitchen_living_kitchen_frame001
usemtl wire_088177027
s off
f 1/1/1 2/2/1 3/3/1 4/4/1 
f 5/5/2 6/6/2 7/7/2 8/8/2 
f 4/9/3 3/10/3 9/11/3 10/12/3 
f 11/13/4 2/2/4 1/1/4 12/14/4 
f 13/15/5 5/16/5 8/17/5 14/18/5 
f 15/19/6 16/20/6 7/21/6 6/22/6 
f 14/18/7 11/23/7 12/24/7 13/15/7 
f 9/11/8 16/25/8 15/26/8 10/12/8 
f 11/13/9 17/27/9 18/28/9 2/2/9 
f 18/28/10 19/29/10 3/3/10 2/2/10 
f 19/30/11 20/31/11 9/32/11 3/33/11 
f 7/21/6 16/20/6 21/34/6 22/35/6 
f 7/7/12 22/36/12 23/37/12 8/8/12 
f 8/8/4 23/37/4 24/38/4 14/39/4 
f 25/40/1 26/41/1 14/39/1 24/38/1 
f 27/42/13 11/23/13 14/18/13 26/43/13 
f 28/44/12 17/27/12 11/13/12 27/45/12 
f 16/20/1 29/46/1 30/47/1 21/34/1 
f 29/48/14 16/25/14 9/11/14 31/49/14 
f 31/50/15 9/32/15 20/31/15 32/51/15 
f 33/52/1 34/53/1 35/54/1 36/55/1 
f 36/56/16 37/57/16 38/58/16 33/59/16 
f 39/60/17 38/61/17 37/62/17 40/63/17 
f 26/64/4 25/65/4 34/66/4 33/67/4 
f 29/68/8 36/69/8 35/70/8 30/71/8 
f 38/58/9 27/42/9 26/43/9 33/59/9 
f 37/57/3 36/56/3 29/72/3 31/73/3 
f 38/74/18 39/75/18 28/76/18 27/77/18 
f 31/78/11 32/79/11 40/80/11 37/81/11 
f 1/82/19 4/9/19 10/12/19 12/24/19 
f 6/83/19 5/16/19 13/15/19 15/26/19 
f 15/26/20 13/15/20 12/24/20 10/12/20 
# 32 polygons

