# This file uses centimeters as units for non-parametric coordinates.

mtllib portrait.mtl
g default
v -0.830828 0.005194 0.667302
v 0.830828 0.005194 0.667302
v -0.830828 0.036194 0.667302
v 0.830828 0.036194 0.667302
v -0.830828 0.036194 -0.667302
v 0.830828 0.036194 -0.667302
v -0.830828 0.005194 -0.667302
v 0.830828 0.005194 -0.667302
v -0.734512 0.035877 0.538559
v 0.734512 0.035877 0.538559
v 0.734512 0.035877 -0.538558
v -0.734512 0.035877 -0.538558
v -0.734512 0.035250 0.538559
v 0.734512 0.035250 0.538559
v 0.734512 0.035250 -0.538558
v -0.734512 0.035250 -0.538558
v -0.734512 0.033369 0.538559
v 0.734512 0.033369 0.538559
v 0.734512 0.033369 -0.538558
v -0.734512 0.033369 -0.538558
v -0.734512 0.033056 0.538559
v 0.734512 0.033056 0.538559
v 0.734512 0.033056 -0.538558
v -0.734512 0.033056 -0.538558
v -0.818949 0.036194 0.667302
v -0.724012 0.035877 0.538559
v -0.724012 0.035250 0.538559
v -0.724012 0.033369 0.538559
v -0.724012 0.033056 0.538559
v -0.724012 0.033056 -0.538558
v -0.724012 0.033369 -0.538558
v -0.724012 0.035250 -0.538558
v -0.724012 0.035877 -0.538558
v -0.818949 0.036194 -0.667302
v -0.818949 0.005194 -0.667302
v -0.818949 0.005194 0.667302
v -0.830828 0.036194 0.660375
v -0.830828 0.005194 0.660375
v -0.818949 0.005194 0.660375
v 0.830828 0.005194 0.660375
v 0.830828 0.036194 0.660375
v 0.734512 0.035877 0.532968
v 0.734512 0.035250 0.532968
v 0.734512 0.033369 0.532968
v 0.734512 0.033056 0.532968
v -0.724012 0.033056 0.532968
v -0.734512 0.033056 0.532968
v -0.734512 0.033369 0.532968
v -0.734512 0.035250 0.532968
v -0.734512 0.035877 0.532968
v 0.822840 0.005194 -0.667302
v 0.822840 0.005194 0.660375
v 0.822840 0.005194 0.667302
v 0.822840 0.036194 0.667302
v 0.727450 0.035877 0.538559
v 0.727450 0.035250 0.538559
v 0.727450 0.033369 0.538559
v 0.727450 0.033056 0.538559
v 0.727450 0.033056 0.532968
v 0.727450 0.033056 -0.538558
v 0.727450 0.033369 -0.538558
v 0.727450 0.035250 -0.538558
v 0.727450 0.035877 -0.538558
v 0.822840 0.036194 -0.667302
v 0.830828 0.005194 -0.661761
v 0.822840 0.005194 -0.661761
v -0.818949 0.005194 -0.661761
v -0.830828 0.005194 -0.661761
v -0.830828 0.036194 -0.661761
v -0.734512 0.035877 -0.534088
v -0.734512 0.035250 -0.534088
v -0.734512 0.033369 -0.534088
v -0.734512 0.033056 -0.534088
v -0.724012 0.033056 -0.534088
v 0.727450 0.033056 -0.534088
v 0.734512 0.033056 -0.534088
v 0.734512 0.033369 -0.534088
v 0.734512 0.035250 -0.534088
v 0.734512 0.035877 -0.534088
v 0.830828 0.036194 -0.661761
vt 0.599277 0.494745
vt 0.595085 0.494745
vt 0.015750 0.494745
vt 0.012931 0.494745
vt 0.595085 0.483806
vt 0.599277 0.483806
vt 0.015750 0.483806
vt 0.012931 0.483806
vt 0.617928 0.520299
vt 0.617928 0.516594
vt 0.619901 0.516594
vt 0.619901 0.520299
vt 0.617928 0.004420
vt 0.619901 0.004420
vt 0.996430 0.516594
vt 0.996430 0.520299
vt 0.617928 0.001927
vt 0.619901 0.001927
vt 0.996430 0.004420
vt 0.998008 0.516594
vt 0.998008 0.520299
vt 0.996430 0.001927
vt 0.998008 0.004420
vt 0.998008 0.001927
vt 0.595085 0.001928
vt 0.599277 0.001928
vt 0.015750 0.001928
vt 0.599276 0.012867
vt 0.595085 0.012867
vt 0.012931 0.001928
vt 0.015750 0.012867
vt 0.012931 0.012867
vt 0.599277 0.497189
vt 0.595085 0.497189
vt 0.565290 0.059874
vt 0.565069 0.059874
vt 0.599277 0.963729
vt 0.595085 0.963729
vt 0.015750 0.497190
vt 0.564405 0.436403
vt 0.599277 0.965684
vt 0.595085 0.965684
vt 0.015750 0.963729
vt 0.012931 0.497190
vt 0.564405 0.438376
vt 0.015750 0.965684
vt 0.012932 0.963729
vt 0.012932 0.965684
vt 0.001992 0.483806
vt 0.001992 0.481361
vt 0.001992 0.014822
vt 0.001992 0.012867
vt 0.012931 0.481361
vt 0.046918 0.059292
vt 0.012931 0.014822
vt 0.046918 0.059181
vt 0.610216 0.481361
vt 0.610216 0.483806
vt 0.610215 0.014822
vt 0.565069 0.436403
vt 0.599277 0.481361
vt 0.610215 0.012867
vt 0.599276 0.014822
vt 0.565069 0.438376
vt 0.564294 0.058296
vt 0.564405 0.058296
vt 0.561585 0.438376
vt 0.565290 0.438376
vt 0.564294 0.059874
vt 0.049410 0.438376
vt 0.565290 0.436403
vt 0.046918 0.058296
vt 0.565069 0.058296
vt 0.046918 0.438376
vt 0.049410 0.059181
vt 0.561585 0.059292
vt 0.049410 0.059292
vt 0.046918 0.436403
vt 0.565290 0.058296
vt 0.565290 0.059292
vt 0.046918 0.058517
vt 0.046918 0.059874
vt 0.564405 0.059874
vt 0.561585 0.058296
vt 0.564295 0.436403
vt 0.049410 0.058517
vt 0.564295 0.438376
vt 0.049410 0.058296
vt 0.047914 0.058296
vt 0.047914 0.059874
vt 0.561585 0.438155
vt 0.565290 0.438155
vt 0.047803 0.058296
vt 0.049410 0.438155
vt 0.561585 0.437491
vt 0.565290 0.437491
vt 0.047913 0.438376
vt 0.046918 0.438155
vt 0.049410 0.437492
vt 0.561585 0.437381
vt 0.565290 0.437381
vt 0.046918 0.437492
vt 0.049410 0.437381
vt 0.046918 0.437381
vt 0.561585 0.058518
vt 0.565290 0.058518
vt 0.047139 0.436403
vt 0.047139 0.438376
vt 0.565290 0.059181
vt 0.047140 0.059874
vt 0.047803 0.436403
vt 0.047803 0.438376
vt 0.561585 0.059181
vt 0.047140 0.058296
vt 0.047803 0.059874
vt 0.047913 0.436403
vn 0.000000 0.000000 1.000000
vn 0.000000 0.000000 1.000000
vn 0.000000 0.000000 1.000000
vn 0.000000 0.000000 1.000000
vn 0.000000 1.000000 0.000000
vn 0.000000 1.000000 0.000000
vn 0.000000 1.000000 0.000000
vn 0.000000 1.000000 0.000000
vn 0.000000 0.000000 -1.000000
vn 0.000000 0.000000 -1.000000
vn 0.000000 0.000000 -1.000000
vn 0.000000 0.000000 -1.000000
vn 0.000000 -1.000000 0.000000
vn 0.000000 -1.000000 0.000000
vn 0.000000 -1.000000 0.000000
vn 0.000000 -1.000000 0.000000
vn 1.000000 0.000000 0.000000
vn 1.000000 0.000000 0.000000
vn 1.000000 0.000000 0.000000
vn 1.000000 0.000000 0.000000
vn -1.000000 0.000000 0.000000
vn -1.000000 0.000000 0.000000
vn -1.000000 0.000000 0.000000
vn -1.000000 0.000000 0.000000
vn 0.000739 0.999998 -0.001909
vn 0.000000 0.999997 -0.002462
vn 0.000000 0.999997 -0.002462
vn 0.001056 0.999998 -0.001672
vn -0.000990 0.999998 -0.001721
vn -0.003291 0.999995 0.000000
vn -0.003291 0.999995 0.000000
vn -0.001358 0.999998 -0.001446
vn 0.000000 0.999997 0.002462
vn 0.000619 0.999998 0.001999
vn 0.000903 0.999998 0.001787
vn 0.000000 0.999997 0.002462
vn 0.003291 0.999995 0.000000
vn 0.003291 0.999995 0.000000
vn 0.000000 0.000000 -1.000000
vn 0.000000 0.000000 -1.000000
vn 0.000000 0.000000 -1.000000
vn 0.000000 0.000000 -1.000000
vn -1.000000 0.000000 0.000000
vn -1.000000 0.000000 0.000000
vn -1.000000 0.000000 0.000000
vn -1.000000 0.000000 0.000000
vn 0.000000 0.000000 1.000000
vn 0.000000 0.000000 1.000000
vn 0.000000 0.000000 1.000000
vn 0.000000 0.000000 1.000000
vn 1.000000 0.000000 0.000000
vn 1.000000 0.000000 0.000000
vn 1.000000 0.000000 0.000000
vn 1.000000 0.000000 0.000000
vn 0.000000 0.000000 -1.000000
vn 0.000000 0.000000 -1.000000
vn -1.000000 0.000000 0.000000
vn -1.000000 0.000000 0.000000
vn 0.000000 0.000000 1.000000
vn 0.000000 0.000000 1.000000
vn 1.000000 0.000000 0.000000
vn 1.000000 0.000000 0.000000
vn 0.000000 0.000000 -1.000000
vn 0.000000 0.000000 -1.000000
vn -1.000000 0.000000 0.000000
vn -1.000000 0.000000 0.000000
vn 0.000000 0.000000 1.000000
vn 0.000000 0.000000 1.000000
vn 1.000000 0.000000 0.000000
vn 1.000000 0.000000 0.000000
vn 0.000000 0.999997 -0.002462
vn 0.000000 0.999997 -0.002462
vn 0.000000 0.000000 -1.000000
vn 0.000000 0.000000 -1.000000
vn 0.000000 0.000000 -1.000000
vn 0.000000 0.000000 -1.000000
vn 0.000000 1.000000 0.000000
vn 0.000000 1.000000 0.000000
vn 0.000000 0.000000 1.000000
vn 0.000000 0.000000 1.000000
vn 0.000000 0.000000 1.000000
vn 0.000000 0.000000 1.000000
vn 0.000000 0.999997 0.002462
vn 0.000000 0.999997 0.002462
vn 0.000000 0.000000 -1.000000
vn 0.000000 0.000000 -1.000000
vn 0.000000 -1.000000 0.000000
vn 0.000000 -1.000000 0.000000
vn 0.000000 0.000000 1.000000
vn 0.000000 0.000000 1.000000
vn -1.000000 0.000000 0.000000
vn -1.000000 0.000000 0.000000
vn -1.000000 0.000000 0.000000
vn -1.000000 0.000000 0.000000
vn 0.000000 -1.000000 0.000000
vn 0.000000 -1.000000 0.000000
vn 0.000000 -1.000000 0.000000
vn 0.000000 -1.000000 0.000000
vn 0.000000 -1.000000 0.000000
vn 0.000000 -1.000000 0.000000
vn 1.000000 0.000000 0.000000
vn 1.000000 0.000000 0.000000
vn 1.000000 0.000000 0.000000
vn 1.000000 0.000000 0.000000
vn -0.003291 0.999995 0.000000
vn -0.003291 0.999995 0.000000
vn -0.000843 0.999998 0.001832
vn -0.001184 0.999998 0.001576
vn -1.000000 0.000000 0.000000
vn -1.000000 0.000000 0.000000
vn -1.000000 0.000000 0.000000
vn -1.000000 0.000000 0.000000
vn -1.000000 0.000000 0.000000
vn -1.000000 0.000000 0.000000
vn -1.000000 0.000000 0.000000
vn -1.000000 0.000000 0.000000
vn 0.000000 1.000000 0.000000
vn 0.000000 1.000000 0.000000
vn 0.000000 1.000000 0.000000
vn 0.000000 1.000000 0.000000
vn 0.000000 1.000000 0.000000
vn 0.000000 1.000000 0.000000
vn 1.000000 0.000000 0.000000
vn 1.000000 0.000000 0.000000
vn 1.000000 0.000000 0.000000
vn 1.000000 0.000000 0.000000
vn 1.000000 0.000000 0.000000
vn 1.000000 0.000000 0.000000
vn 1.000000 0.000000 0.000000
vn 1.000000 0.000000 0.000000
vn 0.003291 0.999995 0.000000
vn 0.003291 0.999995 0.000000
vn 0.000000 0.000000 -1.000000
vn 0.000000 0.000000 -1.000000
vn 0.000000 -1.000000 0.000000
vn 0.000000 -1.000000 0.000000
vn 0.000000 -1.000000 0.000000
vn 0.000000 -1.000000 0.000000
vn 0.000000 0.000000 1.000000
vn 0.000000 0.000000 1.000000
vn 0.000000 0.000000 -1.000000
vn 0.000000 0.000000 -1.000000
vn 0.000000 0.000000 -1.000000
vn 0.000000 0.000000 -1.000000
vn 0.000000 1.000000 0.000000
vn 0.000000 1.000000 0.000000
vn 0.000000 1.000000 0.000000
vn 0.000000 1.000000 0.000000
vn 0.000000 0.000000 1.000000
vn 0.000000 0.000000 1.000000
vn 0.000000 0.000000 1.000000
vn 0.000000 0.000000 1.000000
g portrait_1
usemtl lambert2SG
f 1/1/1 36/2/2 25/5/3 3/6/4
f 21/9/5 29/10/6 46/11/7 47/12/8
f 35/25/9 7/26/10 5/28/11 34/29/12
f 38/33/13 39/34/14 36/2/15 1/1/16
f 4/8/17 2/49/18 40/50/19 41/53/20
f 38/57/21 1/58/22 3/6/23 37/61/24
f 3/6/25 25/5/26 26/67/27 9/68/28
f 4/8/29 41/53/30 42/78/31 10/74/32
f 34/29/33 5/28/34 12/79/35 33/84/36
f 50/71/37 37/61/38 3/6/25 9/68/28
f 9/68/39 26/67/40 27/91/41 13/92/42
f 10/74/43 42/78/44 43/107/45 14/108/46
f 33/84/47 12/79/48 16/106/49 32/105/50
f 50/71/51 9/68/52 13/64/53 49/60/54
f 13/92/42 27/91/41 28/95/55 17/96/56
f 14/108/46 43/107/45 44/111/57 18/112/58
f 32/105/50 16/106/49 20/109/59 31/113/60
f 49/60/54 13/64/53 17/45/61 48/40/62
f 17/96/56 28/95/55 29/100/63 21/101/64
f 18/112/58 44/111/57 45/116/65 22/97/66
f 31/113/60 20/109/59 24/80/67 30/76/68
f 48/40/62 17/45/61 21/87/69 47/85/70
f 25/5/26 54/7/71 55/70/72 26/67/27
f 27/91/41 26/67/40 55/70/73 56/94/74
f 28/95/55 27/91/41 56/94/74 57/99/75
f 29/100/63 28/95/55 57/99/75 58/103/76
f 46/11/7 29/10/6 58/13/77 59/14/78
f 61/75/79 31/113/60 30/76/68 60/77/80
f 62/86/81 32/105/50 31/113/60 61/75/79
f 63/88/82 33/84/47 32/105/50 62/86/81
f 64/31/83 34/29/33 33/84/36 63/88/84
f 51/27/85 35/25/9 34/29/12 64/31/86
f 36/2/15 39/34/14 52/39/87 53/3/88
f 25/5/3 36/2/2 53/3/89 54/7/90
f 5/28/91 7/62/92 68/59/93 69/63/94
f 7/41/95 35/42/96 67/38/97 68/37/98
f 66/43/99 67/38/97 35/42/96 51/46/100
f 65/51/101 8/52/102 6/32/103 80/55/104
f 79/82/105 80/55/106 6/32/107 11/72/108
f 78/110/109 79/82/110 11/72/111 15/114/112
f 77/115/113 78/110/109 15/114/112 19/93/114
f 76/90/115 77/115/113 19/93/114 23/89/116
f 30/20/117 74/15/118 75/19/119 60/23/120
f 73/16/121 74/15/118 30/20/117 24/21/122
f 20/66/123 72/83/124 73/69/125 24/65/126
f 16/73/127 71/36/128 72/83/124 20/66/123
f 12/79/129 70/35/130 71/36/128 16/73/127
f 5/28/34 69/63/131 70/35/132 12/79/35
f 6/32/133 8/30/134 51/27/85 64/31/86
f 65/47/135 66/43/99 51/46/100 8/48/136
f 53/3/88 52/39/87 40/44/137 2/4/138
f 53/3/89 2/4/139 4/8/140 54/7/90
f 55/70/72 54/7/71 4/8/29 10/74/32
f 56/94/74 55/70/73 10/74/141 14/98/142
f 57/99/75 56/94/74 14/98/142 18/102/143
f 58/103/76 57/99/75 18/102/143 22/104/144
f 59/14/78 58/13/77 22/17/145 45/18/146
f 60/23/120 75/19/119 76/22/147 23/24/148
f 19/56/149 61/75/79 60/77/80 23/54/150
f 15/81/151 62/86/81 61/75/79 19/56/149
f 11/72/152 63/88/82 62/86/81 15/81/151
f 6/32/107 64/31/83 63/88/84 11/72/108
f 41/53/20 40/50/19 65/51/101 80/55/104
f 40/44/137 52/39/87 66/43/99 65/47/135
f 52/39/87 39/34/14 67/38/97 66/43/99
f 68/37/98 67/38/97 39/34/14 38/33/13
f 68/59/93 38/57/21 37/61/24 69/63/94
f 70/35/132 69/63/131 37/61/38 50/71/37
f 71/36/128 70/35/130 50/71/51 49/60/54
f 72/83/124 71/36/128 49/60/54 48/40/62
f 73/69/125 72/83/124 48/40/62 47/85/70
f 47/12/8 46/11/7 74/15/118 73/16/121
f 75/19/119 74/15/118 46/11/7 59/14/78
f 76/22/147 75/19/119 59/14/78 45/18/146
f 45/116/65 44/111/57 77/115/113 76/90/115
f 44/111/57 43/107/45 78/110/109 77/115/113
f 43/107/45 42/78/44 79/82/110 78/110/109
f 42/78/31 41/53/30 80/55/106 79/82/105
