# 3ds Max Wavefront OBJ Exporter v0.97b - (c)2007 guruware
# File Created: 22.02.2017 22:17:31

mtllib DoorFrame.mtl

#
# object bedroom_apartment_bedroom_door_bedroom_door_frame
#

v  -2.4204 2.5000 72.8448
v  -2.4204 2.4187 72.8448
v  -1.9204 2.4187 72.8448
v  -1.9204 2.5000 72.8448
v  -2.4204 2.5000 71.3448
v  -1.9204 2.5000 71.3448
v  -1.9204 2.4187 71.3448
v  -2.4204 2.4187 71.3448
v  -1.9204 2.4187 72.7992
v  -1.9204 2.5000 72.7992
v  -2.4204 2.4187 72.7992
v  -2.4204 2.5000 72.7992
v  -2.4204 2.5000 71.4052
v  -2.4204 2.4187 71.4052
v  -1.9204 2.5000 71.4052
v  -1.9204 2.4187 71.4052
v  -2.4204 0.0000 72.7992
v  -2.4204 0.0000 72.8448
v  -1.9204 0.0000 72.8448
v  -1.9204 0.0000 72.7992
v  -1.9204 -0.0000 71.4052
v  -1.9204 -0.0000 71.3448
v  -2.4204 -0.0000 71.3448
v  -2.4204 -0.0000 71.4052
v  -2.3346 -0.0000 71.4052
v  -2.3346 2.4187 71.4052
v  -2.3346 2.4187 72.7992
v  -2.3345 0.0000 72.7992
v  -2.0062 2.4187 71.4052
v  -2.0062 -0.0000 71.4052
v  -2.0062 2.4187 72.7992
v  -2.0062 0.0000 72.7992
v  -2.3346 2.3722 71.4389
v  -2.3346 -0.0000 71.4389
v  -2.0062 -0.0000 71.4389
v  -2.0062 2.3722 71.4389
v  -2.0062 2.3722 72.7655
v  -2.3346 2.3722 72.7655
v  -2.3346 0.0000 72.7655
v  -2.0062 0.0000 72.7655
# 40 vertices

vn 0.0000 0.0000 1.0000
vn 0.0000 0.0000 -1.0000
vn 1.0000 0.0000 -0.0000
vn -1.0000 0.0000 -0.0000
vn 0.0000 -1.0000 -0.0000
vn 1.0000 -0.0000 -0.0000
vn -1.0000 -0.0000 0.0018
vn 0.0000 1.0000 -0.0000
# 8 vertex normals

vt 0.3750 0.2500 0.0000
vt 0.3750 0.2372 0.0000
vt 0.6250 0.2372 0.0000
vt 0.6250 0.2500 0.0000
vt 0.3750 0.5000 0.0000
vt 0.6250 0.5000 0.0000
vt 0.6250 0.5128 0.0000
vt 0.3750 0.5128 0.0000
vt 0.7083 0.2372 0.0000
vt 0.7083 0.2500 0.0000
vt 0.2917 0.2372 0.0000
vt 0.2917 0.2500 0.0000
vt 0.2083 0.2500 0.0000
vt 0.1250 0.2500 0.0000
vt 0.1250 0.2372 0.0000
vt 0.2083 0.2372 0.0000
vt 0.7917 0.2500 0.0000
vt 0.7917 0.2372 0.0000
vt 0.8750 0.2372 0.0000
vt 0.8750 0.2500 0.0000
vt 0.2917 0.0037 0.0000
vt 0.3750 0.0037 0.0000
vt 0.6250 0.0037 0.0000
vt 0.7083 0.0037 0.0000
vt 0.7917 0.0037 0.0000
vt 0.8750 0.0037 0.0000
vt 0.6250 0.7463 0.0000
vt 0.3750 0.7463 0.0000
vt 0.1250 0.0037 0.0000
vt 0.2083 0.0037 0.0000
vt 0.4028 0.0037 0.0000
vt 0.4028 0.2372 0.0000
vt 0.4306 0.2372 0.0000
vt 0.4306 0.0037 0.0000
vt 0.5972 0.2372 0.0000
vt 0.5972 0.0037 0.0000
vt 0.5694 0.2372 0.0000
vt 0.5694 0.0037 0.0000
# 38 texture coords

g bedroom_apartment_bedroom_door_bedroom_door_frame
usemtl wire_224198087
s 1
f 1/1/1 2/2/1 3/3/1 4/4/1 
f 5/5/2 6/6/2 7/7/2 8/8/2 
f 4/4/3 3/3/3 9/9/3 10/10/3 
f 11/11/4 2/2/4 1/1/4 12/12/4 
f 13/13/4 5/14/4 8/15/4 14/16/4 
f 15/17/3 16/18/3 7/19/3 6/20/3 
f 14/16/4 11/11/4 12/12/4 13/13/4 
f 9/9/3 16/18/3 15/17/3 10/10/3 
f 11/11/4 17/21/4 18/22/4 2/2/4 
f 18/22/1 19/23/1 3/3/1 2/2/1 
f 19/23/3 20/24/3 9/9/3 3/3/3 
f 7/19/3 16/18/3 21/25/3 22/26/3 
f 7/7/2 22/27/2 23/28/2 8/8/2 
f 8/15/4 23/29/4 24/30/4 14/16/4 
f 25/31/1 26/32/1 14/16/1 24/30/1 
f 27/33/5 11/11/5 14/16/5 26/32/5 
f 28/34/2 17/21/2 11/11/2 27/33/2 
f 16/18/1 29/35/1 30/36/1 21/25/1 
f 29/35/5 16/18/5 9/9/5 31/37/5 
f 31/37/2 9/9/2 20/24/2 32/38/2 
f 33/32/1 34/31/1 35/36/1 36/35/1 
f 36/35/5 37/37/5 38/33/5 33/32/5 
f 39/34/2 38/33/2 37/37/2 40/38/2 
f 26/32/4 25/31/4 34/31/4 33/32/4 
f 29/35/3 36/35/3 35/36/3 30/36/3 
f 38/33/4 27/33/4 26/32/4 33/32/4 
f 37/37/6 36/35/6 29/35/6 31/37/6 
f 38/33/7 39/34/7 28/34/7 27/33/7 
f 31/37/3 32/38/3 40/38/3 37/37/3 
f 1/1/8 4/4/8 10/10/8 12/12/8 
f 6/6/8 5/14/8 13/13/8 15/17/8 
f 15/17/8 13/13/8 12/12/8 10/10/8 
# 32 polygons

