# 3ds Max Wavefront OBJ Exporter v0.97b - (c)2007 guruware
# File Created: 25.02.2017 00:02:48

mtllib PackageClear.mtl

#
# object default001
#

v  7.8287 -0.7415 10.5747
v  7.8617 -0.7745 10.5747
v  7.8623 -0.7748 8.8331
v  7.8286 -0.7417 8.8287
v  7.8286 -0.7417 12.3208
v  7.8623 -0.7748 12.3163
v  11.7423 -0.7745 10.5747
v  11.7753 -0.7415 10.5747
v  11.7754 -0.7417 8.8286
v  11.7417 -0.7748 8.8331
v  11.7417 -0.7748 12.3163
v  11.7754 -0.7417 12.3208
v  9.8020 -0.7745 8.6344
v  9.8020 -0.7415 8.6014
v  8.0559 -0.7417 8.6013
v  8.0604 -0.7748 8.6350
v  11.5436 -0.7748 8.6350
v  11.5481 -0.7417 8.6013
v  9.8020 -0.7745 12.5150
v  9.8020 -0.7415 12.5480
v  11.5481 -0.7417 12.5481
v  11.5436 -0.7748 12.5144
v  8.0604 -0.7748 12.5144
v  8.0559 -0.7417 12.5481
v  11.6454 -0.7750 8.6625
v  11.6633 -0.7419 8.6315
v  11.6454 -0.7750 12.4869
v  11.6633 -0.7419 12.5179
v  7.8898 -0.7750 12.4181
v  7.8588 -0.7419 12.4360
v  11.7142 -0.7750 12.4181
v  11.7452 -0.7419 12.4360
v  7.9586 -0.7750 12.4869
v  7.9407 -0.7419 12.5179
v  7.9586 -0.7750 8.6625
v  7.9407 -0.7419 8.6315
v  7.8898 -0.7750 8.7313
v  7.8588 -0.7419 8.7134
v  11.7142 -0.7750 8.7313
v  11.7452 -0.7419 8.7134
v  7.8304 0.4003 8.8289
v  7.8309 0.4003 10.5747
v  11.7731 0.4003 10.5747
v  11.7736 0.4003 8.8289
v  11.5478 0.4003 8.6031
v  9.8020 0.4003 8.6036
v  9.8020 0.4003 12.5458
v  11.5478 0.4003 12.5463
v  8.0562 0.4003 8.6031
v  8.0562 0.4003 12.5463
v  7.8304 0.4003 12.3205
v  11.7736 0.4003 12.3205
v  7.8597 0.4003 12.4355
v  7.9412 0.4003 12.5170
v  11.6628 0.4003 12.5170
v  11.7443 0.4003 12.4355
v  11.6628 0.4003 8.6324
v  11.7443 0.4003 8.7139
v  7.8597 0.4003 8.7140
v  7.9412 0.4003 8.6324
v  7.8510 -0.8005 8.8316
v  7.8510 -0.8005 10.5747
v  7.8027 -0.7523 10.5747
v  7.8027 -0.7523 8.8252
v  7.8027 -0.7523 12.3242
v  7.8510 -0.8005 12.3178
v  11.8013 -0.7523 8.8252
v  11.8013 -0.7523 10.5747
v  11.7530 -0.8005 10.5747
v  11.7530 -0.8005 8.8316
v  11.7530 -0.8005 12.3178
v  11.8013 -0.7523 12.3242
v  8.0525 -0.7523 8.5754
v  9.8020 -0.7523 8.5754
v  9.8020 -0.8005 8.6237
v  8.0589 -0.8005 8.6237
v  11.5451 -0.8005 8.6237
v  11.5515 -0.7523 8.5754
v  11.5515 -0.7523 12.5740
v  9.8020 -0.7523 12.5740
v  9.8020 -0.8005 12.5258
v  11.5451 -0.8005 12.5258
v  8.0589 -0.8005 12.5258
v  8.0525 -0.7523 12.5740
v  11.6514 -0.8005 8.6521
v  11.6764 -0.7523 8.6089
v  11.6514 -0.8005 12.4973
v  11.6764 -0.7523 12.5405
v  7.8794 -0.8005 12.4241
v  7.8362 -0.7523 12.4491
v  11.7246 -0.8005 12.4241
v  11.7678 -0.7523 12.4491
v  7.9526 -0.8005 12.4973
v  7.9276 -0.7523 12.5405
v  7.9526 -0.8005 8.6521
v  7.9276 -0.7523 8.6089
v  7.8794 -0.8005 8.7253
v  7.8362 -0.7523 8.7003
v  11.7246 -0.8005 8.7253
v  11.7678 -0.7523 8.7003
v  7.8027 0.4003 8.8253
v  7.8027 0.4003 10.5747
v  11.8013 0.4003 8.8252
v  11.8013 0.4003 10.5747
v  11.5515 0.4003 8.5754
v  9.8020 0.4003 8.5754
v  11.5514 0.4003 12.5740
v  9.8020 0.4003 12.5740
v  8.0526 0.4003 8.5754
v  8.0526 0.4003 12.5740
v  7.8027 0.4003 12.3241
v  11.8013 0.4003 12.3241
v  7.8362 0.4003 12.4491
v  7.9276 0.4003 12.5405
v  11.6764 0.4003 12.5405
v  11.7678 0.4003 12.4491
v  11.6764 0.4003 8.6089
v  11.7678 0.4003 8.7003
v  7.8362 0.4003 8.7003
v  7.9276 0.4003 8.6089
# 120 vertices

vn 0.9242 0.3819 0.0000
vn 0.5853 0.8108 0.0001
vn 0.4001 0.9150 0.0523
vn 0.9181 0.3781 0.1190
vn 0.9181 0.3780 -0.1190
vn 0.3990 0.9155 -0.0522
vn -0.5853 0.8108 -0.0001
vn -0.9242 0.3819 -0.0000
vn -0.9181 0.3780 0.1190
vn -0.4000 0.9150 0.0524
vn -0.3990 0.9154 -0.0521
vn -0.9181 0.3782 -0.1189
vn -0.0001 0.9202 0.3915
vn -0.0000 0.3819 0.9242
vn 0.1190 0.3780 0.9181
vn 0.0524 0.9139 0.4026
vn -0.0523 0.9139 0.4026
vn -0.1190 0.3781 0.9181
vn 0.0001 0.9238 -0.3828
vn 0.0000 0.3819 -0.9242
vn -0.1190 0.3780 -0.9181
vn -0.0524 0.9139 -0.4026
vn 0.0523 0.9139 -0.4026
vn 0.1189 0.3782 -0.9181
vn -0.2069 0.9094 0.3608
vn -0.4608 0.3770 0.8034
vn -0.2067 0.9097 -0.3603
vn -0.4608 0.3770 -0.8034
vn 0.3594 0.9102 -0.2056
vn 0.8034 0.3770 -0.4608
vn -0.3594 0.9102 -0.2056
vn -0.8033 0.3772 -0.4609
vn 0.2067 0.9097 -0.3603
vn 0.4609 0.3772 -0.8033
vn 0.2069 0.9094 0.3608
vn 0.4608 0.3770 0.8034
vn 0.3594 0.9102 0.2056
vn 0.8034 0.3770 0.4608
vn -0.3594 0.9102 0.2056
vn -0.8034 0.3770 0.4608
vn 0.6719 0.7358 0.0845
vn 0.7078 0.7064 -0.0000
vn -0.7078 0.7064 0.0000
vn -0.6718 0.7359 0.0845
vn -0.0845 0.7359 0.6718
vn 0.0000 0.7064 0.7078
vn -0.0000 0.7064 -0.7078
vn -0.0845 0.7359 -0.6718
vn 0.0845 0.7359 0.6718
vn 0.0844 0.7357 -0.6720
vn 0.6718 0.7359 -0.0845
vn -0.6720 0.7357 -0.0844
vn 0.5529 0.7715 -0.3149
vn 0.3150 0.7714 -0.5529
vn -0.3149 0.7715 -0.5529
vn -0.5529 0.7714 -0.3150
vn -0.3148 0.7715 0.5529
vn -0.5529 0.7715 0.3148
vn 0.5529 0.7715 0.3149
vn 0.3149 0.7715 0.5529
vn -0.4037 -0.9134 -0.0531
vn -0.3827 -0.9239 -0.0000
vn -0.9239 -0.3827 -0.0000
vn -0.9196 -0.3738 -0.1211
vn -0.9196 -0.3738 0.1211
vn -0.4037 -0.9134 0.0531
vn 0.9196 -0.3738 -0.1211
vn 0.9239 -0.3827 -0.0000
vn 0.3827 -0.9239 -0.0000
vn 0.4037 -0.9134 -0.0531
vn 0.4037 -0.9134 0.0531
vn 0.9196 -0.3738 0.1211
vn -0.1211 -0.3738 -0.9196
vn 0.0000 -0.3827 -0.9239
vn 0.0000 -0.9239 -0.3827
vn -0.0531 -0.9134 -0.4037
vn 0.0531 -0.9134 -0.4037
vn 0.1211 -0.3738 -0.9196
vn 0.1211 -0.3738 0.9196
vn 0.0000 -0.3827 0.9239
vn 0.0000 -0.9239 0.3827
vn 0.0531 -0.9134 0.4037
vn -0.0531 -0.9134 0.4037
vn -0.1211 -0.3738 0.9196
vn 0.2129 -0.9049 -0.3687
vn 0.4647 -0.3692 -0.8048
vn 0.2129 -0.9049 0.3687
vn 0.4647 -0.3692 0.8048
vn -0.3687 -0.9049 0.2129
vn -0.8048 -0.3692 0.4647
vn 0.3687 -0.9049 0.2129
vn 0.8048 -0.3692 0.4647
vn -0.2129 -0.9049 0.3687
vn -0.4647 -0.3692 0.8048
vn -0.2129 -0.9049 -0.3687
vn -0.4647 -0.3692 -0.8048
vn -0.3687 -0.9049 -0.2129
vn -0.8048 -0.3692 -0.4647
vn 0.3687 -0.9049 -0.2129
vn 0.8048 -0.3692 -0.4647
vn -0.7280 0.6789 -0.0958
vn -0.7071 0.7071 0.0000
vn 0.7280 0.6789 -0.0958
vn 0.7071 0.7071 -0.0000
vn 0.0958 0.6789 -0.7280
vn -0.0000 0.7071 -0.7071
vn 0.0958 0.6789 0.7280
vn 0.0000 0.7071 0.7071
vn -0.0958 0.6789 -0.7280
vn -0.0958 0.6789 0.7280
vn -0.7280 0.6789 0.0958
vn 0.7280 0.6789 0.0958
vn -0.6557 0.6532 0.3786
vn -0.3786 0.6532 0.6557
vn 0.3786 0.6532 0.6557
vn 0.6557 0.6532 0.3786
vn 0.3786 0.6532 -0.6557
vn 0.6557 0.6532 -0.3786
vn -0.6557 0.6532 -0.3786
vn -0.3786 0.6532 -0.6557
# 120 vertex normals

vt 0.5434 0.2581 0.0000
vt 0.5470 0.2581 0.0000
vt 0.5471 0.4486 0.0000
vt 0.5434 0.4491 0.0000
vt 0.5434 0.0672 0.0000
vt 0.5471 0.0677 0.0000
vt 0.9714 0.2581 0.0000
vt 0.9750 0.2581 0.0000
vt 0.9750 0.4491 0.0000
vt 0.9713 0.4486 0.0000
vt 0.9713 0.0677 0.0000
vt 0.9750 0.0672 0.0000
vt 0.7592 0.4703 0.0000
vt 0.7592 0.4739 0.0000
vt 0.5682 0.4739 0.0000
vt 0.5687 0.4702 0.0000
vt 0.9496 0.4702 0.0000
vt 0.9501 0.4739 0.0000
vt 0.7592 0.0459 0.0000
vt 0.7592 0.0423 0.0000
vt 0.9501 0.0423 0.0000
vt 0.9496 0.0460 0.0000
vt 0.5687 0.0460 0.0000
vt 0.5682 0.0423 0.0000
vt 0.9608 0.4672 0.0000
vt 0.9627 0.4706 0.0000
vt 0.9608 0.0490 0.0000
vt 0.9627 0.0456 0.0000
vt 0.5501 0.0565 0.0000
vt 0.5467 0.0546 0.0000
vt 0.9683 0.0565 0.0000
vt 0.9717 0.0546 0.0000
vt 0.5576 0.0490 0.0000
vt 0.5556 0.0456 0.0000
vt 0.5576 0.4672 0.0000
vt 0.5556 0.4706 0.0000
vt 0.5501 0.4597 0.0000
vt 0.5467 0.4617 0.0000
vt 0.9683 0.4597 0.0000
vt 0.9717 0.4617 0.0000
vt 0.5436 0.4490 0.0000
vt 0.5436 0.2581 0.0000
vt 0.9747 0.2581 0.0000
vt 0.9748 0.4490 0.0000
vt 0.9501 0.4737 0.0000
vt 0.7592 0.4737 0.0000
vt 0.7592 0.0426 0.0000
vt 0.9501 0.0425 0.0000
vt 0.5683 0.4737 0.0000
vt 0.5683 0.0425 0.0000
vt 0.5436 0.0672 0.0000
vt 0.9748 0.0672 0.0000
vt 0.5468 0.0546 0.0000
vt 0.5557 0.0457 0.0000
vt 0.9627 0.0457 0.0000
vt 0.9716 0.0546 0.0000
vt 0.9627 0.4705 0.0000
vt 0.9716 0.4616 0.0000
vt 0.5468 0.4616 0.0000
vt 0.5557 0.4705 0.0000
vt 0.5458 0.9166 0.0000
vt 0.5458 0.7260 0.0000
vt 0.5405 0.7260 0.0000
vt 0.5405 0.9173 0.0000
vt 0.5405 0.5347 0.0000
vt 0.5458 0.5354 0.0000
vt 0.9778 0.9173 0.0000
vt 0.9778 0.7260 0.0000
vt 0.9725 0.7260 0.0000
vt 0.9725 0.9166 0.0000
vt 0.9725 0.5354 0.0000
vt 0.9778 0.5347 0.0000
vt 0.5679 0.9447 0.0000
vt 0.7592 0.9447 0.0000
vt 0.7592 0.9394 0.0000
vt 0.5686 0.9394 0.0000
vt 0.9498 0.9394 0.0000
vt 0.9505 0.9447 0.0000
vt 0.9505 0.5074 0.0000
vt 0.7592 0.5074 0.0000
vt 0.7592 0.5127 0.0000
vt 0.9498 0.5127 0.0000
vt 0.5686 0.5127 0.0000
vt 0.5679 0.5074 0.0000
vt 0.9614 0.9363 0.0000
vt 0.9642 0.9410 0.0000
vt 0.9614 0.5158 0.0000
vt 0.9642 0.5110 0.0000
vt 0.5489 0.5238 0.0000
vt 0.5442 0.5210 0.0000
vt 0.9694 0.5238 0.0000
vt 0.9742 0.5210 0.0000
vt 0.5569 0.5158 0.0000
vt 0.5542 0.5110 0.0000
vt 0.5569 0.9363 0.0000
vt 0.5542 0.9410 0.0000
vt 0.5489 0.9283 0.0000
vt 0.5442 0.9310 0.0000
vt 0.9694 0.9283 0.0000
vt 0.9742 0.9310 0.0000
vt 0.9641 0.5110 0.0000
vt 0.5436 0.7260 0.0000
vt 0.5436 0.9169 0.0000
vt 0.9748 0.9169 0.0000
vt 0.9747 0.7260 0.0000
vt 0.7592 0.9416 0.0000
vt 0.9501 0.9416 0.0000
vt 0.9501 0.5104 0.0000
vt 0.7592 0.5105 0.0000
vt 0.5683 0.9416 0.0000
vt 0.5683 0.5104 0.0000
vt 0.5436 0.5351 0.0000
vt 0.9748 0.5351 0.0000
vt 0.5468 0.5225 0.0000
vt 0.5557 0.5136 0.0000
vt 0.9627 0.5136 0.0000
vt 0.9716 0.5225 0.0000
vt 0.9627 0.9384 0.0000
vt 0.9716 0.9295 0.0000
vt 0.5468 0.9295 0.0000
vt 0.5557 0.9384 0.0000
# 121 texture coords

g default001
usemtl wire_134006006
s 1
f 1/1/1 2/2/2 3/3/3 4/4/4 
f 2/2/2 1/1/1 5/5/5 6/6/6 
f 7/7/7 8/8/8 9/9/9 10/10/10 
f 8/8/8 7/7/7 11/11/11 12/12/12 
f 13/13/13 14/14/14 15/15/15 16/16/16 
f 14/14/14 13/13/13 17/17/17 18/18/18 
f 19/19/19 20/20/20 21/21/21 22/22/22 
f 20/20/20 19/19/19 23/23/23 24/24/24 
f 18/18/18 17/17/17 25/25/25 26/26/26 
f 27/27/27 22/22/22 21/21/21 28/28/28 
f 29/29/29 6/6/6 5/5/5 30/30/30 
f 12/12/12 11/11/11 31/31/31 32/32/32 
f 24/24/24 23/23/23 33/33/33 34/34/34 
f 35/35/35 16/16/16 15/15/15 36/36/36 
f 4/4/4 3/3/3 37/37/37 38/38/38 
f 39/39/39 10/10/10 9/9/9 40/40/40 
f 29/29/29 30/30/30 34/34/34 33/33/33 
f 27/27/27 28/28/28 32/32/32 31/31/31 
f 26/26/26 25/25/25 39/39/39 40/40/40 
f 38/38/38 37/37/37 35/35/35 36/36/36 
f 1/1/1 4/4/4 41/41/41 42/42/42 
f 43/43/43 44/44/44 9/9/9 8/8/8 
f 14/14/14 18/18/18 45/45/45 46/46/46 
f 47/47/47 48/48/48 21/21/21 20/20/20 
f 46/46/46 49/49/49 15/15/15 14/14/14 
f 20/20/20 24/24/24 50/50/50 47/47/47 
f 42/42/42 51/51/51 5/5/5 1/1/1 
f 8/8/8 12/12/12 52/52/52 43/43/43 
f 30/30/30 5/5/5 51/51/51 53/53/53 
f 34/34/34 30/30/30 53/53/53 54/54/54 
f 24/24/24 34/34/34 54/54/54 50/50/50 
f 28/28/28 21/21/21 48/48/48 55/55/55 
f 32/32/32 28/28/28 55/55/55 56/56/56 
f 12/12/12 32/32/32 56/56/56 52/52/52 
f 26/26/26 57/57/57 45/45/45 18/18/18 
f 40/40/40 58/58/58 57/57/57 26/26/26 
f 40/40/40 9/9/9 44/44/44 58/58/58 
f 38/38/38 59/59/59 41/41/41 4/4/4 
f 36/36/36 60/60/60 59/59/59 38/38/38 
f 36/36/36 15/15/15 49/49/49 60/60/60 
s 5
f 61/61/61 62/62/62 63/63/63 64/64/64 
f 65/65/65 63/63/63 62/62/62 66/66/66 
f 67/67/67 68/68/68 69/69/69 70/70/70 
f 71/71/71 69/69/69 68/68/68 72/72/72 
f 73/73/73 74/74/74 75/75/75 76/76/76 
f 77/77/77 75/75/75 74/74/74 78/78/78 
f 79/79/79 80/80/80 81/81/81 82/82/82 
f 83/83/83 81/81/81 80/80/80 84/84/84 
f 85/85/85 77/77/77 78/78/78 86/86/86 
f 87/87/87 88/88/88 79/79/79 82/82/82 
f 89/89/89 90/90/90 65/65/65 66/66/66 
f 91/91/91 71/71/71 72/72/72 92/92/92 
f 93/93/93 83/83/83 84/84/84 94/94/94 
f 95/95/95 96/96/96 73/73/73 76/76/76 
f 97/97/97 61/61/61 64/64/64 98/98/98 
f 99/99/99 100/100/100 67/67/67 70/70/70 
f 94/94/94 90/90/90 89/89/89 93/93/93 
f 92/92/92 88/88/88 87/87/87 91/91/91 
f 99/99/99 85/85/85 86/86/86 100/100/100 
f 95/95/95 97/97/97 98/98/98 96/96/96 
f 101/64/101 64/64/64 63/63/63 102/63/102 
f 67/67/67 103/67/103 104/68/104 68/68/68 
f 105/78/105 78/78/78 74/74/74 106/74/106 
f 79/79/79 107/79/107 108/80/108 80/80/80 
f 73/73/73 109/73/109 106/74/106 74/74/74 
f 110/84/110 84/84/84 80/80/80 108/80/108 
f 65/65/65 111/65/111 102/63/102 63/63/63 
f 112/72/112 72/72/72 68/68/68 104/68/104 
f 111/65/111 65/65/65 90/90/90 113/90/113 
f 113/90/113 90/90/90 94/94/94 114/94/114 
f 114/94/114 94/94/94 84/84/84 110/84/110 
f 107/79/107 79/79/79 88/88/88 115/101/115 
f 115/101/115 88/88/88 92/92/92 116/92/116 
f 116/92/116 92/92/92 72/72/72 112/72/112 
f 105/78/105 117/86/117 86/86/86 78/78/78 
f 117/86/117 118/100/118 100/100/100 86/86/86 
f 103/67/103 67/67/67 100/100/100 118/100/118 
f 101/64/101 119/98/119 98/98/98 64/64/64 
f 119/98/119 120/96/120 96/96/96 98/98/98 
f 109/73/109 73/73/73 96/96/96 120/96/120 
s 9
f 101/64/101 102/63/102 42/102/42 41/103/41 
f 104/68/104 103/67/103 44/104/44 43/105/43 
f 105/78/105 106/74/106 46/106/46 45/107/45 
f 108/80/108 107/79/107 48/108/48 47/109/47 
f 106/74/106 109/73/109 49/110/49 46/106/46 
f 110/84/110 108/80/108 47/109/47 50/111/50 
f 102/63/102 111/65/111 51/112/51 42/102/42 
f 112/72/112 104/68/104 43/105/43 52/113/52 
f 111/65/111 113/90/113 53/114/53 51/112/51 
f 113/90/113 114/94/114 54/115/54 53/114/53 
f 54/115/54 114/94/114 110/84/110 50/111/50 
f 107/79/107 115/101/115 55/116/55 48/108/48 
f 115/101/115 116/92/116 56/117/56 55/116/55 
f 56/117/56 116/92/116 112/72/112 52/113/52 
f 57/118/57 117/86/117 105/78/105 45/107/45 
f 118/100/118 117/86/117 57/118/57 58/119/58 
f 103/67/103 118/100/118 58/119/58 44/104/44 
f 59/120/59 119/98/119 101/64/101 41/103/41 
f 120/96/120 119/98/119 59/120/59 60/121/60 
f 109/73/109 120/96/120 60/121/60 49/110/49 
s 1
f 13/13/13 16/16/16 35/35/35 25/25/25 
f 35/35/35 37/37/37 3/3/3 6/6/6 
f 3/3/3 2/2/2 6/6/6 
f 6/6/6 29/29/29 33/33/33 19/19/19 
f 33/33/33 23/23/23 19/19/19 
f 35/35/35 6/6/6 19/19/19 25/25/25 
f 19/19/19 22/22/22 27/27/27 11/11/11 
f 27/27/27 31/31/31 11/11/11 
f 11/11/11 7/7/7 10/10/10 25/25/25 
f 10/10/10 39/39/39 25/25/25 
f 19/19/19 11/11/11 25/25/25 
f 13/13/13 25/25/25 17/17/17 
s 5
f 93/93/93 89/89/89 66/66/66 81/81/81 
f 62/62/62 61/61/61 97/97/97 66/66/66 
f 97/97/97 95/95/95 76/76/76 75/75/75 
f 66/66/66 97/97/97 75/75/75 91/91/91 
f 75/75/75 77/77/77 85/85/85 70/70/70 
f 85/85/85 99/99/99 70/70/70 
f 69/69/69 71/71/71 91/91/91 70/70/70 
f 75/75/75 70/70/70 91/91/91 
f 91/91/91 87/87/87 82/82/82 81/81/81 
f 66/66/66 91/91/91 81/81/81 
f 93/93/93 81/81/81 83/83/83 
# 113 polygons - 10 triangles

